<?xml version="1.0" encoding="UTF-8"?><svg id="a" xmlns="http://www.w3.org/2000/svg" width="52.442" height="90.585" viewBox="0 0 52.442 90.585"><path d="M46.915,42.314c-2.618-2.46-5.614-4.414-8.922-5.813-1.271-.538-2.569-.983-3.889-1.339,2.476-2.184,4.039-5.379,4.039-8.941,0-6.585-5.338-11.922-11.922-11.922-3.032,0-5.798,1.133-7.901,2.998V1.214c2.493-.788,5.147-1.214,7.901-1.214,14.481,0,26.221,11.74,26.221,26.221,0,6.068-2.065,11.651-5.526,16.093Z" fill="#808184"/><path d="M38.143,64.364c0,6.585-5.338,11.922-11.922,11.922s-11.922-5.338-11.922-11.922,5.338-11.922,11.922-11.922,11.922,5.338,11.922,11.922ZM52.442,64.364c0-14.481-11.74-26.221-26.221-26.221-6,0-11.922-4.717-11.922-11.922V2.601s-4.842,2.262-8.579,5.636C1.908,11.679,0,14.293,0,14.293v61.223c3.142,6.008,11.74,15.069,26.221,15.069s26.221-11.74,26.221-26.221Z" fill="#8cb53f"/></svg>