<?xml version="1.0" encoding="UTF-8"?><svg id="a" xmlns="http://www.w3.org/2000/svg" width="83.097" height="90.268" viewBox="0 0 83.097 90.268"><path d="M60.6,0c.217.159.118.152.422.281.058-.026,1.207-.037,1.265,0,.436.409.688.682.703,1.547-.156.387.312.513.141,1.125-.065.231-.469.618-.562.844-.447,1.078-.442,1.895-.844,2.953-.199.525-.795,1.031-.984,1.547-.473,1.29-.319,3.172-1.547,3.656-.407.317-1.112.276-1.547.141v.281c.375.138.242.18.703.281.19-.228.09-.158.422-.281.258.41.385.408.422,1.125-.569.788-.595,2.01-.984,2.953-.252.611-.511,1.451-.844,2.109l-.422.422c-.5,1.243.045,2.52-.281,3.937-.632,2.747-1.043,6.431-1.828,8.999-.547,1.791-.868,5.492-3.093,5.484-.656-.616-1.705-.569-2.531-.703-.12-.205-.255-.403-.422-.562.933-2.434-.243-5.913.562-8.858.29-1.06.984-2.098,1.406-2.953.311-.63.15-1.597.281-1.968.244-.695.89-1.447,1.125-2.109.263-.741-.228-.917,0-1.687.207-.701.264-1.743.422-2.39.484-1.985.016-4.466,2.109-4.499v-.281c-.367-.193-.745-.368-.984-.703.252-.287.192-.993,0-1.547.836-1.727.299-4.676,1.687-6.608.585-.814,1.804-2.004,2.531-2.25.808-.273,2.198.644,2.531,0,.113-.144.05-.039.141-.281Z" fill="#555" fill-rule="evenodd"/><path d="M40.213.141c2.746,1.812,2.076,4.372,1.406,7.593.465.326.691.59.703,1.406-.365.386.091.611-.141,1.406-.078.269-.106.794-.281,1.125l-.422.422c-.188.725.186,2.335,0,3.093-.528,2.155-1.062,4.398-.422,7.03.234.962-.56,1.349-.281,2.25.589,1.903.829,5.038.562,7.03-.221,1.657.805,3.475.422,4.499-.443-.275-1.592-1.191-2.39-1.125-.605.05-1.151.583-1.828.703-.835-1.361-.168-2.037-.422-3.656-.1-.64-.666-1-.844-1.687-.037-.144.257-.748.141-1.125-.662-2.141-1.201-3.09.422-4.781-1.307-.687-.831-3.025-.281-4.781-.659-.294-.382-1.087-.422-1.828-.018-.331.278-.352.422-.703v-.141c-.192-.699-.418-2.895-.703-3.937.453-.316,1.033-.881,1.265-1.406-1.956-.401-1.091-2.361-1.125-3.796-.023-.998.16-2.894.562-3.656l.844-.844c.47-.928.448-1.726,1.125-2.39.279-.273.724-.262.984-.562.287.021.383.102.703-.141Z" fill="#555" fill-rule="evenodd"/><path d="M71.146,9.983v.562c.353-.023.428.057.984.141.016.524.063.544,0,.844.365-.005.32-.182.562.281.405.448-.285,2.229-.562,3.234h-.422c-.02.768-.264,1.745-.562,1.968-.218.163-.555.075-.703.281-.359.498-.214,1.344-.562,1.828-.144-.113-.038-.05-.281-.141.624,2.413-1.95,5.02-2.953,7.171.812.82-.614,2.292-.844,2.953-.047.562-.094,1.125-.141,1.687-1.064,3.692-3.103,9.934-5.484,12.233-.234-.047-.469-.094-.703-.141v.281c.412.208.539.419.844.703-.075.299-.451,1.84-.422,1.968.049.214.485.494.562.703.1.272-.194.47-.141.562.242.421.563.287.703.984-.457.252-.637.292-.703.984h.281c.241.214.182-.165.422.281.784.468.152,1.27.422,1.547.218.21.258.109.422.422h-.422v.562c.328.047.656.094.984.141v.422h.141c.326-.163.633.277.844.281l.281-.281c.282.318.656.193,1.125.562.438.519.489.988.422,1.687.327-.041.348-.063.562-.141.004.731.564,2.763.844,3.374-.071.122-.42-.091-.281.281.145.389.603.094.703,1.125-.456.116-.215-.069-.422.281.113.144.05.038.141.281h.422c-.15,1.313-.413,1.966-.562,3.093-.049.369.254,1.013,0,1.547-.14.293-.628.605-.844.844.005.186.102,1.345,0,1.687-.411,1.373-1.381,2.668-1.828,4.078.417.117.384.062.562.422-.688.185-.823.464-1.687.562-.021.706-.163,1.736-.562,1.968v-.141c-.094.047-.188.094-.281.141-.169.568-.061.959-.703,1.125-.253,1.857-2.164,2.381-3.796,2.671-.104-.556-.013-.451-.562-.562-.155.331-.135.25-.422.422v.422c-.706.069-.84.259-1.687.281.044.506.103.47,0,.844h-.141v-.422h-.984l.141.141c-.208.633.131,1.072.141,1.265-.188.267-.18.123-.281.562,0,0,.558.062.281.141h-.141c-.334.951-.957,2.136-1.828,2.531-.205-.358.03-.159-.422-.281-.155.405-.106.458-.422.562-.217-.099-.019-.018-.422,0v.703c.106.151.085.133.141.422.281-.047.562-.094.844-.141v.141h-.141c-.584.599-1.425.184-1.687,1.125h.422c.047.234.094.469.141.703.225.078.338.113.703.141.234-.271.257-.322.703-.422.196.21.456.406.703.562-.275.553-1.13,1.849-1.687,2.25-.579.415-1.209.491-1.687.984-.698-.029-.77-.306-1.125-.422-.612-.199-1.749.577-2.953.141-.318-.115-.346-.554-.562-.703-.217-.15-.465.111-.562.141-1.127-.522-2.373-1.589-3.515-1.687-.052-.559-.279-1.593-.703-1.828v.281c-.277.208.079.2-.422.281-.456-.495-1.01-.188-1.265-.281-.363-.211-.297-.421-.281-.984.123-.182.126-.347.141-.703h-.281c-.1,2.311-2.233,1.658-4.078,2.25-.486.156-.657.858-1.125.984-.663.179-1.569-.44-1.968-.562-1.104-.34-2.535.154-3.515-.141-4.114-1.237-8.771-3.061-10.264-6.89-1.017-2.608-1.198-5.896-1.968-8.296-.929-2.893-1.46-9.717,1.125-10.827h1.406c.228-.169,1.186-.593,1.687-.844-.053-.338-.089-.216,0-.562.811.011.473-.462,1.547-.422-.047-.281-.094-.562-.141-.844.576-.042.703-.122,1.125,0v-.281c.17-.297.068-.314,0-.703.247-.089.137-.027.281-.141.375.141.75.281,1.125.422v-.562c-.436-.172-.318-.053-.422-.562.624-.289,1.319-.39,1.828-.562-.206-.624.045-1.296.562-1.547h.984c.2-.11,0-.393.141-.562.376-.45,1.45-.343,1.968-.281-.083-.602-.206-1.083.141-1.547.406-1.219,1.905-1.443,2.39-2.531.735-1.648,1.113-3.036,1.828-4.64.162-.364.473-1.2.281-1.406.646-.663.985-1.325,1.547-2.109.495-.691,1.369-1.22,1.828-1.968.593-.968.887-1.946,1.547-2.812h.281c.116.456-.069.215.281.422.837-.717,1.908-.862,3.515-.844v.281c.303.375.408.728.422,1.406h.422c-.055-.412-.23-.176.141-.422.432.266.641-.116,1.125.141.167.088.151.458.281.562.361.29,1.25.112,1.547.141.082.947.706,1.875,1.687,1.968.138-.375.18-.242.281-.703-.347-.101-.597-.334-.703-.703.445.001.263.2.422-.281-.102-.315-.126-.36.281-.562.833-.53,1.802.408,2.39.562.863.226,2.721-.411,3.234.844-.047.328-.094.656-.141.984.141.047.281.094.422.141.128.262-.337.234.141.562.151-.106.133-.085.422-.141.062.395-.016.459.141.703.241-.236.519-.375.703-.281.49.207.398.503.562.984.514-.258.691-.414,1.547-.422.341.664.963.852,1.968.844v-.281c-.706-.237-.938-.804-1.406-1.265-.081-3.009.281-5.428,1.547-7.452.464-.741,1.501-1.277,1.828-2.109.15-.383-.122-1.32.141-1.968.598-1.472,1.547-2.998,1.968-4.781.13-.549-.215-1.593-.141-2.25.101-.884.52-1.603.844-2.25.412.055.176.23.422-.141-.875-.566-.574-2.51-.281-3.656.734-2.877,1.083-4.105,2.812-6.187.383-.461,1.153-1.45,1.828-1.125.938.269,1.149.04,2.25-.141.235.243.523.402.844.562v.281h-.422Z" fill="#555" fill-rule="evenodd"/><path d="M82.956,28.964c-.532.033-1.128.225-1.265.422-.172.301-.055.389,0,.844.281.047.562.094.844.141.132.528.373.665.562.984v1.687c-.219.645-.925,1.275-1.265,1.828-.624,1.015-1.055,2.047-1.687,2.953-.307.44-2.028,2.044-2.109,1.968-.353.548-.628.803-.422,1.547-.461,1.133-1.611,2.089-2.531,2.812-.847.666-1.043,2.576-2.109,2.953-.423.213-.676-.166-1.265-.281-.144.113-.038.05-.281.141.342.39.428.451.422,1.265-.68.428-.806,1.558-1.547,1.968-.325.259-1.072.301-1.125.281-.361-.187-.537-.311-.703-.703.401-.29.6-.349.703-.984-.276-.385-.395-.942-.422-1.547.386-.432.385-1.023.984-1.265.253-.162.425-.048.562-.141.212-.5.045-1.792.422-2.531.344-.673,1.014-1.332,1.406-1.968.441-.715.511-1.547.984-2.25.422-.422.844-.844,1.265-1.265-.047-.281-.094-.562-.141-.844.145-.719.156-1.701.422-2.39.349-.906,1.11-2.031,1.687-2.812.328-.281.656-.562.984-.844.267-.425.322-.988.703-1.265.426-.309,3.853-1.567,4.218-1.406.331.08.442.16.703.281v.422Z" fill="#555" fill-rule="evenodd"/><path d="M2.671,41.759h-.422c-.471-1.86-2.099-2.924-2.25-5.062.412-.5.829-1.114,1.125-1.687.582-.103,1.319-.52,1.828-.281,4.967,1.549,8.995,4.421,7.593,10.686-.328.094-.656.188-.984.281-.003.94-.239.351-.562.984-.189.37.224.147,0,.422-.292.314-.715.512-.984.844-1.363-.43-1.791-.686-2.812-1.828-.168-.188-.7-.223-.844-.422,0,0-.097-.859-.281-1.125-.541-.781-1.314-1.579-1.406-2.812Z" fill="#555" fill-rule="evenodd"/><path d="M52.445,37.682c.292.052.27.034.422.141h.141v.422h-.562v-.562Z" fill="#555" fill-rule="evenodd"/><path d="M46.399,39.088c.456.116.215-.069.422.281-.047.047-.094.094-.141.141-.047-.047-.094-.094-.141-.141-.113-.144-.05-.039-.141-.281Z" fill="#555" fill-rule="evenodd"/><path d="M9.28,47.946c.113.144.05.038.141.281-.445.056-.534.139-.844.281v-.281c.298-.063.513-.126.703-.281Z" fill="#555" fill-rule="evenodd"/><path d="M61.725,50.196c.327.041.348.063.562.141v.281h-.281c-.159-.217-.152-.118-.281-.422Z" fill="#555" fill-rule="evenodd"/></svg>