<?xml version="1.0" encoding="UTF-8"?>
<svg id="a" xmlns="http://www.w3.org/2000/svg" xmlns:xlink="http://www.w3.org/1999/xlink" version="1.1" viewBox="0 0 83.1 90.3">
  <!-- Generator: Adobe Illustrator 29.1.0, SVG Export Plug-In . SVG Version: 2.1.0 Build 142)  -->
  <defs>
    <style>
      .st0 {
        fill: url(#radial-gradient);
        fill-rule: evenodd;
      }
    </style>
    <radialGradient id="radial-gradient" cx="43.9" cy="89.9" fx="43.9" fy="89.9" r="43.4" gradientTransform="translate(0 165.6) scale(1 -1.2)" gradientUnits="userSpaceOnUse">
      <stop offset=".2" stop-color="#9f9f9f"/>
      <stop offset="1" stop-color="#707070"/>
    </radialGradient>
  </defs>
  <path class="st0" d="M60.6,0c.2.2,0,.2.4.3h1.3c.4.4.7.7.7,1.5-.2.4.3.5,0,1.1,0,.2-.5.6-.6.8-.4,1.1-.4,1.9-.8,3-.2.5-.8,1-1,1.5-.5,1.3-.3,3.2-1.5,3.7-.4.3-1.1.3-1.5.1v.3c.4.1.2.2.7.3.2-.2,0-.2.4-.3.3.4.4.4.4,1.1-.6.8-.6,2-1,3-.3.6-.5,1.5-.8,2.1l-.4.4c-.5,1.2,0,2.5-.3,3.9-.6,2.7-1,6.4-1.8,9-.5,1.8-.9,5.5-3.1,5.5-.7-.6-1.7-.6-2.5-.7,0-.2-.3-.4-.4-.6.9-2.4-.2-5.9.6-8.9.3-1.1,1-2.1,1.4-3,.3-.6.2-1.6.3-2,.2-.7.9-1.4,1.1-2.1.3-.7-.2-.9,0-1.7.2-.7.3-1.7.4-2.4.5-2,0-4.5,2.1-4.5v-.3c-.4-.2-.7-.4-1-.7.3-.3.2-1,0-1.5.8-1.7.3-4.7,1.7-6.6.6-.8,1.8-2,2.5-2.2.8-.3,2.2.6,2.5,0,0-.1,0,0,0-.3h0v.2ZM40.2.1c2.7,1.8,2.1,4.4,1.4,7.6.5.3.7.6.7,1.4-.4.4,0,.6,0,1.4,0,.3,0,.8-.3,1.1l-.4.4c-.2.7.2,2.3,0,3.1-.5,2.2-1.1,4.4-.4,7,.2,1-.6,1.3-.3,2.2.6,1.9.8,5,.6,7-.2,1.7.8,3.5.4,4.5-.4-.3-1.6-1.2-2.4-1.1-.6,0-1.2.6-1.8.7-.8-1.4-.2-2-.4-3.7,0-.6-.7-1-.8-1.7,0-.1.3-.7,0-1.1-.7-2.1-1.2-3.1.4-4.8-1.3-.7-.8-3-.3-4.8-.7-.3-.4-1.1-.4-1.8s.3-.4.4-.7h0c-.2-.8-.4-3-.7-4.1.5-.3,1-.9,1.3-1.4-2-.4-1.1-2.4-1.1-3.8s.2-2.9.6-3.7l.8-.8c.5-.9.4-1.7,1.1-2.4C38.9.3,39.3.3,39.6,0c.3,0,.4.1.7-.1h0V.1ZM71.1,10v.6q.4,0,1,.1v.8c.4,0,.3-.2.6.3.4.4-.3,2.2-.6,3.2h-.4c0,.8-.3,1.7-.6,2-.2.2-.6,0-.7.3-.4.5-.2,1.3-.6,1.8,0-.1,0,0-.3-.1.6,2.4-1.9,5-3,7.2.8.8-.6,2.3-.8,3,0,.6,0,1.1,0,1.7-1.1,3.7-3.1,9.9-5.5,12.2-.2,0-.5,0-.7,0v.3c.4.2.5.4.8.7,0,.3-.5,1.8-.4,2,0,.2.5.5.6.7,0,.3-.2.5,0,.6.2.4.6.3.7,1-.5.3-.6.3-.7,1h.3c.2.2.2-.2.4.3.8.5.2,1.3.4,1.5s.3,0,.4.4h-.4v.6c.3,0,.7,0,1,0v.4h0c.3-.2.6.3.8.3l.3-.3c.3.3.7.2,1.1.6.4.5.5,1,.4,1.7q.3,0,.6,0c0,.7.6,2.8.8,3.4,0,0-.4,0-.3.3,0,.4.6,0,.7,1.1-.5,0-.2,0-.4.3,0,0,0,0,0,.3h.4c-.2,1.3-.4,2-.6,3.1,0,.4.3,1,0,1.5,0,.3-.6.6-.8.8,0,.2,0,1.3,0,1.7-.4,1.4-1.4,2.7-1.8,4.1.4,0,.4,0,.6.4-.7.2-.8.5-1.7.6,0,.7-.2,1.7-.6,2h-.3c-.2.6,0,1-.7,1.1-.3,1.9-2.2,2.4-3.8,2.7,0-.6,0-.5-.6-.6-.2.3,0,.2-.4.4v.4c-.7,0-.8.3-1.7.3,0,.5,0,.5,0,.8h0v-.4h-1,0c-.2.8,0,1.2,0,1.4-.2.3-.2,0-.3.6,0,0,.6,0,.3,0h0c-.3,1-1,2.1-1.8,2.5-.2-.4,0-.2-.4-.3-.2.4,0,.5-.4.6h-.4v.7c0,.2,0,0,0,.4.3,0,.6,0,.8,0h0c0,0,0,0,0,0-.6.6-1.4.2-1.7,1.1h.4c0,.2,0,.5,0,.7.2,0,.3,0,.7,0,.2-.3.3-.3.7-.4.2.2.5.4.7.6-.3.6-1.1,1.8-1.7,2.2-.6.4-1.2.5-1.7,1-.7,0-.8-.3-1.1-.4-.6-.2-1.7.6-3,0-.3,0-.3-.6-.6-.7-.2-.2-.5,0-.6,0-1.1-.5-2.4-1.6-3.5-1.7,0-.6-.3-1.6-.7-1.8v.3c-.3.2,0,.2-.4.3-.5-.5-1-.2-1.3-.3-.4-.2-.3-.4-.3-1,0-.2,0-.3,0-.7h-.3c0,2.3-2.2,1.7-4.1,2.2-.5.2-.7.9-1.1,1-.7.2-1.6-.4-2-.6-1.1-.3-2.5.2-3.5,0-4.1-1.2-8.8-3.1-10.3-6.9-1-2.6-1.2-5.9-2-8.3-.9-2.9-1.5-9.7,1.1-10.8h1.4c.2-.2,1.2-.6,1.7-.8v-.6c.8,0,.5-.5,1.5-.4,0-.3,0-.6-.1-.8.6,0,.7,0,1.1,0v-.3c.2-.3,0-.3,0-.7.2,0,.1,0,.3,0,.4,0,.8.3,1.1.4v-.6c-.4-.2-.3,0-.4-.6.6-.3,1.3-.4,1.8-.6-.2-.6,0-1.3.6-1.5h1c.2,0,0-.4.1-.6.4-.5,1.5-.3,2-.3,0-.6-.2-1.1.1-1.5.4-1.2,1.9-1.4,2.4-2.5.7-1.6,1.1-3,1.8-4.6.2-.4.5-1.2.3-1.4.6-.7,1-1.3,1.5-2.1.5-.7,1.4-1.2,1.8-2,.6-1,.9-1.9,1.5-2.8h.3c0,.5,0,.2.3.4.8-.7,1.9-.9,3.5-.8v.3c.3.4.4.7.4,1.4h.4c0-.4-.2-.2,0-.4.4.3.6,0,1.1,0,.2,0,.2.5.3.6.4.3,1.2,0,1.5,0,0,.9.7,1.9,1.7,2,0-.4.2-.2.3-.7-.3,0-.6-.3-.7-.7.4,0,.3.2.4-.3,0-.3,0-.4.3-.6.8-.5,1.8.4,2.4.6.9.2,2.7-.4,3.2.8,0,.3,0,.7,0,1,0,0,.3,0,.4,0,0,.3-.3.2,0,.6.2,0,0,0,.4,0,0,.4,0,.5,0,.7.2-.2.5-.4.7-.3.5.2.4.5.6,1,.5-.3.7-.4,1.5-.4.3.7,1,.9,2,.8v-.3c-.7-.2-.9-.8-1.4-1.3,0-3,.3-5.4,1.5-7.5.5-.7,1.5-1.3,1.8-2.1.2-.4,0-1.3,0-2,.6-1.5,1.5-3,2-4.8,0-.5-.2-1.6,0-2.2,0-.9.5-1.6.8-2.2.4,0,.2.2.4-.1-.9-.6-.6-2.5-.3-3.7.7-2.9,1.1-4.1,2.8-6.2.4-.5,1.2-1.4,1.8-1.1.9.3,1.1,0,2.2-.1.2.2.5.4.8.6v.3h-.4l1.1-.2ZM83,29c-.5,0-1.1.2-1.3.4-.2.3,0,.4,0,.8.3,0,.6,0,.8.1,0,.5.4.7.6,1v1.7c-.2.6-.9,1.3-1.3,1.8-.6,1-1.1,2-1.7,3-.3.4-2,2-2.1,2-.4.5-.6.8-.4,1.5-.5,1.1-1.6,2.1-2.5,2.8-.8.7-1,2.6-2.1,3-.4.2-.7-.2-1.3-.3,0,0,0,0-.3,0,.3.4.4.5.4,1.3-.7.4-.8,1.6-1.5,2-.3.3-1.1.3-1.1.3-.4-.2-.5-.3-.7-.7.4-.3.6-.3.7-1-.3-.4-.4-.9-.4-1.5.4-.4.4-1,1-1.3.3-.2.4,0,.6,0,.2-.5,0-1.8.4-2.5.3-.7,1-1.3,1.4-2s.5-1.5,1-2.2c.4-.4.8-.8,1.3-1.3,0-.3,0-.6,0-.8,0-.7.2-1.7.4-2.4.3-.9,1.1-2,1.7-2.8.3-.3.7-.6,1-.8.3-.4.3-1,.7-1.3.4-.3,3.9-1.6,4.2-1.4.3,0,.4.2.7.3v.4h0ZM2.7,41.8h-.4c-.5-1.9-2.1-3-2.3-5.1.4-.5.8-1.1,1.1-1.7.6,0,1.3-.5,1.8-.3,5,1.5,9,4.4,7.6,10.7-.3,0-.7.2-1,.3,0,.9-.2.4-.6,1-.2.4.2,0,0,.4-.3.3-.7.5-1,.8-1.4-.4-1.8-.7-2.8-1.8-.2-.2-.7-.2-.8-.4,0,0,0-.9-.3-1.1-.5-.8-1.3-1.6-1.4-2.8h.1ZM52.4,37.7q.3,0,.4,0h0v.4h-.6v-.6h0ZM46.4,39.1c.5,0,.2,0,.4.3h-.2c0,0,0,0,0-.3h-.1ZM9.3,47.9c.1,0,0,0,.1.3-.4,0-.5,0-.8.3v-.3c.3,0,.5,0,.7-.3ZM61.7,50.2q.3,0,.6,0v.3h-.3c-.2-.2-.2,0-.3-.4Z"/>
</svg>