<?xml version="1.0" encoding="UTF-8"?><svg id="a" xmlns="http://www.w3.org/2000/svg" width="8.301in" height="5.536in" viewBox="0 0 597.7 398.603" preserveAspectRatio="xMidYMin meet"><path d="M298.599,0C192.699,0,106.849,85.85,106.849,191.75c0,22.295,3.818,43.696,10.814,63.6.005-.006.009-.014.014-.02,7.637-8.539,18.977-21.553,26.998-29.669,4.399-4.451,8.189-11.325,14.296-6.754,9.879,7.394,20.156,23.071,29.215,32.285,4.152,4.223,5.7,7.796,10.924,2.634,25.156-24.859,48.19-53.749,73.063-79.167,5.572-5.694,14.953-15.94,21.532-19.738,9.068-5.234,15.989,3.635,21.67,8.838,5.222,4.783,85.063,91.137,85.844,91.904s1.445,1.176,2.569.411c8.225-7.715,20.15-22.017,30.399-32.671,9.418-9.79,9.526-8.65,18.79.75,8.251,8.372,18.799,20.818,27.14,29.543,6.63-19.433,10.232-40.268,10.232-61.945C490.35,85.85,404.5,0,298.599,0Z" fill="#085ca8"/><path d="M159.698,274.8c8.831,15.904,17.498,32.052,27.154,47.479,2.722,4.349,6.902,11.881,10.04,15.46.739.844,1.149,1.855,2.551,1.555l50.387-87.248,2.864-1.993,44.95,78.282,1.875.406,46.561-79.439,52.143,89.992c1.252.294,1.51-.412,2.221-1.135,3.479-3.539,7.972-11.656,10.826-16.174,9.748-15.434,18.012-31.78,27.817-47.183,3.73,7.12,29.361,62.343,32.997,62.232l49.866-86.983c20.944,50.295,47.424,98.116,75.355,144.781l.396,2.203c-2.777.856-4.84,1.634-7.88,1.562-27.094-.639-56.596-4.983-83.996-6.791-2.982-.197-6.002.178-8.984-.016-87.629-5.702-173.102-8.768-260.977-6.711-62.144,1.454-124.024,5.515-186.022,9.727-13.796.938-30.071,3.773-43.585,3.662-1.395-.011-6.551-.538-6.243-2.471,27.947-47.519,53.94-96.326,76.454-146.694l49.116,87.73c3.929-.094,28.171-56.156,34.115-62.233h0Z" fill="#085ca8"/></svg>