<?xml version="1.0" encoding="UTF-8"?><svg id="a" xmlns="http://www.w3.org/2000/svg" width="99.371" height="84.495" xmlns:xlink="http://www.w3.org/1999/xlink" viewBox="0 0 99.371 84.495"><defs><radialGradient id="b" cx="48.973" cy="35.629" fx="48.973" fy="35.629" r="46.117" gradientUnits="userSpaceOnUse"><stop offset="0" stop-color="#a1c9de"/><stop offset=".782" stop-color="#0084c5"/></radialGradient></defs><path d="M75.77,1.75c-7.09,0-13.445,3.131-17.772,8.08-3.102-1.191-6.469-1.851-9.99-1.851-3.571,0-6.982.679-10.121,1.902C34.316,3.96,27.823,0,20.404,0,9.135,0,0,9.135,0,20.404s9.135,20.404,20.404,20.404c.054,0,.107-.004.161-.004.316,1.766.796,3.474,1.427,5.108-3.352,4.075-5.365,9.293-5.365,14.982,0,13.035,10.567,23.601,23.601,23.601s23.601-10.567,23.601-23.601c0-.674-.035-1.34-.09-2,3.771-2.582,6.872-6.066,9-10.142.993.127,2.003.2,3.031.2,13.035,0,23.601-10.567,23.601-23.601S88.805,1.75,75.77,1.75Z" fill="url(#b)"/><path d="M79.146,11.486c-5.957,0-10.787,4.83-10.787,10.787,0,.998.146,1.961.4,2.878l-4.753,1.919c-2.937-5.801-8.951-9.781-15.898-9.781-6.46,0-12.117,3.439-15.24,8.586l-10.591-5.728c.222-.668.347-1.381.347-2.124,0-3.718-3.014-6.732-6.732-6.732s-6.732,3.014-6.732,6.732,3.014,6.732,6.732,6.732c1.93,0,3.666-.817,4.893-2.118l10.789,5.835c-.823,2.05-1.28,4.286-1.28,6.63,0,7.156,4.221,13.322,10.307,16.155l-2.436,7.621c-.39-.057-.785-.097-1.191-.097-4.484,0-8.119,3.635-8.119,8.119s3.635,8.119,8.119,8.119,8.119-3.635,8.119-8.119c0-3.054-1.688-5.711-4.18-7.097l2.411-7.542c1.523.424,3.126.655,4.783.655,9.838,0,17.814-7.975,17.814-17.814,0-1.864-.287-3.661-.819-5.35l4.801-1.938c1.886,3.138,5.314,5.244,9.241,5.244,5.957,0,10.787-4.829,10.787-10.787s-4.829-10.787-10.787-10.787Z" fill="#fff"/></svg>