<?xml version="1.0" encoding="UTF-8"?><svg id="b" xmlns="http://www.w3.org/2000/svg" width="1.65in" height="1.87in" xmlns:xlink="http://www.w3.org/1999/xlink" viewBox="0 0 119.02 134.56"><defs><radialGradient id="c" cx="51.47" cy="82.67" fx="51.47" fy="82.67" r="0" gradientUnits="userSpaceOnUse"><stop offset=".04" stop-color="#7c7c7c"/><stop offset="1" stop-color="#252525"/></radialGradient><radialGradient id="d" cx="54.75" cy="74.56" fx="54.75" fy="74.56" r="61.39" gradientUnits="userSpaceOnUse"><stop offset=".04" stop-color="#a3a3a3"/><stop offset="1" stop-color="#4d4d4d"/></radialGradient><linearGradient id="e" x1="50.15" y1="42.24" x2="119.02" y2="42.24" gradientUnits="userSpaceOnUse"><stop offset="0" stop-color="#ff952a"/><stop offset="1" stop-color="#ff3f83"/></linearGradient></defs><path d="M51.48,82.66s-.01,0-.02,0h0s.01,0,.01,0Z" fill="url(#c)"/><path d="M66.01,54.62l-6.11,7.78c-2.63-1.08-5.51-1.68-8.52-1.68-12.38,0-22.46,10.07-22.46,22.46s10.07,22.46,22.46,22.46,22.46-10.07,22.46-22.46c0-5.19-1.78-9.97-4.74-13.78l5.61-8.23c5.43,5.75,8.77,13.5,8.77,22.01,0,17.7-14.4,32.1-32.1,32.1s-32.1-14.4-32.1-32.1,14.4-32.1,32.1-32.1c5.27,0,10.24,1.28,14.63,3.54ZM51.59,86.65c-.69,0-1.41-.2-2.08-.68-1.8-1.28-1.8-3.46-.88-4.94l.09-.13,6.68-9c-1.26-.45-2.61-.71-4.03-.71-6.63,0-12,5.37-12,12s5.37,12,12,12,12-5.37,12-12c0-2.57-.81-4.94-2.19-6.89l-6.75,9.08c-.7.76-1.75,1.28-2.85,1.28ZM85.72,45l-5.54,8.12c7.91,7.59,12.86,18.25,12.86,30.06,0,22.97-18.69,41.66-41.66,41.66S9.72,106.15,9.72,83.18s18.69-41.66,41.66-41.66c7.5,0,14.54,2,20.62,5.48l6.06-7.72c-7.78-4.75-16.92-7.49-26.68-7.49C23.05,31.8,0,54.85,0,83.18s23.05,51.38,51.38,51.38,51.38-23.05,51.38-51.38c0-15.14-6.59-28.77-17.04-38.18Z" fill="url(#d)"/><path d="M119.02,19.81l-16.82-3.61-14.8,20.21-1.22-.04-.47-1.25,14.77-20.18L91.96,0l-14.92,24.02,5.84,12.38-23.3,30.34s-.35.85.61,2.08l-9.85,13.27s-.63,1.47.46,2.15,2.18-.22,2.18-.22l9.84-13.25c1.55.63,2.36.11,2.36.11l21.9-31.4,13.32,2.15,18.63-21.81Z" fill="url(#e)"/></svg>