<?xml version="1.0" encoding="UTF-8"?>
<svg id="a" xmlns="http://www.w3.org/2000/svg" xmlns:xlink="http://www.w3.org/1999/xlink" version="1.1" viewBox="0 0 565.7 567.3">
  <!-- Generator: Adobe Illustrator 29.1.0, SVG Export Plug-In . SVG Version: 2.1.0 Build 142)  -->
  <defs>
    <style>
      .st0 {
        fill: url(#radial-gradient);
      }
    </style>
    <radialGradient id="radial-gradient" cx="245.4" cy="350.4" fx="245.4" fy="350.4" r="594.2" gradientTransform="translate(0 570) scale(1 -1)" gradientUnits="userSpaceOnUse">
      <stop offset=".3" stop-color="#878787"/>
      <stop offset="1" stop-color="#363636"/>
    </radialGradient>
  </defs>
  <path class="st0" d="M434.8,453.1l57.9,20.1c16.1-18,29.6-37.5,40.4-58l-39.1-47.2c-1.7-2.1-2.2-4.9-1.3-7.4,1.4-3.8,2.7-7.7,3.8-11.5.8-2.6,2.9-4.5,5.5-5.2l59.5-14.3c3.8-23.5,4.7-47.3,2.6-70.9l-58.4-18.6c-2.5-.8-4.5-2.9-5.1-5.5-.9-3.9-1.8-7.7-2.9-11.5-.7-2.6,0-5.3,1.9-7.3l42.5-44.2c-9.3-21.5-21.3-42.1-36.2-61.2l-59.4,15.8c-2.6.7-5.3,0-7.2-1.9-2.8-2.7-5.6-5.4-8.5-8-2-1.8-2.9-4.5-2.3-7.1l12-60.2c-20-13.5-41.3-24.2-63.4-32.1l-41.4,45.3c-1.8,2-4.5,2.9-7.1,2.3-3.9-.8-7.8-1.5-11.7-2.1-2.6-.4-4.9-2.2-5.8-4.7L288.6.6c-23.7-.6-47.4,1.8-70.5,7.2l-10.5,60.4c-.5,2.6-2.3,4.9-4.8,5.8-3.8,1.4-7.6,3-11.3,4.6-2.5,1.1-5.3.8-7.5-.8l-49.7-35.9c-18.8,11.5-36.6,25.4-52.9,41.6-.8.8-1.6,1.6-2.3,2.4l23.8,56.5c1,2.5.7,5.3-.9,7.5-2.5,3.4-4.9,6.8-7.3,10.3-1.5,2.2-4,3.5-6.7,3.4l-61.3-3.2c-10.4,21.4-17.9,43.7-22.5,66.6l50.6,34.7c2.2,1.5,3.5,4.1,3.3,6.8-.3,4.3-.5,8.6-.5,13,0,2.7-1.5,5.1-3.8,6.5L.6,318.2c2.8,23.1,8.5,46,17,68l61.2,1.7c2.7,0,5.1,1.6,6.4,3.9,2.1,3.9,4.4,7.7,6.7,11.4,1.4,2.3,1.5,5.1.3,7.5l-28.1,54.4c5.4,6.5,11.2,12.9,17.3,19,10.7,10.7,22,20.3,33.8,28.9l52.4-31.8c2.3-1.4,5.2-1.5,7.5-.2,3.9,2.1,7.9,4.1,11.9,6,2.4,1.1,4.1,3.5,4.3,6.1l5.8,61c22.5,7,45.7,11.2,69.1,12.5l26.8-55.1c1.2-2.4,3.5-4,6.2-4.2,4.3-.3,8.6-.8,12.9-1.4,2.7-.4,5.3.7,7,2.8l38,48.2c22.5-6.2,44.3-15.2,65-27l-7.4-60.8c-.3-2.7.8-5.3,2.9-6.9,3.3-2.5,6.6-5.2,9.8-7.9,2-1.7,4.9-2.3,7.4-1.4h0ZM165,400.6c-64.7-64.7-64.5-169.6.5-234.1,64.8-64.3,168.6-64,233.1.5,55.2,55.2,63.1,139.7,23.9,203.3l-38-38c-5.1-5.1-7.1-12.6-5-19.6,10.2-35.4,1.4-75.1-26.4-102.9-25.8-25.8-61.8-35.3-95.1-28.4-4.3.9-5.9,6.2-2.8,9.3l48.3,48.3c2.8,2.8,3.7,6.8,2.5,10.5l-13.9,41.1c-1,3.1-3.4,5.4-6.5,6.5l-40.5,13.3c-3.7,1.2-7.7.2-10.4-2.5l-48.4-48.4c-3.1-3.1-8.4-1.5-9.3,2.8-6.9,33.3,2.6,69.3,28.4,95.1s67.6,36.7,102.9,26.4c7-2,14.5,0,19.6,5l37.5,37.5c-63.3,37.2-146,28.6-200.4-25.7h0Z"/>
</svg>