<?xml version="1.0" encoding="UTF-8"?><svg id="a" xmlns="http://www.w3.org/2000/svg" width="7.857in" height="7.879in" xmlns:xlink="http://www.w3.org/1999/xlink" viewBox="0 0 565.67 567.308"><defs><radialGradient id="b" cx="245.359" cy="219.561" fx="245.359" fy="219.561" r="594.178" gradientUnits="userSpaceOnUse"><stop offset=".258" stop-color="#878787"/><stop offset="1" stop-color="#363636"/></radialGradient><radialGradient id="c" cx="282.835" cy="283.654" fx="282.835" fy="283.654" r="283.245" gradientUnits="userSpaceOnUse"><stop offset="0" stop-color="#696969"/><stop offset="1" stop-color="#000"/></radialGradient></defs><path d="M434.766,453.091l57.918,20.07c16.149-17.958,29.601-37.482,40.354-58.05l-39.11-47.215c-1.711-2.066-2.212-4.884-1.297-7.407,1.383-3.814,2.658-7.658,3.827-11.527.778-2.574,2.871-4.535,5.485-5.163l59.551-14.305c3.807-23.456,4.657-47.296,2.551-70.926l-58.376-18.625c-2.549-.813-4.502-2.902-5.088-5.513-.867-3.856-1.835-7.693-2.907-11.507-.723-2.573.002-5.336,1.854-7.262l42.496-44.175c-9.274-21.491-21.331-42.067-36.177-61.18l-59.362,15.82c-2.58.688-5.327-.029-7.244-1.888-2.76-2.678-5.624-5.381-8.507-7.998-1.976-1.794-2.867-4.489-2.345-7.106l11.985-60.161c-19.98-13.518-41.296-24.214-63.4-32.075l-41.447,45.272c-1.801,1.967-4.506,2.866-7.115,2.314-3.873-.819-7.763-1.536-11.666-2.149-2.644-.415-4.857-2.229-5.834-4.721L288.546.579c-23.653-.558-47.358,1.847-70.527,7.177l-10.486,60.4c-.459,2.644-2.276,4.855-4.788,5.798-3.795,1.425-7.559,2.956-11.287,4.594-2.456,1.079-5.301.766-7.475-.805l-49.67-35.877c-18.814,11.489-36.587,25.352-52.864,41.629-.793.793-1.56,1.602-2.342,2.402l23.776,56.473c1.041,2.472.707,5.314-.897,7.463-2.526,3.383-4.942,6.822-7.252,10.31-1.48,2.235-4.038,3.509-6.714,3.367l-61.257-3.241c-10.352,21.361-17.861,43.75-22.532,66.607l50.592,34.664c2.211,1.515,3.468,4.082,3.284,6.755-.299,4.316-.473,8.638-.523,12.962-.031,2.678-1.49,5.136-3.814,6.468L.536,318.238c2.812,23.146,8.49,46.006,17.006,68.021l61.247,1.714c2.679.075,5.129,1.551,6.421,3.9,2.127,3.866,4.377,7.682,6.749,11.443,1.429,2.267,1.536,5.125.305,7.506l-28.138,54.441c5.442,6.516,11.202,12.856,17.321,18.974,10.674,10.674,21.994,20.307,33.824,28.922l52.357-31.767c2.295-1.392,5.159-1.479,7.52-.202,3.905,2.113,7.859,4.101,11.857,5.965,2.427,1.132,4.063,3.475,4.318,6.141l5.85,61.04c22.512,7.024,45.723,11.178,69.065,12.455l26.763-55.099c1.174-2.416,3.535-4.041,6.213-4.249,4.305-.333,8.603-.79,12.887-1.37,2.654-.36,5.296.726,6.953,2.829l37.96,48.21c22.478-6.163,44.339-15.153,65.036-26.953l-7.361-60.85c-.322-2.661.777-5.3,2.908-6.927,3.312-2.529,6.568-5.164,9.767-7.902,2.041-1.747,4.862-2.269,7.401-1.389ZM165.025,400.66c-64.661-64.661-64.503-169.596.474-234.061,64.767-64.256,168.603-64.039,233.115.474,55.177,55.178,63.145,139.678,23.922,203.335l-38.046-38.046c-5.13-5.13-7.058-12.644-5.04-19.612,10.242-35.365,1.436-75.076-26.438-102.951-25.827-25.827-61.814-35.276-95.092-28.379-4.285.888-5.862,6.194-2.768,9.289l48.315,48.315c2.751,2.751,3.705,6.824,2.462,10.51l-13.875,41.146c-1.031,3.057-3.442,5.449-6.507,6.455l-40.485,13.293c-3.668,1.205-7.703.243-10.433-2.488l-48.355-48.355c-3.094-3.094-8.401-1.517-9.289,2.768-6.897,33.278,2.552,69.265,28.379,95.092,27.875,27.875,67.586,36.68,102.951,26.438,6.969-2.018,14.482-.09,19.612,5.04l37.456,37.456c-63.295,37.172-146.038,28.602-200.36-25.72Z" fill="url(#b)" stroke="url(#c)" stroke-miterlimit="10"/></svg>