<?xml version="1.0" encoding="UTF-8"?><svg id="a" xmlns="http://www.w3.org/2000/svg" width="80.974" height="90.631" viewBox="0 0 80.974 90.631"><g id="b"><g id="c"><path id="d" d="M80.848,36.183l-14.798-23.173c-.242-.378-.745-.489-1.123-.247-.117.075-.212.178-.278.3l-20.77,38.696L16.328.428c-.213-.395-.706-.543-1.102-.33-.122.066-.225.161-.3.278L.128,23.542c-.241.379-.13.881.249,1.123.128.082.277.126.429.127h12.145c.45,0,.815.366.815.817-.004.144-.046.284-.124.405l-6.619,10.361c-.241.379-.13.881.249,1.123.128.082.277.126.429.127h20.98-.014c1.361-.033,2.619.72,3.234,1.935l9.229,17.29-.01.02,2.722,5.072h0l1.186,2.231,6.895,12.846c.772.992,2.16,1.258,3.244.622,1.039-.6,1.46-1.887.976-2.985l-9.573-17.835,2.467-4.621c.615-1.214,1.873-1.967,3.234-1.935h-.014,20.98c.449-.004.81-.372.805-.821-.002-.152-.046-.301-.127-.429l-6.619-10.361c-.077-.121-.12-.261-.124-.405,0-.45.365-.816.815-.817h12.143c.449.018.827-.332.844-.781.007-.165-.038-.328-.126-.468Z" fill="#00bceb"/><path id="e" d="M24.809,87.294c-.485,1.098-.064,2.385.976,2.985,1.177.704,2.702.32,3.406-.858.034-.056.065-.114.094-.172l11.835-22.174-2.722-5.101-13.588,25.32Z" fill="#00bceb"/></g></g></svg>