<?xml version="1.0" encoding="UTF-8"?><svg id="a" xmlns="http://www.w3.org/2000/svg" width="2.4in" height="2.49in" viewBox="0 0 173.09 179.52"><path d="M130.61,0C124.19,0,117.78,1.89,115.4,6.41c-21.63,0-30.23-6.41-42.49-6.41-6.42,0-12.83,1.89-15.21,6.41C36.07,6.41,27.47,0,15.21,0,8.79,0,2.38,1.89,0,6.41c23.02,18.39,4.6,36.77,27.62,55.16,7.08-16.32,16.07-32.77,26.99-48.98-9.54,25.04-14.22,50.47-14.07,74.87,14.38,11.46,2.88,22.92,17.26,34.39,11.69-34.99,29.07-70.21,52.05-104.31-21.83,43.58-34.47,88.81-37.8,132.83,12.19,9.72,2.44,19.43,14.63,29.15,19.72-57.34,48.53-115.75,86.41-173.1C151.46,6.42,142.86.01,130.6.01h.01Z" fill="#1da9e1"/></svg>