<?xml version="1.0" encoding="UTF-8"?><svg id="a" xmlns="http://www.w3.org/2000/svg" width="3.75in" height="3.75in" xmlns:xlink="http://www.w3.org/1999/xlink" viewBox="0 0 270.02 270"><defs><radialGradient id="b" cx="124.51" cy="341.13" fx="124.51" fy="341.13" r="283.75" gradientTransform="translate(0 -222)" gradientUnits="userSpaceOnUse"><stop offset=".3" stop-color="#878787"/><stop offset="1" stop-color="#363636"/></radialGradient></defs><path d="M270.02,214l-60.34-60.92c-5.1-5.1-7.1-12.6-5-19.6,10.2-35.4,1.4-75.1-26.4-102.9C152.48,4.78,116.48-4.72,83.18,2.18c-4.3.9-5.9,6.2-2.8,9.3l48.3,48.3c2.8,2.8,3.7,6.8,2.5,10.5l-13.9,41.1c-1,3.1-3.4,5.4-6.5,6.5l-40.5,13.3c-3.7,1.2-7.7.2-10.4-2.5L11.48,80.28c-3.1-3.1-8.4-1.5-9.3,2.8-6.9,33.3,2.6,69.3,28.4,95.1s67.6,36.7,102.9,26.4c7-2,14.5,0,19.6,5l59.84,60.42s8.17-19.62,29.71-29.14c21.95-9.71,27.39-26.86,27.39-26.86Z" fill="url(#b)"/></svg>