<?xml version="1.0" encoding="UTF-8"?><svg id="a" xmlns="http://www.w3.org/2000/svg" width="2.63in" height=".27in" viewBox="0 0 189.32 19.13"><path d="M37.3,7.45l-1.37-2.46h-.05s0,9.88,0,9.88c-.05.38-.12.71-.2.98.06,0,.12,0,.19,0,.08.33-.11.42-.16.63-.07-.04-.14-.09-.23-.12-.61,1.25-1.57.86-1.57,1.68,0,.76,1.01.72,1.28.71h2.12c0-.47.08-.97-.25-1.57.16-.48.17.46.34.48.35-.21.34-.76.38-1.12-.21-.36-.39-.88-.49-1.66v-7.42Z" fill="#fff"/><path d="M68.33,1.44c.09.16.23.27.42.34,0-.04.02-.07.02-.13.08.07.12.14.16.2.06.02.12.04.17.06.2-.31.38-.63.7-.81.06.04.13.08.2.1,0-.25-.08-.54-.17-.83h-.67c-.06,0-.32.02-.54.15.05.03.1.09.16.19,0,.05-.02.08-.04.11.18.34-.17.54-.47.46,0,0,0,.01,0,.02.02.04.04.09.05.14Z" fill="#fff"/><path d="M85.51,12.01c.11.14.42.36.66.59v-.34c-.11-.09-.11-.21,0-.34v-.05c-.32-.06-.43.1-.66.14Z" fill="#fff"/><path d="M68.54,17.45c-.17.12-.29.3-.29.54,0,.19.06.33.15.44.13-.26.29-.6.14-.98Z" fill="#fff"/><path d="M61.15,1.8c2.16.34,3.41,1.55,4.05,3.54.13.36.25.61.67.61.74,0,.77-.46.77-.59V.37s-5.48,0-5.48,0v1.43ZM61.79.42c.9-.24.79.94.52,1.28-.37-.24-.74-1-.52-1.28Z" fill="#fff"/><path d="M59.81,13.8c-.11,0-.23,0-.34-.01-.2.03-.23.27-.16.48.09-.03.2-.07.35-.07.02.01.05.07.07.13.07-.03.16-.04.25-.05-.09-.13-.18-.26-.17-.48Z" fill="#fff"/><path d="M109.45,5.33c.13.36.25.61.67.61.74,0,.77-.46.77-.59V.37s-5.37,0-5.37,0c.09.08.14.21.05.45-.05.04-.1.04-.16.05v.92c2.16.34,3.41,1.55,4.05,3.54ZM109.66,3.96c.16.01.13.2.18.32.48.14.44-.21.85-.13.31.97-.73.66-.67,1.4-.98-.31-.62-1.02-.36-1.59Z" fill="#fff"/><path d="M14.19,13.8c-.03-.14,0-.24.03-.32-.09-.04-.19-.07-.31-.07-.52,0-.66.37-.82.79-.54,1.82-2.14,3.07-4.03,3.49v1.43c.07,0,.14,0,.2,0-.03-.09-.07-.17-.13-.24.42-.1.46.14.73.17,1.11-.21,2.22-.88,3.1-1.74-.41-.16-.83-.3-.95-.72.45-.32,1.12-.1,1.21.46.84-.9,1.4-1.93,1.42-2.8,0-.16-.04-.3-.11-.43-.11,0-.23,0-.34-.01Z" fill="#fff"/><path d="M97.47.43c-.06.02-.12.04-.17.07.05.07.1.15.12.24,0-.18.02-.27.05-.32Z" fill="#fff"/><path d="M104.31,14.03v-.16c-.06.05-.07.1,0,.16Z" fill="#fff"/><path d="M75.65,5.97v-2.85c0-.91-.03-1.05.84-1.32.31-.1.53-.32.54-.66,0-.71-.8-.76-.91-.76h-.59c.21.35.68.77.61,1.37-.3-.01-.44.1-.51.3-.46.1-.34-.32-.68-.34-.24.05-.02.27.17.32-.39.25-1.73.13-2.04-.54.83.04.98-.56,1.17-1.12h-1.92c-.02.23-.2.85.07,1.08-.53.06-.13-.73-.52-.81.04-.15.29-.11.33-.26h-1.63c-.2.28-.27.6-.39.89.17.05.34.09.47.18,0,.16,0,.32,0,.48-.4-.02-.5.25-1.02.12-.02.15,0,.34-.03.47.02.16.02.35.02.62v1.99c.13.14.21.28.02.56,0,0-.01,0-.02-.01v.63s.02.01.03.01c0,.03-.02.04-.03.06v.74c.18,0,.35,0,.53.01.04.35-.25.39-.53.43v.78c.24.5.06,1.22.24,1.59-.13-.06-.2-.06-.24-.04v6.13c0,.91.03,1.05-.84,1.32-.09.03-.17.07-.24.12.28-.04.3.14.33.32.16,0,.13-.19.17-.31.16.07.3.15.34.32,0,.1,0,.21,0,.32-.63-.39,0,.28-.33.46-.28.03-.29-.16-.51-.17,0,.07,0,.13.03.18.24.15.53.17.59.17h6.96c.1,0,.91-.05.91-.76,0-.34-.22-.56-.54-.66-.86-.27-.84-.41-.84-1.32v-.64c-.18-.06-.34-.15-.33-.38.07-.06.19-.07.33-.06V6.87c-.22-.15-.18-.54-.18-.89.07-.02.13-.02.18-.01ZM72.74,3.98c.02.28-.21.33-.17.63-.35-.05-.04-.69-.51-.65.03-.4.57-.03.68.02ZM72.09,14.88c.08-.35.91-.1,1.02.03-.71.58.24-.12.17.48-.74.13-.78-.35-1.19-.51ZM73.6,4.17c-.54.07-.46-.43-.86-.5.03-.18.17-.08.17,0,.48-.01.72-.25.68-.77.56.03.65.48.68.97-.46-.13-.35.3-.67.29ZM74.48,15.9c-.53.61-.6-.5-.51-.97.35.06.33.44.68.49.02.16-.74.3-.17.47Z" fill="#fff"/><path d="M60.89,17.32c-.49-.15-.69-.27-.78-.51-.06.09-.1.21-.08.41-.38-.08-.08-.78-.18-1.11.08.07.14.11.2.15,0-.08,0-.17,0-.26v-1.18s-.02-.04-.03-.06c-.2.24-.68.59-.16.87-.16.07-.3.1-.42.11-.07.09-.17.07-.27.01-.12,0-.23,0-.33.05-.01.06-.02.13-.04.18-.08,0-.13-.04-.16-.07-.05.04-.1.09-.15.16.02-.22.02-.45-.18-.48.35-.16.54-.52.57-.89-.03,0-.06,0-.09,0-.14-.13-.1-.44-.34-.49.18-.08.93-.23.51-.14-.61-.17.84-.88-.17-.95-.11-.59.36-1.05.68-.77.06-.38-.31-.36-.17-.8.21.07.35.21.34.49-.2-.55.06-1.14.4-1.83v-.16c-.46.22-.28.13-.92-.08-.09-.23.66-.37.17-.47.23-.27.37.21.75.38v-4.81s-.05.02-.08.03c-.34-.38-.43-.99-.86-1.29.7-.35.67-1.01.94-1.48V.37s-3.4,0-3.4,0c-.09.12-.14.29-.11.53-.38-.01-.54-.23-.62-.53h-1.78c.03.33.05.63.19.78-.49.06-.8-.33-1.09-.73-.26.08-.59.26-.59.71,0,.34.22.56.54.66.86.27.84.41.84,1.32v12.88c0,.91.02,1.05-.84,1.32-.31.1-.53.32-.54.66,0,.49.37.66.64.72-.08-.06-.16-.1-.21-.11-.07-.38.78.12.51-.46.28-.03.29.16.51.17.38-.11.06-.88.16-1.26.37-.16.94-.15,1.01-.6.88.57.66.98.7,1.76-.92-.14-1.64-.09-1.75.54h3.52c.11-.18.31-.29.61-.16,0,.06,0,.12.02.16h.42c-.01-.15-.03-.31-.09-.47.2.03.31-.03.34-.15.26.2.31.41.35.62h1.13c.1,0,.91-.05.91-.77,0-.34-.22-.56-.54-.66ZM54.54,10.23c-.22-.07-.27-.29-.51-.34.15-.23.25-.49.68-.46.07.39-.31.33-.17.79ZM55.03,4.72c-.55-.26.29-.44.34-.62.14.03.17.17.34.17,0,.1,0,.21,0,.32-.27,0-.65-.09-.68.14ZM55.71,3.88c-.5-.16-.53-.16-1.02-.03.19-.42-.8-.92-.7-1.76.3.01.44-.1.51-.3.46-.1.34.32.68.34.24-.05,0-.28-.18-.32.4-.26,1.73-.13,2.04.53-1.05-.06-.99.93-1.33,1.55ZM57.66,16.99c-.28.59-.28-.35-.52-.33-.07-.38.78.12.51-.46.59.14-.52.73,0,.79ZM57.75,4.95c.03-.28-.2-.34-.17-.64.75-.2.92.75.17.64ZM57.91,3.47c-.31.34.21-.79-.18-1.11.53-.06.13.73.52.8-.03.17-.33.09-.34.31Z" fill="#fff"/><path d="M106.91,11.57c.07-.05.12-.13.1-.26.39.18-.24.6.34.8-.04.18-.11.23-.2.24.04.11.08.22.13.32.13-.09.26-.18.41-.25.36.17.31.39.16.63.02,0,.03.01.06.01.76,0,.64-.88.64-1.08v-5.3c0-.05,0-.16,0-.29-.28-.12-.4-.38-.58-.6-.17.1-.17.36-.51.3-.05-.05-.11-.09-.16-.14-.08.13-.14.29-.19.45-.06.25-.13.49-.23.73.03-.03.05-.07.08-.1.32.3.67.55.86.97-.49.03-.59-.32-.85-.5-.47.14.26.43-.16.63-.17,0-.34-.01-.51-.02.01-.05.04-.08.06-.13-.25.27-.56.48-.95.58v1.51c.78.21,1.24.8,1.51,1.48ZM107.17,10.68c-.55.55-.52-.8-.69-1.13.76-.12-.03,1.19.69,1.13Z" fill="#fff"/><path d="M110.42,13.24c.05.03.12.1.22.09.15.02.17-.07.18-.16.01-.02.02,0,.03,0-.09-.09-.23-.15-.42-.16,0,.08,0,.15,0,.24Z" fill="#fff"/><path d="M97.6.4c.14.05.37.22.67.06.58.46-1.15.05-.85.76-.21,0-.37-.07-.49-.17,0,.03-.01.05-.01.09,0,.34.22.56.54.66.22.07.38.13.5.19.14,0,.26-.03.27-.16.2.04.09.16,0,.16.31,1.44-.02,2.06.52,3.33-.22-.02-.31.08-.46.12v10.56c0,.91.02,1.05-.84,1.32-.31.1-.53.32-.54.66,0,.71.8.76.91.76h1.92c-.06-.07-.11-.14-.14-.24.39-.28.93-.15,1.14.24h3.57s0-4.56,0-4.56c-.12-.02-.24-.07-.27-.14.08-.14.17-.26.16-.47-.51-.2-.73.64-.33.78-.15.43-.62-.15-.68-.34.36-.6.52-.9.5-1.56.3.38.14.59.37.49-.04-.04-.09-.09-.1-.16.62-.7.06-1.1-.35-1.91.19-.37.39-.26.7-.23v-.59c-.49-.16-.88-.53-1.05.18-.6.23-.11-.54-.51-.49.27-.48,1.26-.27,1.35-.91.08.07.15.14.22.22V.38s-6.49,0-6.49,0c-.03,0-.11,0-.22.02ZM102.29,15.75c-.16,0-.34-.01-.51-.02-.07-.33.12-.41.16-.63.31.05.39.29.35.65ZM101.48,1.19c.11-.29.72.29.69.65-.14-.03-.17-.17-.34-.17-.03.18.04.28.18.32.03.13-.07.15-.17.15-.11,0-.23,0-.34-.01.02-.22.02-.45-.18-.48-.02-.16.73-.3.16-.46ZM101.11,3.52c.18.59-.57.29-.68.61-.31.14-.11-.91-.34-.32-.39-.25-.25-.39-.17-.8.15.1.45.96.51.17.35.3.05.59.68.34ZM99.74,1.73c.14-.03.16.07.17.17.17.22.28-.06.51.34-.08.69-.89-.29-.68.61-.25-.15-.25-.52-.34-.8.15-.07.3-.14.34-.32ZM99.09,6.93c.28.12.27-.74,0-.63.19-.64.76-.01,1.36-.11-.49.56-1.04.93-1.18,1.07-.19-.06-.12-.33-.35-.34.03-.18.17-.08.17,0Z" fill="#fff"/><path d="M31.81,8.31c.23-.21.08-.78.54-.78-.37-2.45-1.44-4.59-3.25-5.96-.44.28-.47.96-.73,1.42-.5-.16-.53-.16-1.02-.03.19-.42-.8-.92-.7-1.76.3.01.44-.1.51-.3.46-.1.34.32.68.34.24-.05,0-.28-.18-.32.05-.04.13-.06.22-.08-.88-.43-1.87-.72-3.01-.82v1.43c1.15.42,1.25,1.16,1.25,1.77v9.32c.26-.19.43-.51.45-.89.45.5.56.95.18,1.58-.18-.17-.41-.21-.63-.21v2.92c0,.61-.1,1.35-1.25,1.77v1.43c.9-.08,1.72-.28,2.46-.57-.07-.24-.11-.5-.19-.73.37.03.6.21.66.53,1.21-.57,2.19-1.42,2.92-2.47-.1-.01-.22-.02-.37-.02.13-.55-.26-.61-.18-1.11-.33.19-.69-.13-1.19.12.87-.45-.2-1.2.49-1.72-.05-.32-.45-.32-.68-.49.42-.56.91-.59,1-1.71.64-.11.33.98.18,1.11.49-.02.76-.63.84.17.46-.13-.24-.51,0-.95.29.06.32-.11.34-.31.4.25-.38.82.51.49-.6.89-.58,1.69.1,2.43.5-1.31.74-2.79.74-4.33,0-.47-.03-.94-.08-1.39-.18.07-.42.08-.62.13ZM29.25,5.87c.49.03,1.11-.06,1.36.2.07.38-.31.32-.17.78-.66-.1-1.37-.13-1.19-.99ZM28.9,6.02c-.22.41-.74.28-1.19.12.28-.46.62-.15,1.19-.12ZM26.34,4.36c.29.01.56.02.85.02.15.51-.26.48-.33.78-.3-.15-.59-.31-.52-.8ZM26.55,9.27c.41,0,.81,0,1.03.19.17.68-.47.59-.5,1.09-.57-.06-.48-.73-.52-1.28ZM26.79,17.17c.79-.57-.17-1.14-.36-1.75,1.51.01,1.08,1.7,1.21,2.25-.53.06-.46-.44-.85-.5ZM27.94,12.63c-.3-.58-.84-.94-1.03-1.62.71.11,1.33.28,1.53.83-.05.38-.58.29-.5.78ZM29.42,14.87c.02.15,0,.26-.03.36.19-.15.7.07.78.15-.05.21-.29.25-.34.47-.32-.03-.14-.5-.5-.49-.08.16-.16.31-.08.62-.34-.01-.22-.44-.68-.34.32-.23.25-.81.85-.76ZM28.78,11.54c.23-.79-.28-.68-.36-1.59.44.44.51-.18,1.01-.13-.27.11.04.77-.51.61.06.15.47.71.52.33.23.08-.2.85-.66.78ZM28.43,9.32c-.37-.03-.37-.41-.34-.8,1.16.39-.02-.3,1-.29-.46-.43.2-.47.16-.94.23.16.34.43.52.65.35-.03.33-.41.51-.61.58.3.98,1.13.7,1.76-.66-.2-.4-.88-.35-1.27-.55.69-1.83.66-2.19,1.52ZM30.98,10.5c-.89.32-1.33-.1-1.03-.98.32-.17.8-.18,1.19-.29-.26.22-.14.81-.16,1.26ZM31.63,7.04c-1.26.46-.99-1.11,0,0h0ZM31.31,9.56c-.04-.32.71-.65.33-.78-.13-.43.8.13.67-.29.14.35-.58.53.02,1.26-.41,0-.81,0-1.03-.19Z" fill="#fff"/><path d="M41.76.94c.02.11-.04.13-.12.14.04.11.09.16.34.08l-.29-.5s-.06-.04-.1-.04c-.03.18.04.28.18.32Z" fill="#fff"/><path d="M22.58.62c-.14-.02-.25-.17-.36-.34-1.65.43-2.95,1.3-3.92,2.46.11.11.28.13.56-.03.14.47-.38.32-.77.29-.24.32-.46.66-.66,1.02.07.1.16.17.44.08-.97,2.3,1.85,2.15,2.57,3.39.75-1.44,2.63.61.69.81-.09,1.28-.14,1.7.35,2.56-.3-.05-.39-.29-.34-.64-.4-.02-.5.25-1.01.13-.47-1.23.15-1.85-.37-3.33-.81.11-1.38.46-1.34,1.38-.8-.23-.18-1.09-.7-1.76-.42-.41-.83-.41-1.17-.43-.09.34-.16.68-.23,1.03.1-.08.17-.17.19-.32.32.3.63.59.52,1.28-.3,0-.58-.17-.81-.25-.03.29-.06.57-.07.87.25-.27.54.06,1.08-.13-.07.75.07,1.32.18,1.9-.75-.61-.34.13-.68.61-.15-.07-.3-.15-.34-.32.58-.65.14-1.04-.25-1.73,0,.14-.01.29-.01.43,0,3.4,1.18,6.46,3.64,8.17-.03-.09-.06-.18-.1-.28.7.06.38-.05.33-.46.23,0,.45.01.68.02-.21.03-.5.68-.17.31.31-.04.02.6-.32.46,0,.06,0,.14,0,.22,1,.6,2.19,1,3.58,1.13v-1.43c-1.15-.42-1.25-1.16-1.25-1.77v-4.68c-.83-.42-.49-1.28-1.05-1.65.13-.23.61.07,1.05.17v-3.67c-.22.07-.47.1-.73.02-.03-.28.51-.34.73-.47v-.24s-.03-.04-.06-.06c0-.04.03-.06.06-.08v-1.97c-.05.08-.08.17-.07.31-.98-.31-.62-1.02-.36-1.59.16.01.13.2.18.32.22.06.32.02.42-.03.16-.34.47-.67,1.09-.89V0c-.31.03-.62.07-.91.13-.02.18-.1.35-.27.49ZM19.59,8.74c-.55.55-.52-.8-.69-1.13.76-.11-.03,1.2.69,1.13ZM19.43,9.37c.38.19-.24.61.34.8-.13.58-.54-.03-1.19.12-.28-.85.92-.28.84-.92ZM17.55,8.85c.52-.09.51.28,1.03.19.18.7-.57.49-.5,1.09-.21-.38-.66-.57-.52-1.28ZM18.28,15.19c-.13-.09-.28-.17-.51-.17-.12-.69.88-.31,1.01-.76.52.35-.48.58-.5.94ZM18.26,12.66c.71.2-.01.78,0,1.26-.56-.07-.1-.89,0-1.26ZM19.78,12.07c-.72-.21-.92-.09-1.7-.05,0-.31-.46-.21-.34-.64,1.07.55,1.48-.47,2.37-.88.78.37-.35.97-.33,1.58ZM21.32,12.59c-.47-.32-.69-.91.16-.94.43.4-.35.32-.16.94ZM18.54,4.6c-.57-.07-.2-.84.33-.78.14.51-.15.6-.33.78ZM19.38,5.57c-.47.15.26.44-.16.63-.17,0-.34-.01-.51-.02.13-.45.39-.78.67-1.09.32.3.67.55.86.97-.49.03-.59-.32-.85-.5ZM21.41,4.53c-.64.05-.78-.35-1.03-.66-.17.1-.17.36-.51.3-.2-.19-.49-.3-.34-.8.89.45,1.48.22,2.22.85-.03.17-.34.1-.34.31Z" fill="#fff"/><path d="M45.24,10.45c-.13.02-.25.02-.34,0,.04.14.05.15.34,0Z" fill="#fff"/><path d="M20.95,9.1c-.02-.4-.04-.82-.52-.8-.03.46-.01.86.52.8Z" fill="#fff"/><path d="M12.92,6.58c.1.47.39.88.91.89.64,0,.76-.5.78-.75-.04,0-.08-.02-.12-.03,0-.24.05-.41.13-.55V.89c0-.08,0-.46-.25-.69-.03.01-.07.02-.11.02-.11,0-.23,0-.34-.01,0-.07,0-.13,0-.19-.03,0-.05-.01-.09-.01-.34,0-.52.2-.67.52-.15.31-.29.47-.66.47-.63,0-2.52-.95-3.44-.98v1.42c2.29.61,3.44,3.17,3.86,5.16Z" fill="#fff"/><path d="M47.74,13.51c-.56-.02-1.21.03-1.19-.51.15.08.3.16.34.33.46-.13-.15-.59-.34-.64-.07-.38.78.12.51-.46.28-.03.29.16.51.17.38-.11.06-.87.16-1.25l-5.62-9.77c-.12.21-.59.09-.68.34-.31.14-.11-.91-.34-.32-.39-.25-.25-.39-.17-.8.09.06.22.36.33.46.01-.22.02-.44-.18-.46-.01-.08.15-.15.27-.22h-.6s0,.04,0,.07c-.03-.02-.04-.04-.07-.07h-5.47c-.51.03-1.26.03-1.25.77,0,.54.32.64.74.78.81.26.93.63,1.33,1.32l3.11,5.36c-.03-.09-.07-.18-.11-.25.38-.07.34.23.35.48.66-1.2,1.31-1.89,1.67-3.59.14-.03.16.06.17.17.11,0,.23,0,.34.01-.8.93-.13,3.13-1.51,2.96-.4-.07.09.73-.51.46-.06.58.69.44.52,1.12-.04.01-.07.02-.11.03l1.09,1.88s.04.01.07.01c0,.04,0,.07,0,.11l3.54,6.09c.13-.09.31-.13.59-.07-.62-.67.45-1.39-.69-1.13-.02-.39-.03-.76.16-.94.15.1.3.2.34.01-.02.16.57.83.18,1.27,0,.16.21.12.34.17.37.03.07-.56.16-.79.54.14,1.2.18,1.19.82.49-.3.44-.51,1.19-.29.07.32.08.85.58,1.13v-3.02c-.45-.01.04-.15-.07-.48-.56-.15-.24.51-.51.62-.61-.49-.31-.85-1.2-1.14.77-.18.92,0,1.19-.44-.06.64.13.83.59.68v-1.72s-.31-.54-.31-.54c-.56.08-.86.41-.62,1.25ZM37.03,4.28c-.37-.03-.08-.67-.18-.95.8.16.27.5.18.95ZM41.1,2.66c-.46-.46-.42-.14-1.01-.03-.07-.33.12-.41.17-.63.25,0,.76.67.68.02.14.03.17.17.34.17.05.26-.16.27-.17.47ZM40.58,9.67c.26.51.06.7,0,1.27-.32.07.15-1.16-.35-1.59.55.44,1.04-.17,1.01-.76.18.11.18.36.52.33-.36.29-.68.61-1.18.75ZM43.32,13.06c-.6.02-.65-.69-.18-.63-.32-.39-.98.2-.85.76-.46-.28-.03-.83,0-1.58.35.35.65.09.51-.46.17.28.54.36.85.5-.46.48-.09.83-.33,1.41ZM45.38,11.66c.49.2-.27.18-.34-.01.08-.12.18-.25.16-.47-.51-.2-.73.64-.33.78-.15.43-.62-.15-.68-.34.29-.49.44-.78.49-1.22-.23-.1-.39-.27-.69-.31-.09-.5.24-.61.33-.94.21.04.17.32,0,.32.33-.02.92.31,1.02.94.01,0,.02-.01.04-.02.15.13.1.44.34.49.2.47-.81.56-.33.78Z" fill="#fff"/><path d="M46.46,18.75h.64c0-.11.09-.15.34-.02.02-.28-.21-.34-.18-.63-.5,0-.69.29-.8.66Z" fill="#fff"/><path d="M50.04.42c.23.35.23.79-.12,1.07-.41-.06-.57-1.17-1.03-.66-.11-.1-.19-.28-.24-.45h-2.37c-.24,0-1.06.05-1.05.74,0,1.13,2.02.19,2.02,3.71l-.02,3.49,1.38,2.48s.03-.07.05-.1v-5.87c.01-3.51,2.02-2.58,2.02-3.71,0-.45-.34-.62-.64-.69ZM46.18,1.7c-.07-.33.12-.41.16-.63.46.07.58.44.69.82-.39.04-.65-.04-.85-.19Z" fill="#fff"/><path d="M48.68,18.75v-.03s-.03.02-.04.03h.04Z" fill="#fff"/><path d="M64.31,6.69c0-.2.12-1.08-.64-1.08-.06,0-.11.02-.16.03.01.05.03.09.03.15-.14.13-.46.08-.51.3-.01,0-.01,0-.02-.01-.05.11-.09.22-.12.33-.22.94-.69,1.9-1.72,2.17v1.01c.09-.07.16-.17.17-.33.28-.03.29.16.51.17-.07.23-.22-.07-.51-.02.1.39.4.59.68.81-.08.05-.14.11-.19.18.58.43.89,1.14,1.06,1.85.12.42.27.81.79.82.76,0,.64-.88.64-1.08v-5.3Z" fill="#fff"/><path d="M60.05,11.06s-.05-.06-.08-.1c.17,1.09-.73,2,.08,2.09v-1.98Z" fill="#fff"/><path d="M5.25,1.05c-.27.01-.65-.08-.68.15-.2-.04-.09-.16,0-.16,0-.04-.01-.08-.02-.12C1.74,2.43,0,5.71,0,9.89c0,5.03,2.56,9.13,7.96,9.23v-1.42c-1.18-.29-1.57-1.3-1.57-2.33V4.65c-.16-.39-.48-.9-.76-.57-.46.1.12-.74-.34-.64.38-.14.77.05,1.11.37v-.07c0-.94.33-1.85,1.27-2.19-.13-.03-.3-.02-.53.05-.5-.24.3-.53.16-.94.26.01.48.06.68.13V.01c-1.06.04-2.03.28-2.92.67.06.12.12.24.21.37Z" fill="#fff"/><path d="M45.34,18.75h.61c.05-.16.14-.3.31-.38-.23-.33-.65.17-.91.38Z" fill="#fff"/><path d="M151.65,17.93c.24.02.33-.1.52-.13.05-.05.1-.1.14-.17-.09-.07-.16-.16-.15-.32-.23.15-.34.41-.51.61Z" fill="#fff"/><path d="M142.98,1.79c1.27.92,1.61,2.53,1.84,3.84.06.42.14.9.5,1.09-.05-.15-.17-.24-.15-.46.56-.15.79.33.57.55.7-.02.77-.61.77-.71V.36s-3.53,0-3.53,0v1.43Z" fill="#fff"/><path d="M127.78,10.31c-.05,0-.09.02-.14.01-.08-.01-.12.01-.14.05l.23.42h.05s0-.48,0-.48Z" fill="#fff"/><path d="M127.14,12.52c-.48-.26-.94-.53-1.19-.99.52.23.76.04.84-.26-.15-.21-.21-.5-.34-.74.02.01.04.03.06.04l-3.04-5.28c.08.39.12.48-.04,1.04-.97-.37.19-2.41-1.37-1.94-.16-.08-.18-.16-.14-.25-.05.01-.11.02-.18,0-.44-.47.18-.76.5-.55,0-.05,0-.09-.01-.14.08,0,.14.02.21.03l-.94-1.63c-.26-.07-.47-.19-.82-.18,0-.31.17-.45.42-.52l-.44-.77h-2.69c.08.2,0,.56.35.51-.02.39-.57.03-.68-.02-.02-.23.13-.31.15-.49h-3.45c-.51.03-1.26.03-1.25.76,0,.54.32.64.74.78.81.26.93.63,1.33,1.32l2.67,4.6c.16.03.31.07.4.16.03.18-.04.26-.1.35l.3.51c-.1-.25.23-.56.83.11-.45.17-.7.08-.8-.06l.94,1.63c.23,0,.63.17.54-.12.08.23-.18.39-.22.66l4.45,7.67h3.66s0-5.94,0-5.94l-.49-.85c-.26,0-.42,0-.16.56ZM117.45,1.17c-.48.01-.72.25-.67.77-.56-.02-.66-.47-.68-.97.46.13.34-.31.67-.29.53-.06.46.44.85.5-.03.18-.17.08-.17,0ZM118.16,4.51c-.31.34.21-.79-.18-1.11.53-.06.13.73.52.8-.03.18-.34.1-.34.31ZM119.4,10.25c.25-.22.04-.9.67-.77-.02.22-.02.45.18.48-.14.22-.55.21-.85.29ZM120.22,6.16c-.34-.38-.43-.99-.86-1.29.49-.24.62-.64.75-1.01-.26,0-.57-.07-.6.15-.2-.04-.09-.16,0-.16-.31-1.44,0-2.06-.54-3.34.3.03.35-.18.67-.14.04.13-.07.15-.16.15.03.18.31.14.51.17-.04.09-.42.59,0,.63-.03.19-.31.13-.51.14.37.89.09,1.38.65,2.3.11-.31.23-.6.57-.76-1.08.6,1.01,2.77-.48,3.15ZM121.12,12.35c-.15.4.48.63.52,1.28-.43-.18-.92-.83-.52-1.28ZM122.02,8.5c-.2-.04-.1-.17,0-.16-.23-.26-.4-.57-.51-1.28.41-.05.37.3.85.19-.12.47.17.58.17.95-.14.13-.46.08-.51.3Z" fill="#fff"/><path d="M173.83,17.37c-.69-.3-.71-.77-.86-1.45l-3.52-14.81c-.27-.08-.53-.19-.81-.44.03-.17.31-.11.33-.29h-3.21c-.04.23-.14.42-.52.33.06-.1.12-.21.17-.33h-1.35s.01.09,0,.14c-.08,0-.15,0-.23,0l-.29,1.19.78,3.43c.36.47.64,1.05,1.11.96-.04.49-.51.23-.85.16l1.44,6.31h-3s-.34,1.42-.34,1.42h3.59s.5,1.9.5,1.9c.22.95.12,1.13-.52,1.49-.32.18-.47.3-.47.69,0,.64.71.69,1.2.69h6.12c.46,0,1.35.03,1.35-.64,0-.45-.27-.62-.62-.76ZM168.82,4.93c.23.22.36.79.17.95-1.19.18-1.89-1.04-1.19-1.61.41.06.57,1.17,1.02.66ZM168.67,7.3c-.53.06-.76-.16-.68-.66.19.04.29-.02.34-.14.25.15.37.41.34.8ZM165.44,6.72c.34-.14.68-.28,1.01-.43.35.06.16.6.52.65-.49.28-1.5.73-1.52-.21ZM166.98,14.2c-.82-.36.19-1,0-1.73.45.31.27,1.22,0,1.73ZM167.96,1.28c.98.31.62,1.02.35,1.6-.16-.01-.13-.2-.18-.32-.48-.14-.44.21-.85.13-.31-.99.74-.67.68-1.41ZM168,11.87c.15.19.23.43.17.8-.2-.4-.68-.54-.68-1.13.41-.05.37.3.85.19,0,.15-.2.11-.34.15ZM169.21,16.34c-.8-.33.51-.74-.69-.82-.3-.35.58.12.85-.13.14.35.1.86.52.97-.24.67-.65-.97-.68-.02Z" fill="#fff"/><path d="M142.71,17.33c-.86-.27-.84-.41-.84-1.32v-4.04c-.07-.06-.14-.12-.25-.15.08-.12.14-.24.25-.33V.37s-6.02,0-6.02,0v12.53c.23-.07.44-.18.48-.43.88.57.66.98.7,1.76-.46-.07-.87-.09-1.18-.02v1.8c0,.18,0,.32,0,.45.11.08.29.07.53-.03,0,.27,0,.53,0,.79-.65,0-.06-.13-.18-.48-.56-.15-.25.52-.51.62-.09-.07-.16-.14-.21-.21-.12.06-.27.12-.47.18-.31.1-.53.32-.54.66,0,.71.8.76.91.76h6.96s.14,0,.27-.04c.13-.07.24-.17.26-.33.06.04.11.08.16.12.12-.11.22-.27.22-.51,0-.34-.22-.56-.54-.66ZM137.32,1.05c-.2-.03-.31.03-.35.15-.25-.15-.37-.4-.34-.8.53-.06.76.16.69.65ZM136.48,2.76c-.23-.22-.38-.79-.18-.95,1.2-.18,1.91,1.04,1.21,1.62-.41-.06-.57-1.17-1.03-.66ZM137.36,6.43c-.98-.31-.62-1.02-.36-1.59.16.01.13.2.18.32.48.14.44-.21.85-.13.31.97-.74.66-.67,1.4ZM138.74,12.19c-.16.34-.68-.31-.52-.8.13.09.28.17.51.17.16.3-.51.51,0,.63ZM138.04,8.85c-.45-.2.68-.17.33-.78.14.26.54.26.51.66-.3-.3-.5.05-.85.12ZM138.91,12.84c.08-.23.15.02.34.01.15.03.17-.06.18-.16.17-.18-.28,1,.17,1.12-.41.46-.45-.74-.68-.97Z" fill="#fff"/><path d="M155.1,3.12c0-.91-.03-1.05.84-1.32.31-.1.53-.32.54-.66,0-.71-.8-.76-.91-.76h-6.96c-.1,0-.91.05-.91.76,0,.34.22.56.54.66.86.27.84.41.84,1.32v8.08c.14.04.19.15.37.16-.06.19-.17.03-.37,0v.29c.14.21.34.35.54.51-1.11.79.39,2.35-.5,2.82.52,0,.85,1.02,1.19.68.57,1.04-.22,2.15.35,2.85-.11.08-.18.16-.23.24h.96c0-.08.03-.16.05-.22-.19-.27-.13-.46-.62-.47-.04-.65.37-.92.17-1.58.32-.05.62.13.34.17.49,0,1.13,1.3,1.36.52.37-.27-.09.53.17.8-.09-.11-.24-.16-.37-.22-.02.05-.04.1-.08.15.06.1.14.2.28.23-.05.18-.17.3-.26.45.08.06.16.12.24.19h2.9c.1,0,.91-.05.91-.76,0-.34-.22-.56-.54-.66-.86-.27-.84-.41-.84-1.32v-1.07c-.13-.05-.26-.15-.35-.34.03-.16.19-.2.35-.23v-4.17s-.03-.08-.05-.12c.02,0,.03.02.05.03v-4.68s-.05.01-.08.02c-.05-.21.02-.32.08-.43v-1.88ZM150.61,8.02c-.18-.05-.09-.17,0-.16-.23-.26-.4-.57-.51-1.28.41-.05.37.3.85.19-.12.47.17.58.17.95-.14.13-.46.08-.51.3ZM153.91,14.71c0,.26,0,.53,0,.79-.47.06-.17-.59-.52-.65.03-.18.31-.13.51-.14ZM153.36,18.15c.23-.4.59.4,1.01.35-.29.44-.85-.18-1.01-.35Z" fill="#fff"/><path d="M149.95,18.02c-.6.05.17-.66-.68-.81.03-.18.31-.13.51-.14,0-.42.09-.93-.34-.96-.27.21-.18.77-.51.93-.02,0-.03-.02-.04-.03-.12.12-.32.21-.66.32-.31.1-.53.32-.54.66,0,.1.02.18.04.26.16.07.28.02.73-.01.01.26-.26.25-.49.32.24.17.56.19.62.19h1.27c-.06-.05-.14-.09-.26-.11.24-.08.02-.6.33-.62Z" fill="#fff"/><path d="M149.02,16.76s.05-.02.08-.03c0-.06-.03-.08-.06-.1,0,.04-.01.09-.02.12Z" fill="#fff"/><path d="M188.7,12.36c-.52,0-.81.15-.94.69-.51,2.28-1.65,4.01-3.64,4.28v1.44s5.18,0,5.18,0v-5.46c0-.47-.04-.94-.61-.94Z" fill="#fff"/><path d="M184.34,1.42c-.38-.22-.71-.64-.93-1.04h-6.87c-.1,0-.91.05-.91.76,0,.34.22.56.54.66.86.27.84.41.84,1.32v7.07c.24.04.49.08.83.1.36.27.22.97.52,1.29-.14.12-.98-.17-.84.6.16.01.13-.18.16-.3.14.42-.46,1.45.35,1.91-.07.75-.69.6-1.02.75,0,0,0,0,0,0v1.48c0,.91.03,1.05-.84,1.32-.31.1-.53.32-.54.66,0,.71.8.76.91.76h6.49s0-9.74,0-9.74c-.27-.09-.42-.3-.44-.6.18,0,.32.02.44.07v-2.14c-.16-.06-.11-.07,0-.1v-1.93c-1.01-.08-1.44-.68-1.82-1.32.7.46.09-.41.67-.29-.1-.6-.19-.6,0-1.27.92.35-.08,2.2,1.15,1.99v-.3c0-.91-.03-1.05.84-1.32.22-.07.38-.2.47-.39ZM180.7,1.55c.37.03.08.67.17.95-.79-.17-.26-.5-.17-.95ZM180.9,8.67c-.32-.2.1-.89-.35-1.27.62-.55.61.96.35,1.27ZM182.95,14.58c-.11.49-.12.3,0,.8-.5-.08-.33-.76-.68-.97-.04.89-.55.06-.85-.51.26-.42.95.48,1.19.03.37.25-.18.44.34.64ZM181.75,10.43c.22.17.62.18.85.34-.15.5-.51.69-.17,1.27-.6.34-.92-.69-1.19-1.15.45.11.61-.04.51-.46ZM181.25,15c.51.22.62.81.86,1.29-.37-.32-1.1-.92-.86-1.29Z" fill="#fff"/><path d="M162.12,17.27c-.06-.02-.1-.05-.16-.08.07.08.14.15.27.17.02.16-.74.3-.17.47-.51.59-.59-.43-.52-.91-.4-.34-.5-.86-.22-1.94l1.75-6.4c-.05-.19-.03-.45-.03-.68.1-.02.16-.01.21,0l.36-1.32-.6-2.62c-.05-.01-.1-.03-.13-.06l-2.92,10.69c-.46,1.75-1.13,2.3-1.64,2.58-.54.27-.96.25-.96.84,0,.71.88.74,1.38.74h1.84c-.17-.05-.35-.07-.56-.04.51-.61,2.03-.22,2.55-.39.13-.04.17-.09.26-.09,0-.05.02-.09.02-.14,0-.5-.35-.64-.74-.81ZM159.68,16.8c.08-.35.91-.1,1.02.03-.71.58.24-.12.17.48-.74.13-.78-.35-1.19-.51Z" fill="#fff"/><path d="M169.29.38h-.15c.05,0,.11,0,.15.02v-.02Z" fill="#fff"/><path d="M93.73,5.53c.45.31.82.88,1.01,1.31-.23,0-.45-.01-.68-.02-.07-.26-.32-.82-.59-.91.01.32-.05.69-.16.83-.2-.12-.11-.43-.12-.74-.24.03-.16-.23-.13-.43-.03-.04-.05-.07-.09-.11.03-.03.05-.03.08-.04-.02-.05-.07-.09-.17-.06.26-.1.53-.03.77.12.11-.73-.57-.74-.68-1.27-.02.8-.31,0-.85.29-.57-.47,1.15-.05.85-.76.88.03.81.95,1.42,1.52-.45-1.14-1.07-2.07-1.8-2.81.06.17.15.34.28.54-.27.01-.65-.08-.68.15-.2-.04-.09-.16,0-.16-.09-.39-.12-.72-.14-1.02-1.33-1.08-2.98-1.59-4.75-1.57v1.42c.75.1,1.15.5,1.35.99.08,0,.17,0,.25.01-.02.22-.03.45.17.48,0,.07-.13.14-.25.2.01.08.02.17.03.25.02,0,.03.01.05.02,0,.03-.03.04-.04.05.01.18.02.36.02.53v3.89c.43,0,.79.12,1.41.15.36.27.22.97.52,1.29-.14.12-.98-.17-.84.6.16.02.13-.17.16-.3.14.42-.46,1.45.35,1.91-.07.75-.69.6-1.02.75-.17-.47-.37-.81-.57-1.12v2.86s.04,0,.07-.01c-.04.08-.05.15-.07.21v.13c.1.4,1.21.11,1.6.66-.22.55-1.11-.5-.85.44-.58-.03-.38-.67-.76-.61-.03.9-.26,1.99-1.57,2.17v1.43c2.81,0,5.66-1.63,7.07-4.54-.38-.33-.89-.82-.68-1.14.42.18.57.61.74,1.02.19-.42.36-.86.49-1.33-.04-.12-.1-.22-.2-.29-.04.89-.55.06-.85-.51.26-.42.95.48,1.19.03.02.01.02.02.03.03.15-.77.22-1.59.18-2.47-.07-1.5-.33-2.81-.72-3.93-.34-.11-.52,0-.78-.11ZM92.64,8.14c-.34-.01-.22-.44-.68-.34-.35-.06.04.45.17.48-.28.39-1.74-.99-.86-1.14-.11-.16-.39-.17-.34-.49-.2.13-.45.19-.85.13.71-.69-.34-.3-.51-.97.71.39.6.21,1.36.05.25.61-.46.28-.33.78.09-.05.63-.38.66.02.48-.15.62-1.18,1.19-.75-.29.5-1.08.54-.85,1.55.16,0,.13-.19.17-.31.17.11.18.36.51.34.2-.02.14-.28.17-.47.62-.03.95.21,1.36.36-.42.59-1.08-.44-1.19.75ZM94.84,10.1c-.6.34-.92-.69-1.19-1.15.45.11.61-.04.51-.46.22.17.62.18.85.34-.15.51-.51.7-.17,1.27Z" fill="#fff"/><path d="M117.94,17.79c.04-.15.03-.26,0-.35-.07-.03-.13-.07-.21-.11-.07.18-.28.23-.32.44-.32-.03-.12-.53-.51-.49.03-.23.31-.2.54-.12-.15-.11-.3-.25-.45-.45-.13,0-.27.01-.43.09.17-.09.25-.19.3-.3-.2-.36-.37-.87-.47-1.63v-.28s-.02,0-.02-.01c0-.01.02-.02.02-.03v-1.08s-.03,0-.04,0c.02-.07.03-.13.04-.2v-.3c-.07-.31-.34-.44-.4-1.09.18.18.29.18.4.13v-1.25c-.17.12-.31.28-.39.48-.37-.03-.37-.4-.34-.8,1.03.34.23-.16.74-.27v-2.16c-.25.29-.71.18-1.11.04.27-.44.59-.18,1.11-.13v-.48s-1.37-2.46-1.37-2.46h-.05s0,6.28,0,6.28c.07.03.13.06.18.11.08.35-.04.49-.18.62v1.03c.49.12.89.32,1.04.74-.05.38-.58.29-.5.78-.14-.28-.35-.51-.54-.75v1.08c-.39,3.08-1.96,2.12-1.97,3.17,0,.76,1.01.71,1.28.71h.35c.14-.45-.48-.91-.63-1.4,1,0,1.15.74,1.18,1.4h1.91c.27,0,1.27.05,1.27-.72,0-.09-.02-.17-.04-.23-.1-.02-.22-.03-.39-.02Z" fill="#fff"/><path d="M110.99,14.29c-.4.45-.45-.74-.68-.97.01-.03.02-.04.03-.05-.13-.04-.25-.09-.34-.15-.19.14-.3.39-.41.64-.65,1.97-2.18,3.31-4.17,3.56v1.42s5.64,0,5.64,0v-4.91c0-.07.03-.43-.2-.65.02.14-.25,1.01.13,1.11Z" fill="#fff"/><path d="M128.75.38h-3.34c-.24,0-1.04.05-1.05.72.16.15.34.28.4.52,0-.8.31,0,.85-.29.45.36-.48.19-.78.44.6.33,1.55.64,1.55,3.05l-.02,3.49,1,1.8c.15-.24.29-.48.43-.72v-1.87c-.03-.09-.03-.17,0-.24v-2.47s0-.05,0-.08c0,0,0,0,0,0,0,0,0,0,0,0,0-.07,0-.14,0-.2-.04.01-.08.02-.12.03-.07-.33.12-.41.17-.63,0,0,0,0,0,0,.15-1.13.57-1.61.99-1.88,0-.01.02-.02.03-.03-.25.08-.68-.33-.52.36-.25-.15-.25-.52-.34-.8.15-.07.3-.14.34-.32.14-.03.16.07.17.17.17.22.28-.06.51.34-.02.14-.07.2-.13.23,0,0,.02,0,.02,0,.46-.28.88-.36.88-.88,0-.69-.81-.74-1.06-.74ZM126.76,3.43c.54,0,.58.43.68.81-.57.36-1.1-.34-.68-.81Z" fill="#fff"/><path d="M134.74.37h-1.54s.01.06.03.09c.15.15.41.12,1.02.19-.38.15-.58.47-1.17.43-.19-.21-.29-.46-.34-.71h-1.52s0,.01,0,.01c.21.36.45.66,1.01.36-.05.57.98.18.68.97-.56.4-1.08-.92-1.69-.76v5.14c0,.09.08.71.81.71.61,0,.78-.51.86-1-.04,0-.07,0-.1,0,.17-.81-.08-1.04-.36-1.75.56-.33.56.3.62.86.24-1.14.65-2.37,1.71-3.13V.37Z" fill="#fff"/><path d="M78.78,1.08c0,.61.46.68.96.86.24.08.34.29.39.52.03-.04.06-.08.1-.12.41.06.57,1.17,1.02.66.23.22.36.79.17.95-.56.08-1.01-.14-1.25-.46v6.14c.17.08.24.24.59.15,0,.15-.2.11-.34.15.15.19.23.43.17.8-.1-.21-.28-.35-.43-.52v5.79c0,.91.02,1.05-.84,1.32-.31.1-.53.32-.54.66,0,.71.62.76,1.15.76h6.24s0-5.5,0-5.5c-.04,0-.08.02-.13.03.38-.67-.51-.06-.85-.03.28.3.44.73.34,1.12-.58.1-.22-.65-.85-.51.14-.39.22-.84.16-1.41,1.39-.23-1.05-.98-.86-1.92-.09-.36-.26.18-.51-.17.13-.44-.24-.42-.17-.8.45.42.14-.25.68-.13-.13,1.01.89.92.51,1.75.92.15.9-.61,1.53-.73.05.18.1.34.14.48v-.89s-.09-.06-.16-.07c.04-.06.09-.1.16-.13v-2.37c-.4,1.04-1.18.53-1.86.06.42-.95.45-1.44.16-2.21-.15-.15-.41-.12-1.03-.19.39-.15.6-.47,1.19-.43.95,1.05-.36,2.84,1.53,2.74v-2.41c-.16-.11-.37-.14-.68.03.05-.57-.98-.18-.68-.97.46-.33.88.5,1.36.73V.37s-6.29,0-6.29,0c-.5,0-1.1.08-1.11.72ZM86.01,9.34c-.13.55-.6.16-.85-.03.13-.54.51-.09.85.03ZM80.4,4.72c.19.04.29-.02.34-.14.25.15.37.41.34.8-.53.06-.76-.16-.68-.66ZM82.3,14.43c-.24.67-.65-.97-.68-.02-.8-.33.51-.74-.69-.82-.3-.35.58.12.85-.13.14.35.1.86.52.97Z" fill="#fff"/></svg>