<?xml version="1.0" encoding="UTF-8"?><svg id="a" xmlns="http://www.w3.org/2000/svg" width="7.984in" height=".724in" viewBox="0 0 574.844 52.121"><path d="M445.816,26.818v18.054c0,1.746-.3,3.371-1.442,4.755-2.103,2.528-4.748,2.828-7.272,2.046-2.584-.842-4.207-3.25-4.207-6.259-.061-5.597,0-11.254,0-16.851,0-.903,0-1.806-.12-2.708-.06-.361-.18-.843-.481-.963-.241-.12-.842.12-1.022.361-1.322,1.746-2.645,3.491-3.847,5.357-.241.361-.12,1.203.18,1.625.902,1.444,1.984,2.768,2.945,4.153.36.481.721.963.961,1.505.842,1.745.3,2.648-1.623,2.768-1.923.12-3.786,0-5.709,0h-1.803c-1.322,0-2.223.542-2.945,1.625-1.442,2.287-3.005,4.454-4.568,6.62-1.322,1.806-2.945,3.129-5.469,3.129-2.464,0-4.268-.963-5.53-3.009-1.322-2.166-1.442-4.514,0-6.74,1.442-2.167,3.066-4.212,4.568-6.319.481-.661.901-1.324,1.322-1.986.721-1.144.06-3.129-1.262-3.611-.24-.061-.721.18-.901.421-1.322,1.746-2.584,3.551-3.846,5.357-2.825,3.972-5.65,8.004-8.415,11.976-2.344,3.43-3.726,4.934-9.135,3.069-10.217-3.49-16.287-10.592-17.97-21.424-2.043-12.94,6.852-25.818,19.954-28.888,7.392-1.685,14.364-.3,20.795,3.912,3.726,2.468,3.606,8.786-.421,10.712-2.404,1.144-4.568.963-6.732-.422-2.284-1.505-4.808-2.407-7.573-2.407-6.011-.06-12.141,4.273-13.403,10.953-1.502,7.703,3.907,15.287,11.66,16.129.481.061,1.022,0,1.502.061,1.142.12,1.623-.301,1.563-1.505-.06-3.491.18-7.041-.06-10.532-.241-3.189,2.103-5.657,5.469-5.476,4.989.3,9.977.06,15.025.12,1.442,0,2.284-.481,3.185-1.625,4.568-5.838,9.196-11.555,13.883-17.272,2.164-2.648,4.989-3.31,7.993-2.167,2.825,1.084,4.688,3.792,4.688,6.981.06,6.259.06,12.397.06,18.476Z" fill="#e43d30"/><path d="M505.436,26.337c0,6.319-.061,12.638,0,18.957.06,2.829-1.383,4.754-3.666,6.018-2.224,1.204-4.448.783-6.491-.541-1.863-1.204-2.525-2.949-2.525-5.116.061-5.115.061-10.23,0-15.346,0-1.505-.18-3.009-.3-4.514-.961,1.084-2.043,2.167-2.945,3.31-1.984,2.347-3.967,4.754-5.89,7.162q-1.743,2.167.12,4.393c1.322,1.625,2.705,3.19,4.027,4.815.541.661,1.142,1.384,1.623,2.166,1.202,1.926.361,3.732-1.863,3.732-6.491.06-12.981,0-19.533.06-1.322,0-2.103-.541-2.584-1.625-.481-1.083.12-1.866.782-2.708,2.043-2.468,4.087-4.935,6.13-7.402.541-.662.962-1.144.241-2.046-3.065-3.671-6.07-7.463-9.076-11.134-.12-.12-.36-.18-.541-.3-.06.18-.18.361-.24.541v18.055c0,1.625-.3,3.19-1.322,4.514-1.683,2.287-4.628,3.25-7.212,2.407-2.344-.722-4.268-3.25-4.568-5.838V7.981c0-2.829,1.142-4.996,3.667-6.319,2.644-1.384,5.889-.662,8.053,1.866,2.885,3.431,5.65,6.981,8.475,10.472,2.223,2.708,4.447,5.416,6.611,8.124.782,1.023,1.262.843,1.984-.06,2.344-2.889,4.688-5.718,7.092-8.546,2.945-3.491,5.89-7.102,8.895-10.532,1.623-1.866,3.666-2.527,6.19-1.745,3.246,1.084,4.748,2.949,4.808,6.38.061,6.319.061,12.517.061,18.716Z" fill="#e43d30"/><path d="M549.251,51.854h-8.715c-.481,0-1.022.06-1.502,0-2.284-.181-2.644-.903-1.383-2.768,1.503-2.227,3.066-4.393,4.688-6.56,1.322-1.806,2.945-2.828,5.349-2.648,2.765.181,5.589.12,8.414,0,1.202-.06,2.404-.18,3.546-.481,2.464-.602,3.246-3.25,1.442-5.055-.661-.662-1.562-1.264-2.464-1.625-2.344-1.083-4.747-2.046-7.152-3.009-2.644-1.144-5.229-2.407-7.453-4.333-7.452-6.62-5.469-17.212,1.744-22.086,2.765-1.926,5.889-2.828,9.255-2.948,3.306-.121,6.552-.121,9.676,1.203,3.786,1.625,6.912,3.912,8.895,7.643,1.623,3.07,1.022,6.018-1.442,8.005-2.164,1.745-6.01,1.685-8.114-.662-.962-1.023-1.803-2.167-2.705-3.19-1.623-1.926-4.207-2.587-6.431-1.625-2.525,1.083-3.306,3.912-1.262,5.838,1.502,1.384,3.426,2.347,5.288,3.25,3.426,1.745,7.092,3.069,10.277,5.356,2.044,1.505,3.907,3.25,4.688,5.657,2.464,7.523.36,16.129-8.835,19.018-2.584.783-5.229,1.203-7.934,1.144-2.705-.181-5.289-.12-7.873-.12Z" fill="#e43d30"/><path d="M509.584,26.397V5.935c0-3.551,1.262-4.935,4.808-4.935,6.371-.06,12.801-.12,19.233-.06,3.546,0,6.07,2.467,6.13,5.657.06,3.189-2.284,5.717-5.59,5.777-3.425.06-6.792.06-10.217,0-1.383-.061-1.743.481-1.683,1.745.061,1.685.061,3.431,0,5.115-.06,1.264.481,1.565,1.563,1.505,1.984-.06,4.027-.06,6.01,0,3.066.061,5.41,2.227,5.59,5.055.18,2.949-2.103,5.537-5.288,5.777-2.104.181-4.207.061-6.311,0-1.142-.06-1.683.241-1.563,1.505.18,2.287.241,4.514.361,6.801,2.103.061,4.146.12,6.25.181,2.584.06,5.229,0,7.813,0,.601,0,1.202-.061,1.803.06.901.12,1.322.963.782,1.745-1.863,2.709-3.667,5.477-5.65,8.064-1.142,1.445-2.825,2.167-4.748,2.167-4.989,0-9.977.061-15.025,0-3.005-.061-4.267-1.384-4.267-4.454v-21.244Z" fill="#e43d30"/><path d="M225.998.768c6.303,0,12.704.1,19.006,0,5.101-.1,7.903,1.903,8.002,7.813.101,11.82,0,23.739.101,35.559,0,4.707-3.502,7.312-7.202,7.011-3.401-.3-5.502-2.102-5.601-5.709-.101-5.209,0-10.317,0-15.526,0-4.507-.101-9.015.1-13.522.101-2.003-.7-2.604-2.601-2.504-2.6.2-5.302.2-7.902.3-.2,2.604-.601,5.209-.601,7.813-.1,6.711,0,13.322-.1,20.033,0,1.602-.401,3.305-.7,4.909-.601,2.905-2.801,4.006-5.402,4.206-3.101.301-5.401-.901-6.401-3.605-.7-1.804-.901-3.907-.901-5.81-.1-8.314-.1-16.728,0-25.041,0-2.204-.7-2.905-2.901-2.805-4.502.1-9.002,0-13.504,0-1,0-2,.1-3-.1-1.702-.301-2.502-2.003-1.401-3.406,2-2.704,4.101-5.209,6.302-7.813,1.401-1.703,3.401-1.803,5.502-1.803h19.205Z" fill="#e43d30"/><path d="M297.122,26.109c0,6.01.1,12.02,0,18.03-.101,4.909-3.002,7.212-7.702,6.911-2.002-.101-3.301-1.102-4.402-2.805-3.8-6.21-7.802-12.32-11.703-18.43-.801-1.202-1.7-2.404-2.601-3.506-.2,1.402-.5,2.805-.5,4.207-.101,4.708.1,9.315-.101,14.023-.199,4.708-3.5,7.312-8.002,6.511-2.401-.401-4.401-1.503-4.901-4.307-.2-1.503-.7-2.906-.7-4.408,0-11.018-.099-22.036,0-33.055,0-5.008,1.401-7.112,4.802-8.314,3.301-1.102,5.901,0,8.103,3.606,3.601,5.81,7.102,11.519,10.703,17.329.5.801,1,1.703,1.601,2.504.399.501.899.901,1.3,1.402.1-.601.401-1.302.401-1.903v-14.023c0-1.502.2-3.005.6-4.407.901-3.305,2.701-4.708,6.102-4.708s5.303,1.202,6.202,4.507c.401,1.402.601,2.905.601,4.407.2,5.509.2,10.918.2,16.427Z" fill="#e43d30"/><path d="M47.342,26.009V7.479c0-5.008,1.601-6.511,6.502-6.611,4.302-.1,8.703.1,13.004,0,12.604-.401,22.808,7.613,24.207,22.537.7,7.813-1.1,15.225-6.901,21.135-4.101,4.207-9.103,6.511-15.105,6.511h-15.504c-4.601,0-6.202-1.703-6.202-6.41v-18.631ZM60.346,25.909v12.02c0,1.202.401,1.903,1.7,1.903,7.502.2,14.405-1.102,15.806-10.718,1.5-9.916-2.801-17.729-14.905-17.028-1.801.1-2.701.901-2.601,2.805.1,3.706,0,7.312,0,11.018Z" fill="#e43d30"/><path d="M94.456,25.709V8.18c.101-5.609,1.901-7.312,7.503-7.312h13.504c13.403,0,22.507,11.118,22.806,22.838.101,5.91-.399,11.519-3.701,16.728-4.401,6.811-10.403,10.517-18.506,10.618h-15.004c-4.401,0-6.403-1.903-6.502-6.21-.2-6.511-.101-12.822-.101-19.132ZM107.461,26.31v11.419c-.1,1.402.401,2.204,2.002,2.103,1.7-.1,3.401.2,5.002-.2,6.001-1.202,8.602-2.504,10.403-8.915,3.201-11.118-3.702-19.733-14.705-18.631-1.801.2-2.702.901-2.702,2.805v11.419Z" fill="#e43d30"/><path d="M42.14,26.009c0,6.21.101,12.32,0,18.531-.1,4.207-2.6,6.511-6.502,6.511-3.8,0-6.102-2.504-6.201-6.812-.101-5.308,0-10.717,0-16.026,0-1.302-.2-2.604-.301-3.907-1,1.002-2.1,1.903-3,3.005-2.301,3.205-2.201,3.205.1,6.811,1.001,1.502,3.002,2.704,2.002,4.808-1,2.104-3.301,1.002-4.902,1.102-7.202.2-5.101-.901-9.203,4.808-1,1.301-2,2.704-2.901,4.006-2.101,3.005-6.401,2.906-8.903,1.102-2.601-1.903-3.101-5.609-1.1-8.814,1.5-2.404,3.1-4.708,4.901-6.811,1.3-1.503,1-2.504,0-3.806-1.101-1.502-2.301-2.905-3.201-4.407-1.401-2.404-.7-3.806,2-3.906h.5c3.101-.1,6.802.701,9.303-.601,2.5-1.302,3.901-4.708,5.901-7.212,2.901-3.606,5.802-7.312,8.903-10.718,2.401-2.704,5.702-3.506,8.502-2.104,2.901,1.402,4.402,3.806,4.302,7.212-.3,5.509-.2,11.419-.2,17.228Z" fill="#e43d30"/><path d="M338.634,21.902c2.5,0,5.002-.1,7.502,0,2.101.1,3,1.502,2,3.305-1.5,2.604-3.201,5.108-5.101,7.312-.7.801-2.3,1.402-3.5,1.302-2.401-.2-3.502.901-4.702,2.805-2.601,4.007-5.601,7.813-8.203,11.92-1.2,1.903-2.801,2.704-5.002,2.604-6.401-.2-11.403-3.605-15.304-8.213-6.802-7.813-7.903-17.028-4.402-26.544,3.601-9.616,11.204-14.624,21.008-16.127,6.201-1.002,12.104.901,17.505,4.307,4.302,2.805,4.101,8.314-.099,10.718-2.401,1.402-5.002,1.002-7.502-.601-4.802-3.105-9.804-2.604-14.504.3-4.402,2.704-6.803,9.115-5.502,13.923,1.7,6.11,6.302,9.916,12.004,10.317,1.8.1,2.8-.301,2.701-2.404-.101-3.305-.101-6.711,0-10.017.1-3.506,1.3-4.708,4.802-4.808,2-.2,4.201-.1,6.302-.1Z" fill="#e43d30"/><path d="M186.287.768c2.3,0,4.701-.1,7.002,0,1.901.1,2.701,1.202,1.7,2.604-3.101,4.407-5.802,9.115-12.304,9.716-5.702.501-10.204,3.406-11.905,9.516-2.1,7.412,3.202,15.526,10.903,16.427,6.403.701,11.905-2.003,14.605-8.614,1.601-3.906,3.201-4.808,6.702-4.708,4.101.2,6.502,3.506,5.401,7.512-2.401,8.414-7.902,13.924-16.104,16.928-13.704,5.109-29.41-2.905-33.312-16.727C153.675,14.39,167.88.367,182.185.567c1.5.2,2.8.2,4.101.2Z" fill="#e43d30"/><path d="M141.472,25.809c0-6.21-.101-12.32,0-18.531.1-3.806,2.6-6.511,6.002-6.811,2.901-.2,6.001,1.903,6.901,5.209.401,1.402.401,2.905.401,4.407,0,10.017.1,20.033,0,30.05,0,2.003-.101,4.007-.601,5.91-.399,1.503-1.399,3.005-2.5,4.007-3.502,3.105-9.203.801-10.203-4.207-.2-1.001-.101-2.004-.101-3.005.101-5.709.101-11.419.101-17.028Z" fill="#e43d30"/></svg>