<?xml version="1.0" encoding="UTF-8"?><svg id="a" xmlns="http://www.w3.org/2000/svg" width="29.11in" height="9.72in" xmlns:xlink="http://www.w3.org/1999/xlink" viewBox="0 0 2095.64 699.74"><defs><radialGradient id="b" cx="168.2" cy="551.21" fx="168.2" fy="551.21" r="284.16" gradientTransform="translate(.02 -224.03)" gradientUnits="userSpaceOnUse"><stop offset=".44" stop-color="#bdbdbd"/><stop offset="1" stop-color="#878787"/></radialGradient><radialGradient id="c" cx="171.72" cy="559.21" fx="171.72" fy="559.21" r="285.32" gradientTransform="translate(.02 -224.03)" gradientUnits="userSpaceOnUse"><stop offset=".07" stop-color="#c8da30"/><stop offset="1" stop-color="#93c13e"/></radialGradient></defs><path d="M292.61,315.53c-16.33-15.34-35.02-27.53-55.65-36.26-7.93-3.36-16.02-6.13-24.26-8.35,15.44-13.62,25.19-33.55,25.19-55.77,0-41.07-33.3-74.36-74.36-74.36-18.91,0-36.16,7.07-49.28,18.7V59.19c15.55-4.91,32.1-7.57,49.28-7.57,90.32,0,163.55,73.23,163.55,163.55,0,37.85-12.88,72.67-34.47,100.38h0Z" fill="url(#b)"/><path d="M237.9,453.07c0,41.07-33.3,74.36-74.36,74.36s-74.36-33.29-74.36-74.36,33.3-74.36,74.36-74.36,74.36,33.3,74.36,74.36h0ZM327.09,453.07c0-90.32-73.23-163.55-163.55-163.55-37.42,0-74.36-29.42-74.36-74.36V67.84s-30.2,14.11-53.51,35.15C11.9,124.46,0,140.77,0,140.77v381.86c19.6,37.47,73.23,93.99,163.55,93.99s163.55-73.23,163.55-163.55h0Z" fill="url(#c)"/><text transform="translate(388.28 342.19)" fill="#8f8f8f" font-family="Roboto-Regular, Roboto" font-size="400"><tspan x="0" y="0" letter-spacing="-.01em">B</tspan><tspan x="243.02" y="0" letter-spacing=".02em">R</tspan><tspan x="497.31" y="0">ADL</tspan><tspan x="1235.79" y="0" letter-spacing="0em">E</tspan><tspan x="1467.13" y="0">Y</tspan></text><text transform="translate(394.42 611.66)" fill="#a2c83a" font-family="Roboto-Regular, Roboto" font-size="325"><tspan x="0" y="0" letter-spacing="0em">B</tspan><tspan x="199.08" y="0" letter-spacing="-.09em">A</tspan><tspan x="381.84" y="0" letter-spacing="-.03em">Y</tspan><tspan x="567.28" y="0" letter-spacing=".02em">S</tspan><tspan x="766.59" y="0" letter-spacing=".01em">I</tspan><tspan x="858.24" y="0">NGER</tspan></text></svg>