<?xml version="1.0" encoding="UTF-8"?><svg id="a" xmlns="http://www.w3.org/2000/svg" width="27.07in" height="7.86in" xmlns:xlink="http://www.w3.org/1999/xlink" viewBox="0 0 1949.34 565.89"><defs><radialGradient id="b" cx="168.22" cy="292.39" fx="168.22" fy="292.39" r="284.16" gradientTransform="translate(0 567.94) scale(1 -1)" gradientUnits="userSpaceOnUse"><stop offset=".44" stop-color="#bdbdbd"/><stop offset="1" stop-color="#878787"/></radialGradient><radialGradient id="c" cx="171.74" cy="284.39" fx="171.74" fy="284.39" r="285.32" gradientTransform="translate(0 567.94) scale(1 -1)" gradientUnits="userSpaceOnUse"><stop offset=".07" stop-color="#c8da30"/><stop offset="1" stop-color="#93c13e"/></radialGradient></defs><path d="M292.62,263.92c-16.33-15.34-35.02-27.53-55.65-36.26-7.93-3.36-16.02-6.13-24.26-8.35,15.44-13.62,25.19-33.55,25.19-55.77,0-41.07-33.3-74.36-74.36-74.36-18.91,0-36.16,7.07-49.28,18.7V7.57c15.55-4.91,32.1-7.57,49.28-7.57,90.32,0,163.55,73.23,163.55,163.55,0,37.85-12.88,72.67-34.47,100.38h0Z" fill="url(#b)"/><path d="M237.91,401.46c0,41.07-33.3,74.36-74.36,74.36s-74.36-33.29-74.36-74.36,33.3-74.36,74.36-74.36,74.36,33.3,74.36,74.36ZM327.1,401.46c0-90.32-73.23-163.55-163.55-163.55-37.42,0-74.36-29.42-74.36-74.36V16.22s-30.2,14.11-53.51,35.15C11.9,72.84,0,89.15,0,89.15v381.87c19.6,37.47,73.23,93.99,163.55,93.99s163.55-73.23,163.55-163.55h0Z" fill="url(#c)"/><path d="M388.2,562.71v-231.14h71.65c23.78,0,41.67,5.18,53.67,15.56,11.99,10.38,17.99,25.71,17.99,46.04,0,10.79-2.91,20.34-8.74,28.65-5.81,8.3-13.74,14.74-23.78,19.29,11.84,3.48,21.21,10.13,28.08,19.92,6.86,9.79,10.3,21.45,10.3,35.01,0,20.74-6.37,37.04-19.11,48.89-12.75,11.85-30.76,17.78-54.05,17.78h-76.01ZM417.1,430.15h43.66c12.64,0,22.76-3.34,30.32-10.02,7.58-6.67,11.37-15.75,11.37-27.21,0-12.72-3.51-21.98-10.54-27.76-7.02-5.78-17.71-8.66-32.06-8.66h-42.75v73.66ZM417.1,454.6v83.18h47.72c13.43,0,24.04-3.67,31.83-11.03,7.77-7.36,11.66-17.49,11.66-30.4,0-27.84-14.36-41.75-43.06-41.75h-48.16Z" fill="#a2c83a"/><path d="M696.83,502.23h-91.82l-20.62,60.49h-29.81l83.7-231.14h25.29l83.84,231.14h-29.66l-20.91-60.49ZM613.74,477.3h74.51l-37.32-108.11-37.19,108.11Z" fill="#a2c83a"/><path d="M818.77,447.61l57.19-116.04h32.83l-75.57,144.94v86.2h-28.89v-86.2l-75.57-144.94h33.12l56.9,116.04Z" fill="#a2c83a"/><path d="M994.27,459.68c-24.79-7.52-42.84-16.76-54.12-27.7-11.28-10.96-16.93-24.47-16.93-40.57,0-18.19,6.89-33.25,20.69-45.16,13.8-11.9,31.74-17.85,53.81-17.85,15.06,0,28.48,3.07,40.27,9.21,11.78,6.13,20.91,14.61,27.4,25.41,6.47,10.79,9.7,22.6,9.7,35.4h-29.05c0-14.02-4.21-25.04-12.64-33.06-8.43-8.02-20.33-12.03-35.68-12.03-14.25,0-25.36,3.31-33.34,9.94s-11.97,15.82-11.97,27.59c0,9.44,3.79,17.43,11.37,23.94,7.58,6.53,20.47,12.48,38.68,17.9,18.22,5.4,32.46,11.36,42.75,17.87,10.29,6.51,17.91,14.11,22.89,22.79,4.96,8.68,7.45,18.89,7.45,30.63,0,18.73-6.92,33.73-20.78,45.02-13.84,11.27-32.36,16.9-55.54,16.9-15.04,0-29.11-3.04-42.15-9.13-13.04-6.09-23.11-14.42-30.18-25s-10.61-22.6-10.61-36.05h29.05c0,13.98,4.89,25.01,14.68,33.1,9.78,8.09,22.84,12.15,39.21,12.15,15.25,0,26.94-3.28,35.08-9.85,8.12-6.56,12.19-15.5,12.19-26.83s-3.76-20.08-11.3-26.27c-7.52-6.19-21.18-12.31-40.93-18.34Z" fill="#a2c83a"/><path d="M1147.13,562.71h-28.9v-231.14h28.9v231.14Z" fill="#a2c83a"/><path d="M1367.02,562.71h-29.05l-110.35-178.12v178.12h-29.05v-231.14h29.05l110.64,178.91v-178.91h28.76v231.14Z" fill="#a2c83a"/><path d="M1573.99,532.39c-7.42,11.22-17.78,19.61-31.08,25.16-13.3,5.56-28.77,8.34-46.44,8.34s-33.72-4.42-47.56-13.26c-13.84-8.84-24.56-21.4-32.14-37.7-7.58-16.3-11.47-35.2-11.66-56.68v-20.15c0-34.83,7.7-61.82,23.11-80.97,15.4-19.16,37.04-28.73,64.95-28.73,22.87,0,41.28,6.16,55.25,18.48,13.95,12.34,22.46,29.83,25.58,52.48h-28.9c-5.41-30.7-22.67-46.04-51.78-46.04-19.36,0-34.04,7.17-44.02,21.53-10,14.36-15.03,35.14-15.13,62.36v18.91c0,25.96,5.62,46.58,16.86,61.89,11.24,15.31,26.45,22.96,45.6,22.96,10.84,0,20.33-1.27,28.45-3.81,8.14-2.53,14.85-6.81,20.18-12.82v-51.81h-50.74v-24.92h79.48v84.78Z" fill="#a2c83a"/><path d="M1740.49,455.86h-94.98v81.93h110.33v24.92h-139.24v-231.14h137.73v24.92h-108.82v74.45h94.98v24.92Z" fill="#a2c83a"/><path d="M1869.74,469.21h-51.49v93.5h-29.05v-231.14h72.56c24.67,0,43.67,5.93,56.97,17.78,13.29,11.85,19.93,29.09,19.93,51.75,0,14.4-3.69,26.94-11.06,37.63s-17.63,18.67-30.78,23.97l51.49,98.11v1.9h-31.01l-47.56-93.5ZM1818.26,444.29h44.4c14.36,0,25.77-3.92,34.25-11.78,8.49-7.84,12.72-18.34,12.72-31.48,0-14.31-4.04-25.29-12.12-32.93-8.08-7.64-19.74-11.5-34.99-11.61h-44.26v87.79Z" fill="#a2c83a"/><path d="M388.92,274.33V4.91h83.51c27.72,0,48.59,6.04,62.55,18.13,13.99,12.09,20.96,29.98,20.96,53.67,0,12.58-3.37,23.72-10.16,33.4-6.79,9.69-16.04,17.18-27.72,22.49,13.79,4.07,24.7,11.81,32.72,23.23,7.99,11.41,12,25.01,12,40.8,0,24.18-7.43,43.18-22.27,57-14.87,13.82-35.86,20.72-62.99,20.72h-88.6ZM422.61,119.82h50.87c14.75,0,26.52-3.89,35.36-11.68,8.84-7.79,13.26-18.36,13.26-31.71,0-14.84-4.1-25.63-12.29-32.36-8.2-6.73-20.64-10.11-37.38-10.11h-49.82v85.86ZM422.61,148.31v96.97h55.61c15.66,0,28.04-4.29,37.11-12.86,9.04-8.57,13.58-20.39,13.58-35.44,0-32.44-16.71-48.67-50.17-48.67h-56.14Z" fill="#8f8f8f"/><path d="M704.5,165.34h-60v108.99h-33.86V4.91h84.57c28.77,0,50.9,6.91,66.41,20.72,15.48,13.82,23.24,33.93,23.24,60.32,0,16.78-4.3,31.4-12.89,43.86-8.61,12.46-20.56,21.77-35.88,27.94l60,114.36v2.22h-36.13l-55.45-108.99ZM644.5,136.29h51.76c16.73,0,30.03-4.57,39.91-13.72,9.88-9.15,14.83-21.38,14.83-36.7,0-16.68-4.71-29.47-14.12-38.37-9.41-8.91-23.02-13.41-40.79-13.54h-51.59v102.33Z" fill="#8f8f8f"/><path d="M992.9,203.83h-107.02l-24.04,70.5h-34.73L924.64,4.91h29.49l97.72,269.43h-34.55l-24.4-70.5ZM896.04,174.78h86.86l-43.51-126.02-43.35,126.02Z" fill="#8f8f8f"/><path d="M1095.22,274.33V4.91h72.12c22.22,0,41.87,5.18,58.95,15.54,17.08,10.36,30.26,25.11,39.56,44.23,9.31,19.12,14.01,41.08,14.12,65.88v17.21c0,25.41-4.64,47.68-13.95,66.8-9.29,19.12-22.57,33.8-39.82,44.04-17.25,10.24-37.35,15.48-60.27,15.73h-70.72ZM1128.91,33.96v211.33h35.45c25.96,0,46.17-8.52,60.62-25.56,14.44-17.03,21.66-41.3,21.66-72.79v-15.75c0-30.62-6.81-54.42-20.43-71.4-13.63-16.98-32.96-25.59-58-25.84h-39.29Z" fill="#8f8f8f"/><path d="M1371.19,245.28h121.06v29.05h-154.92V4.91h33.86v240.38Z" fill="#8f8f8f"/><path d="M1684.05,149.8h-110.71v95.48h128.61v29.05h-162.3V4.91h160.54v29.05h-126.85v86.78h110.71v29.06Z" fill="#8f8f8f"/><path d="M1844.42,140.18L1911.1,4.91h38.24l-88.07,168.94v100.48h-33.69v-100.48L1739.51,4.91h38.59l66.32,135.27Z" fill="#8f8f8f"/></svg>