<?xml version="1.0" encoding="UTF-8"?><svg xmlns="http://www.w3.org/2000/svg" width="29.11in" height="9.72in" xmlns:xlink="http://www.w3.org/1999/xlink" viewBox="0 0 2095.64 699.74"><defs><radialGradient id="b" cx="168.2" cy="551.21" fx="168.2" fy="551.21" r="284.16" gradientTransform="translate(.02 -224.03)" gradientUnits="userSpaceOnUse"><stop offset=".44" stop-color="#bdbdbd"/><stop offset="1" stop-color="#878787"/></radialGradient><radialGradient id="c" cx="171.72" cy="559.21" fx="171.72" fy="559.21" r="285.32" gradientTransform="translate(.02 -224.03)" gradientUnits="userSpaceOnUse"><stop offset=".07" stop-color="#c8da30"/><stop offset="1" stop-color="#93c13e"/></radialGradient></defs><g id="a"><path d="M292.61,315.53c-16.33-15.34-35.02-27.53-55.65-36.26-7.93-3.36-16.02-6.13-24.26-8.35,15.44-13.62,25.19-33.55,25.19-55.77,0-41.07-33.3-74.36-74.36-74.36-18.91,0-36.16,7.07-49.28,18.7V59.19c15.55-4.91,32.1-7.57,49.28-7.57,90.32,0,163.55,73.23,163.55,163.55,0,37.85-12.88,72.67-34.47,100.38h0Z" fill="url(#b)"/><path d="M237.9,453.07c0,41.07-33.3,74.36-74.36,74.36s-74.36-33.29-74.36-74.36,33.3-74.36,74.36-74.36,74.36,33.3,74.36,74.36h0ZM327.09,453.07c0-90.32-73.23-163.55-163.55-163.55-37.42,0-74.36-29.42-74.36-74.36V67.84s-30.2,14.11-53.51,35.15C11.9,124.46,0,140.77,0,140.77v381.86c19.6,37.47,73.23,93.99,163.55,93.99s163.55-73.23,163.55-163.55h0Z" fill="url(#c)"/></g><g id="d"><path d="M421.28,342.19V57.81h92.97c30.86,0,54.07,6.38,69.63,19.14,15.56,12.76,23.34,31.64,23.34,56.64,0,13.28-3.78,25.03-11.33,35.25-7.55,10.22-17.84,18.13-30.86,23.73,15.36,4.3,27.51,12.47,36.43,24.51,8.92,12.05,13.38,26.4,13.38,43.07,0,25.52-8.27,45.58-24.8,60.16-16.54,14.58-39.91,21.87-70.12,21.87h-98.63ZM458.78,179.1h56.64c16.41,0,29.52-4.11,39.36-12.33,9.83-8.22,14.75-19.38,14.75-33.47,0-15.66-4.56-27.04-13.67-34.16-9.12-7.11-22.98-10.67-41.6-10.67h-55.47v90.62ZM458.78,209.18v102.34h61.91c17.45,0,31.22-4.52,41.31-13.57,10.09-9.05,15.14-21.51,15.14-37.4,0-34.24-18.62-51.37-55.86-51.37h-62.5Z" fill="#8f8f8f"/><path d="M768.6,227.15h-66.8v115.04h-37.7V57.81h94.14c32.03,0,56.67,7.29,73.93,21.88,17.25,14.58,25.88,35.81,25.88,63.67,0,17.71-4.79,33.14-14.36,46.29-9.57,13.15-22.89,22.98-39.94,29.49l66.8,120.7v2.34h-40.23l-61.72-115.04ZM701.81,196.48h57.62c18.62,0,33.43-4.82,44.43-14.48,11-9.65,16.5-22.57,16.5-38.75,0-17.61-5.24-31.11-15.72-40.5-10.48-9.39-25.62-14.15-45.41-14.29h-57.42v108.01Z" fill="#8f8f8f"/><path d="M1075.63,267.77h-119.14l-26.76,74.41h-38.67l108.59-284.37h32.81l108.79,284.37h-38.48l-27.15-74.41ZM967.81,237.11h96.68l-48.44-133.01-48.24,133.01Z" fill="#8f8f8f"/><path d="M1179.53,342.19V57.81h80.27c24.74,0,46.61,5.47,65.62,16.41,19.01,10.94,33.69,26.5,44.04,46.68,10.35,20.18,15.59,43.36,15.72,69.53v18.16c0,26.83-5.18,50.33-15.53,70.51-10.35,20.18-25.13,35.68-44.34,46.48-19.21,10.81-41.57,16.34-67.09,16.6h-78.71ZM1217.03,88.48v223.05h39.45c28.91,0,51.4-8.99,67.48-26.97,16.08-17.98,24.12-43.59,24.12-76.83v-16.62c0-32.32-7.59-57.44-22.75-75.36-15.17-17.92-36.69-27.01-64.55-27.27h-43.75Z" fill="#8f8f8f"/><path d="M1479.53,311.52h134.77v30.66h-172.46V57.81h37.7v253.71Z" fill="#8f8f8f"/><path d="M1817.81,210.74h-123.24v100.78h143.16v30.66h-180.66V57.81h178.71v30.66h-141.21v91.6h123.24v30.66Z" fill="#8f8f8f"/><path d="M1975.13,200.59l74.22-142.77h42.58l-98.05,178.32v106.05h-37.5v-106.05l-98.05-178.32h42.97l73.83,142.77Z" fill="#8f8f8f"/><path d="M421.24,611.66v-231.05h75.54c25.07,0,43.93,5.18,56.57,15.55,12.64,10.37,18.96,25.71,18.96,46.02,0,10.79-3.07,20.34-9.2,28.64-6.14,8.31-14.5,14.73-25.07,19.28,12.48,3.49,22.35,10.13,29.6,19.92,7.25,9.79,10.87,21.45,10.87,34.99,0,20.74-6.72,37.03-20.15,48.88-13.44,11.85-32.43,17.77-56.97,17.77h-80.14ZM451.7,479.16h46.02c13.33,0,23.99-3.34,31.98-10.02,7.99-6.68,11.98-15.75,11.98-27.2,0-12.72-3.7-21.97-11.11-27.75-7.41-5.78-18.67-8.67-33.8-8.67h-45.07v73.63ZM451.7,503.6v83.15h50.31c14.18,0,25.36-3.67,33.56-11.03,8.2-7.35,12.3-17.48,12.3-30.39,0-27.82-15.13-41.74-45.39-41.74h-50.78Z" fill="#a2c83a"/><path d="M747.91,551.2h-96.8l-21.74,60.46h-31.42l88.23-231.05h26.66l88.39,231.05h-31.26l-22.06-60.46ZM660.31,526.29h78.55l-39.36-108.07-39.2,108.07Z" fill="#a2c83a"/><path d="M873.54,496.61l60.3-116h34.59l-79.66,144.88v86.17h-30.47v-86.17l-79.66-144.88h34.91l59.99,116Z" fill="#a2c83a"/><path d="M1056.6,508.67c-26.13-7.51-45.15-16.74-57.05-27.69-11.9-10.95-17.85-24.46-17.85-40.55,0-18.19,7.27-33.25,21.82-45.15,14.54-11.9,33.46-17.85,56.73-17.85,15.87,0,30.02,3.07,42.45,9.2,12.43,6.14,22.06,14.6,28.88,25.39s10.24,22.59,10.24,35.39h-30.63c0-14.01-4.44-25.03-13.33-33.04-8.89-8.01-21.42-12.02-37.61-12.02-15.02,0-26.74,3.31-35.15,9.94s-12.62,15.82-12.62,27.58c0,9.43,3.99,17.41,11.98,23.93,7.99,6.52,21.58,12.48,40.78,17.88,19.2,5.41,34.22,11.36,45.07,17.87,10.84,6.51,18.88,14.1,24.12,22.77,5.24,8.68,7.86,18.88,7.86,30.63,0,18.73-7.3,33.72-21.9,44.99-14.6,11.27-34.12,16.9-58.56,16.9-15.87,0-30.68-3.04-44.43-9.12-13.76-6.08-24.36-14.41-31.82-24.99-7.46-10.58-11.19-22.59-11.19-36.02h30.63c0,13.96,5.16,24.99,15.47,33.09,10.31,8.09,24.09,12.14,41.34,12.14,16.08,0,28.4-3.28,36.97-9.84,8.57-6.56,12.85-15.5,12.85-26.82s-3.97-20.07-11.9-26.26c-7.93-6.19-22.32-12.3-43.16-18.33Z" fill="#a2c83a"/><path d="M1220.52,611.66h-30.47v-231.05h30.47v231.05Z" fill="#a2c83a"/><path d="M1457.05,611.66h-30.63l-116.32-178.05v178.05h-30.63v-231.05h30.63l116.64,178.85v-178.85h30.31v231.05Z" fill="#a2c83a"/><path d="M1681.75,581.35c-7.83,11.22-18.75,19.6-32.77,25.15-14.02,5.55-30.34,8.33-48.96,8.33s-35.55-4.42-50.15-13.25c-14.6-8.83-25.89-21.4-33.88-37.69-7.99-16.29-12.09-35.18-12.3-56.65v-20.15c0-34.81,8.12-61.78,24.36-80.93,16.24-19.15,39.06-28.72,68.48-28.72,24.12,0,43.53,6.16,58.24,18.49,14.7,12.33,23.7,29.81,26.98,52.45h-30.47c-5.71-30.68-23.91-46.02-54.59-46.02-20.42,0-35.89,7.18-46.42,21.52-10.53,14.35-15.84,35.13-15.95,62.34v18.9c0,25.94,5.92,46.56,17.77,61.86,11.85,15.3,27.88,22.95,48.08,22.95,11.43,0,21.42-1.26,29.99-3.8,8.57-2.53,15.66-6.81,21.26-12.82v-51.77h-53.48v-24.91h83.79v84.74Z" fill="#a2c83a"/><path d="M1863.14,504.87h-100.13v81.88h116.32v24.91h-146.79v-231.05h145.2v24.91h-114.73v74.43h100.13v24.92Z" fill="#a2c83a"/><path d="M2001.99,518.2h-54.27v93.47h-30.63v-231.05h76.49c26.03,0,46.04,5.93,60.06,17.77,14.02,11.85,21.03,29.09,21.03,51.73,0,14.39-3.89,26.93-11.66,37.61-7.78,10.69-18.59,18.67-32.45,23.96l54.27,98.07v1.9h-32.69l-50.15-93.47ZM1947.72,493.28h46.81c15.13,0,27.16-3.92,36.1-11.76,8.94-7.84,13.41-18.34,13.41-31.48,0-14.31-4.26-25.27-12.77-32.91-8.52-7.63-20.82-11.5-36.9-11.61h-46.66v87.76Z" fill="#a2c83a"/></g></svg>