<?xml version="1.0" encoding="UTF-8"?>
<svg id="Layer_1" xmlns="http://www.w3.org/2000/svg" version="1.1" viewBox="0 0 600 145.9">
  <defs>
    <style>
      .st0 {
        fill: #3e77b8;
      }
    </style>
  </defs>
  <g id="b">
    <path class="st0" d="M325.4,19.7l.9-.7,13.8-1.7.3,6.8c3.5-5.8,10.1-8.1,16.5-6.1,3.8,1.2,4.8,4,7.2,6.6,3.8-9.3,19.8-10.1,23.3,0,.3,1,1.3,5.7,1.3,6.5v26.1l-.8.8h-13.6l-.8-.8v-24.6c0-1.4-2.4-4.4-3.8-5.1-1.2-.6-5.6-1.6-5.6.4v30h-13.8l-.8-.8v-25.1c0-.9-2.7-4.1-3.8-4.6-1.1-.5-5.6-1.5-5.6.4v29.3l-.8.8h-13.1l-.8-.8V19.7h0Z"/>
    <path class="st0" d="M255.4,18.9l13.8-1.5c1.4.3.7,4.2.8,5.4,0,.7.3,1.5,1,.8,2.4-6.8,13.4-8,18.8-3.9,1.2.9,3.1,4.6,3.9,4.4,4.8-8.4,19.7-9.7,23.1.4.3,1,1.2,4.3,1.2,5.1v27.7l-.8.8h-13.1l-.8-.8v-22.5c0-.3-.7-3.3-.9-3.8-1.2-3.1-5.9-5.4-8.8-3.3-.2.4.3.7.3.8v28.7l-.8.8h-13.1l-.8-.8v-23.5c0-.4-1.1-3.2-1.5-3.8-1.4-2.4-4.8-3.2-7.4-3.2,0,.4-.6,1.1-.6,1.3v29.3l-.8.8h-13.8V18.9h0Z"/>
    <path class="st0" d="M464.1,7.1s.2,10.9,0,11.4h10v7.6s-10-.2-10,0v32h-13.7V26.1c0,0-15.1,0-15.1,0v32h-14.2V26.1h-5.3v-7.6h5.3v-9.7s14.2-2.5,14.2-2.3v12h15.1v-9.8s13.7-1.6,13.7-1.6Z"/>
    <path class="st0" d="M449,132.3h-14.1v-5.7c-2.7,2.7-4.4,5.6-8.7,6.2-22.6,3.1-24.7-37.6-.3-40.6,1.7-.2,3.4-.2,5.1-.2,1.2,0,3,1,3.7,0l.3-13.5,12.2-1.7,2.3.9-.5,54.6h0ZM434.9,122.6v-21.9c-3.2-4-9.4-2.1-10.3,2.7-.5,2.4-.5,9.2.1,11.6,1.2,4.5,5,10.6,10.2,7.6h0Z"/>
    <path class="st0" d="M333.5,76.9v20.9c1.7,0,2-1.9,3.2-2.8,5.1-4.3,14.3-4.2,18.3,1.5.8,1.1,2.6,5.6,2.6,6.8v29h-13.8l-.8-.8v-23c0-1.4-1.9-4.9-3.2-5.7-1.2-.8-6.2-2.3-6.2-.5v30h-14.6v-53.8l14.6-1.6h0Z"/>
    <path class="st0" d="M184.9,21c-.4-16.8-16.3-12.3-16.6,3-.4,17.6,13.2,25.4,29.2,19.9,1.3-.4,2.3-1.9,4.1-1.4-2.7,15.9-22.3,19.6-34.9,13.3-20.4-10.3-18-43.6,3.5-51.3,9.9-3.5,25.5-1.3,30.1,9.4,1.1,2.6,2.6,5.5-1,6.2-2.8.5-10.3,1.4-13,1.3-.4,0-.8-.1-1.2-.3h0Z"/>
    <path class="st0" d="M312.6,94.1l-15.4,2-.7-.8c.4-14-14.9-13.3-16.7-.3-2.8,20,13.2,30.7,31.1,22.2,1.9-.9,1.9.3,1.6,2.1-1.9,9.7-14.8,14.6-23.7,14-34.1-2.4-33-54.8,2.1-55.8,9.8-.3,21.9,5.5,21.6,16.6h0Z"/>
    <path class="st0" d="M533.1,93.6l14.1-1.6v6.3s5-4.6,5-4.6c2.3-1.2,4.9-1.8,7.3-1.8,4.9,0,11.3,3.7,11.3,13.4v27h-14.2v-24.1c0-3.8-2.1-5.3-3.6-6-2.1-.9-5.8-1.6-5.8,0v30h-14.1v-38.7h0Z"/>
    <path class="st0" d="M225,17.5c15.2-1.6,26.7,8.4,24.1,24.1-3.9,23.1-44.1,23-43.7-3.6.1-10.9,9.1-19.3,19.6-20.5h0ZM225.5,24.8c-5.2,1.6-4.3,16.1-3.3,20.3,2.2,8.6,9.5,8.3,11,0,.9-5,1.1-23-7.8-20.3Z"/>
    <path class="st0" d="M555.3,44.5c-.3,12.8-16.6,16.6-26.5,12.1-18.6-8.4-13.2-38.2,7.4-39.3,9.5-.5,18.9,4.3,18.9,14.7l-21.9,6.9c-2.6,1.1,2.2,5.1,3.4,5.9,4.5,3,11.2,2.9,16.1,1.1,1-.4,1.5-1.4,2.6-1.3ZM541.2,32.5c1.1-11.2-10.7-10.6-10.4,0h10.4Z"/>
    <path class="st0" d="M513.4,32.4l-22.9,6.9c4,8.7,16,9.8,23.5,5.2-1.1,11.5-11.5,14.8-21.7,13.6-19.3-2.3-21.7-31.8-4.5-39,10.6-4.5,26.6-.1,25.6,13.3ZM499.9,32.5c1.5-5.4-4.8-11.8-8.9-6.4-.7.9-2.5,5.6-1.3,6.4h10.2Z"/>
    <path class="st0" d="M506.3,92.2c9.8-1.3,20.4,3,20.4,14.1l-1.1,1-21.8,6.9c3.4,6.8,12.1,8.5,18.9,6.9,1.1-.3,2.2-1,3.3-1.5.5-.2,1.1-.8,1.3.3.2,1.3-2.1,5.8-3,6.9-5.3,6.6-15.2,7.5-22.7,4.7-18.3-6.7-15.3-36.9,4.7-39.4h0ZM503.6,107.7h8.9l.7-.9c.5-3.5-.7-7.9-4.9-7.9-5.4,0-6.8,8.2-4.7,8.8h0Z"/>
    <path class="st0" d="M197,92.2c31.3-4.2,24.8,37.3,2.4,40.5-31.1,4.5-25.4-37.4-2.4-40.5ZM200.7,97.4c-4.4.4-7.8,5.4-9.1,9.2-1.9,5.5-4.8,23.3,6,20.1,7.5-2.2,10.6-19,8.3-25.4-.7-1.9-3-4.1-5.2-4Z"/>
    <path class="st0" d="M170,92.6h10.2c1.3,0,.2,5.8-.8,6.5l-11,.6-9.6,46.2h-9.4c-.4,0-1-1.2-.8-1.8l8.9-44c0-1.9-4,.1-5-1.3l.8-6,5.8-.3c.5-5.6,3.4-12.6,8.9-14.9,5.5-2.3,13.2-1.7,14.6,5.2-.6,1-.9.5-1.4.4-1.5,0-3-.4-4.5-.1-4,.6-7.1,5.5-6.6,9.4h0Z"/>
    <path class="st0" d="M402.5,76.9v55.4h-14.6v-53.8c4.9-.5,9.7-1.5,14.6-1.6Z"/>
    <path class="st0" d="M472,92.1v9.4c1.5.3.8-.4,1.2-1.1,2.9-6,6.5-8.6,13.4-8.3v13.6h-13.8l-.8.8v25.9h-14.6v-38.7l14.6-1.6h0Z"/>
    <path class="st0" d="M364.9,94.4c.2-.8,3-1.1,4-1.2,2.7-.4,6.8-1,9.4-1.1.6,0,1.8.2,1.8.8v38.7l-.8.8h-13.6l-.8-.8v-37.1h0Z"/>
    <polygon class="st0" points="395.9 58.1 395.9 18.9 409.4 17.4 410.6 18.1 410.6 57.3 409.8 58.1 395.9 58.1"/>
    <path class="st0" d="M221.2,131.8l7-38.2,10.7-1.5-.8,7.8c3.5-5,8.6-8.4,14.9-7.8.4.5-2.1,11.3-2.1,11.3l-14.1.2c0,.9,0,1.8-.1,2.7-1.5,7.2-5.4,25.6-5.4,25.6h-10c0,0,0,0,0,0Z"/>
    <path class="st0" d="M594.6,106.5c-4.4,4.4-13.1,3.3-15.9-2.3-6.1-12.6,12.1-20.4,17.6-9.3,1.8,3.5,1,8.8-1.8,11.6ZM591.7,105.1c6.6-5.7.4-16.3-7.8-12l5.9.6c5.6,2.5,1,5.4.9,7.5,0,1.2,1.5,2.4,1.1,3.9ZM583.3,94.1c-.9-.2-1.1.2-1.5.9-1.9,2.7-1.4,8,1.2,10.1,1.6.1.3-.6.3-.8v-10.2h0ZM585.9,96.2c-.4,5.6,6.2.7,2.3,0-.7-.1-1.6,0-2.3,0ZM590.6,106.2c-1.3-.6-2.9-5.4-3.9-5.2-1,.2-.6,4.4-2.4,5.2,2.2.7,4.1.7,6.3,0h0Z"/>
    <polygon class="st0" points="410.6 3.8 410.6 13.7 396.2 13.7 395.4 12.9 395.4 4.5 396.2 3.8 410.6 3.8"/>
    <rect class="st0" x="364.9" y="78.5" width="15.2" height="9.4"/>
    <path class="st0" d="M135.4,58.1h-28.1c-8.5-31.9-49-41.1-70.5-15.6-15.9,18.9-10.4,48.7,10.8,60.9,23.4,13.6,52.9,1.1,59.7-24.8h27.3c.3,0,.7.7.7,1.2.2,2.4-3.3,12.5-4.4,15.2-16.9,40.6-69.1,55-104.1,27.7C-7.5,96-9.2,45,23.8,16.4c40.5-35.1,104.1-10.7,111.6,41.6Z"/>
    <path class="st0" d="M60.8,63.3c-3.1-17.1,15.7-23,22.4-6,2.4,6.1,2.8,14.8,2.3,21.4-.7,7.6-2.2,8.4-9.3,9.3-6,.8-14.2.3-20-1.6-17.7-5.8-13.9-25.7,4.7-23.1Z"/>
  </g>
</svg>