<?xml version="1.0" encoding="UTF-8"?><svg id="a" xmlns="http://www.w3.org/2000/svg" width="4.28in" height=".818in" xmlns:xlink="http://www.w3.org/1999/xlink" viewBox="0 0 308.131 58.913"><defs><radialGradient id="b" cx="29.943" cy="228.384" fx="29.943" fy="228.384" r="20.371" gradientTransform="translate(0 258.072) scale(1 -1)" gradientUnits="userSpaceOnUse"><stop offset="0" stop-color="#a1c9de"/><stop offset=".782" stop-color="#0084c5"/></radialGradient></defs><path d="M274.041,16.215c4.062,0,7.814,3.059,7.814,6.735,0,4.634-4.799,5.763-4.799,5.763,0,0,5.905,1.64,5.905,6.946,0,4.002-3.814,7.536-7.601,7.536h-15.452v-26.981h14.133ZM265.588,27.328h7.557c2.052,0,2.96-1.516,2.96-3.287s-1.359-3.017-3.199-3.017h-7.317v6.305ZM273.505,31.81h-7.917v6.555h7.617c2.673,0,3.728-1.576,3.728-3.224,0-2.11-1.554-3.332-3.428-3.332Z" fill="#027ab3"/><polygon points="104.037 16.215 104.037 27.016 116.549 27.016 116.549 16.215 122.373 16.215 122.373 43.195 116.549 43.195 116.549 32.109 104.037 32.109 104.037 43.195 98.358 43.195 98.358 16.215 104.037 16.215" fill="#027ab3"/><polygon points="185.591 16.215 185.591 28.997 197.129 16.215 203.989 16.215 193.605 27.773 204.588 43.195 197.738 43.195 189.655 31.754 185.591 36.445 185.591 43.195 179.767 43.195 179.767 16.215 185.591 16.215" fill="#027ab3"/><path d="M125.634,43.195l11.805-26.981h6.033l11.823,26.981h-6.231l-1.764-4.985h-13.369l-2.216,4.985h-6.082ZM136.252,33.008h8.618l-4.324-10.694-4.294,10.694Z" fill="#027ab3"/><path d="M227.302,43.195l11.805-26.981h6.033l11.823,26.981h-6.231l-1.764-4.985h-13.369l-2.216,4.985h-6.082ZM237.92,33.008h8.618l-4.324-10.694-4.294,10.694Z" fill="#027ab3"/><path d="M305.256,23.337s-3.607-2.373-7.593-2.373c-2.326,0-4.207.907-4.229,2.678-.028,2.168,3.921,2.806,7.735,4.314,4.194,1.658,6.962,4.277,6.962,7.641,0,4.446-4.056,7.801-10.837,7.801-5.726,0-11.452-4.299-11.452-4.299l2.569-4.168s4.696,3.54,8.918,3.54c2.724,0,4.746-1.307,4.746-2.874,0-2.674-5.182-3.412-7.473-4.38-4.467-1.886-6.881-3.589-6.881-7.575,0-4.995,4.902-7.585,9.942-7.585s10.236,3.307,10.236,3.307l-2.643,3.974Z" fill="#027ab3"/><path d="M83.151,38.12c4.631,0,7.295-3.189,7.295-3.189l3.504,3.913s-3.375,4.52-10.8,4.52c-7.288,0-13.976-4.973-13.976-13.675s6.183-13.674,14.104-13.674c6.981,0,10.645,4.42,10.645,4.42l-3.332,3.924s-3.193-3.341-7.313-3.341c-3.31,0-8.19,2.203-8.19,8.671,0,7.018,5.814,8.431,8.062,8.431Z" fill="#027ab3"/><polygon points="163.996 16.215 163.996 38.102 176.063 38.102 176.063 43.195 158.316 43.195 158.316 16.215 163.996 16.215" fill="#027ab3"/><polygon points="214.306 16.215 214.306 38.102 226.373 38.102 226.373 43.195 208.626 43.195 208.626 16.215 214.306 16.215" fill="#027ab3"/><path d="M41.78,14.723c-3.132,0-5.939,1.383-7.85,3.569-1.37-.526-2.858-.818-4.413-.818-1.577,0-3.084.3-4.471.84-1.577-2.615-4.446-4.365-7.723-4.365-4.978,0-9.013,4.035-9.013,9.013s4.035,9.013,9.013,9.013c.024,0,.047-.002.071-.002.14.78.352,1.535.63,2.256-1.481,1.8-2.37,4.105-2.37,6.618,0,5.758,4.668,10.425,10.425,10.425s10.425-4.668,10.425-10.425c0-.298-.015-.592-.04-.883,1.666-1.141,3.036-2.68,3.976-4.48.439.056.885.088,1.339.088,5.758,0,10.425-4.668,10.425-10.425s-4.667-10.425-10.425-10.425Z" fill="url(#b)"/><path d="M43.271,19.024c-2.631,0-4.765,2.134-4.765,4.765,0,.441.064.866.177,1.271l-2.1.848c-1.297-2.562-3.954-4.321-7.023-4.321-2.854,0-5.352,1.519-6.732,3.793l-4.678-2.53c.098-.295.153-.61.153-.938,0-1.642-1.331-2.974-2.974-2.974s-2.974,1.331-2.974,2.974,1.331,2.974,2.974,2.974c.853,0,1.619-.361,2.161-.936l4.766,2.577c-.364.906-.565,1.893-.565,2.929,0,3.161,1.865,5.885,4.553,7.136l-1.076,3.366c-.172-.025-.347-.043-.526-.043-1.981,0-3.586,1.606-3.586,3.586s1.606,3.586,3.586,3.586,3.586-1.606,3.586-3.586c0-1.349-.746-2.523-1.846-3.135l1.065-3.332c.673.187,1.381.289,2.113.289,4.346,0,7.869-3.523,7.869-7.869,0-.823-.127-1.617-.362-2.363l2.121-.856c.833,1.386,2.347,2.316,4.082,2.316,2.631,0,4.765-2.133,4.765-4.765s-2.133-4.765-4.765-4.765h0Z" fill="#fff"/><path d="M29.457,58.913C13.214,58.913,0,45.699,0,29.457S13.214,0,29.457,0s29.457,13.214,29.457,29.457-13.214,29.457-29.457,29.457ZM29.457,2.188C14.42,2.188,2.188,14.42,2.188,29.457s12.233,27.269,27.269,27.269,27.269-12.233,27.269-27.269S44.493,2.188,29.457,2.188Z" fill="#027ab3"/></svg>