<?xml version="1.0" encoding="UTF-8"?><svg id="a" xmlns="http://www.w3.org/2000/svg" width="6.32in" height="1.56in" viewBox="0 0 454.7 112.52"><g id="b"><g id="c"><path d="M443.64,90.06c-.75-.29-.93-.4-.93-3.62V14.19c0-13.51-8.97-14.19-10.71-14.19-2.8.14-5.52.99-7.9,2.46l-28.7,15.34c-2.53,1.43-7.78,4.41-7.78,10.91s5.43,11.43,12.93,11.48c1.08,0,4.35.05,4.78.66s.2,34.75.2,34.75c0,2.41,0,4.59-.12,6.71-.07,3.04-2.39,5.56-5.41,5.89,0,0-10.42,2-11.87,2-3.26-.04-5.9-2.64-6-5.9,0,0-.05-11.51-.18-15.74-.37-13.7-11.75-24.51-25.45-24.16-3.94.03-7.81,1-11.29,2.84-1.8-2.1-4.45-3.28-7.21-3.24-2,0-3.08.41-5.36,1.62s-16.36,8.81-16.36,8.81c-.95.48-1.82,1.08-2.61,1.79-3.78-4.75-8.71-8.45-14.32-10.77-4.23-1.74-8.77-2.63-13.35-2.61-11.63,0-22.57,5.52-29.47,14.89v-30.73c0-6.37-4.29-11-10-11-1.63.12-3.21.58-4.65,1.34l-15.22,7.1c-4.66,2.18-7,5.46-7,9.75-.19,4.25,2.81,7.97,7,8.69v1.82c-2.67-.67-5.42-1.01-8.17-1-1.23,0-2.47.08-3.69.22-10.05,1.31-18.97,7.07-24.31,15.68-.06-10.07,0-28.19,0-29.92s.11-9.38-5.6-12c-2.86-1.26-6.15-1.08-8.85.49-1.72.95-10.42,5.92-15.25,8.65s-7.38,5.77-7.38,10.2c0,3.11,1.31,7.12,7.27,8.91v12.07c-7.03-9.96-18.5-15.82-30.68-15.69-8.1-.03-16,2.54-22.53,7.34-1.15.74-2.48,1.14-3.84,1.15-2.76-.02-5.27-1.63-6.43-4.14l-10-24.45c-1.89-5.6-6-8.94-10.93-8.94-2.92.09-5.67,1.37-7.61,3.55,0,0-10.63-1.2-14.77-1.2-13.2.1-25.98,4.65-36.27,12.92C6.26,37.76,0,50.43,0,64.2c0,16.25,8,30.8,21.37,38.93,13.65,8.34,30.23,9.39,43.14,9.39h375.79c10.62,0,14.4-6.14,14.4-11.85,0-7.85-7.21-9.8-11.06-10.61h0Z" fill="#231f20"/><path d="M88.58,62.83h-19c-3.24,0-6.73-.2-6.73,3.89,0,6,6.73.8,6.73,10,0,2.23.13,5.6.13,7.46,0,5.83-1.09,9.8-9.62,9.8-17.58.02-29.36-13.29-29.36-31.28,0-15.62,8.77-29.51,25-29.51,15.17,0,26.48,14.81,30.33,14.81,1.51.02,2.75-1.19,2.77-2.71,0-.1,0-.2-.01-.29-.14-1.15-.42-2.29-.82-3.38l-7-17.12c-.71-2.23-2.16-4.58-4.68-4.58s-3.61,3.6-5.9,3.6c-5.41,0-11.07-1.25-16.48-1.25-22.61,0-47.27,16.5-47.27,41.92,0,13.64,6.73,26.3,18.16,33.24,11.79,7.19,26.22,8.44,39.69,8.44h20.94c1.63,0,3.04-1.15,3.36-2.75.05-.52.05-1.05,0-1.57v-25c0-3.1,0-5.83,3.25-6.57,2.29-.62,3.49-1.41,3.49-3.77-.24-3.95-3.85-3.38-6.98-3.38h0ZM184.49,95.84c-.74-4.71-.74-67.89-.74-67.89l-.36-2.37c-.34-1-1-2.06-2.22-2.06-.79.19-1.57.44-2.32.74l-14.6,8.31c-1.84.86-4.17,2.1-4.17,4.46,0,3.84,5.89,1.59,6.74,5.18.46,1.66.67,3.37.62,5.09v40.49c0,16.37-7.61,9.22-7.61,15.3.25,3.11,3.31,2.78,5.89,2.78h19.62c2.46,0,5.9.2,5.9-3,0-3.62-5.77-3.18-6.75-7.03h0Z" fill="#ffce34"/><path d="M160.34,77.11c-.04-1.09-.13-2.19-.29-3.27-1.65-11.33-10.16-20.48-21.33-23.67-3.12-.88-6.35-1.29-9.59-1.2-16.8.45-30.07,13.78-29.65,29.77.13,4.89,1.55,9.65,4.12,13.81,5.31,8.47,14.42,13.8,24.4,14.28.88,0,1.76.07,2.66,0,16.83-.4,30.11-13.73,29.68-29.72ZM139.52,92.25c-2.58,5.22-7.65,8.53-13.25,5.76-11.65-5.78-10.47-26.36-5.08-36.72,2.35-4.51,7.7-7.8,12.54-5.4,10.33,5.11,10.27,27.36,5.79,36.36h0ZM253.63,99.61c-3.93-2-3.56-10.49-3.68-14.21s-.11-43.93-.11-43.93c0-5.33-.14-9.15-.14-14.49,0-2.1-.85-4.34-3.18-4.34-.84.28-1.66.61-2.45,1l-14.6,6.82c-1.59.74-3.19,1.73-3.19,3.71,0,4.72,6.38-1,7,8.41v11.87c-4.52-2.59-9.62-4.01-14.83-4.15-.98,0-1.95.06-2.92.17-14.32,1.69-24.53,15.66-24.53,29.85,0,15.25,8.46,26.53,24,26.53,7.74,0,13.13-3.47,18.41-8.55v3.48c0,2.35.24,4.7,2.45,4.83h17.66c2.32,0,3.68-1.16,3.68-3.39-.26-2.12-1.97-2.86-3.57-3.61ZM233.27,80.08c0,6.33-3.33,13.73-9.69,14.63s-9.48-1.08-12.13-4.37c-3.61-4.47-4.29-11.43-4-17,.28-7.34,4.36-15.34,12.45-15.34,11,0,13.37,11.54,13.37,20.47v1.61ZM313.05,69.14c-2.49-7.99-8.45-14.42-16.22-17.52-13.93-5.81-31.74.6-37.71,14.91-6.59,15.8.52,31.26,15.8,37.63,8.38,3.54,17.68,4.26,26.51,2.06,2.65-.91,7.23-2.36,8.47-5.33.56-1.53-.21-3.23-1.73-3.82-2.09-.73-11.5,5.28-20.78,1.41-7-2.93-10.78-9.2-10.83-16.74l28.92-.2c2.21.12,7.67-.05,8.2-1.3.95-2.3-.32-9.63-.63-11.1h0ZM296.76,72c-.05.11-.35.52-.4.64-.94,1-2.87.81-4,.89l-12.36-.09c-.67.06-1.35,0-2-.19-2.82-1.18.08-10,.84-11.88,1.86-4.46,6.79-7.65,11.54-5.67s8.38,11.45,6.38,16.3ZM406.4,105.87c-3.64,0-8,.07-8-4.44,0-6.93,11.24-4.44,12.76-10.92,1.21-4.81,1.21-10.08,1.21-14.89v-31.62c0-9.64-2.12-10.17-11.54-10.47-3,0-6.38-1.35-6.38-4.82,0-3,3-4.29,5.32-5.64l27.59-14.74c1.41-.93,3.03-1.5,4.72-1.66,3.48,0,4.09,4.37,4.09,7.53v72.25c0,4.67.61,8.13,5.47,9.93,2.88.91,6.23.83,6.53,4.3,0,4.36-3.79,5.19-7.75,5.19h-34.02ZM356.51,51.05c12.57,0,18.56,9.71,18.81,17.71.25,8,.1,20.83.3,24.75s1.9,4.47,5.23,6.48c1.13.57,1.84,1.73,1.83,3,0,2.85-2.57,2.91-4.9,2.91h-21.84c-1.95,0-4.4-.18-4.4-2.66,0-4.09,6.49-3.27,6.49-8.11,0-1.12,0-17.36.08-21.48.11-5.46-3.31-11.66-8.83-11.66-6.37,0-8.3,7.82-8.3,12.65v9.45c-.06,4.01.18,8.03.74,12,.85,3.48,6.25,3.4,6.25,7.12,0,2.86-3.31,2.66-5.52,2.66h-19.45c-2.08,0-5.39.2-5.39-2.66,0-4.58,7.11-.59,7.11-15.11,0-3.84-.12-10.71-.12-14.55,0-10.18-7.37-6.21-7.37-10.55,0-1.25,1.24-2.16,2.22-2.65l17.49-9.3c.35-.21.74-.34,1.15-.38,2.31,0,2.94,2,2.94,4v4.54c3.54-4.42,9.11-8.16,15.48-8.16h0Z" fill="#ffce34"/></g></g></svg>