<?xml version="1.0" encoding="UTF-8"?>
<svg id="a" xmlns="http://www.w3.org/2000/svg" version="1.1" viewBox="0 0 719.4 102.9">
  <!-- Generator: Adobe Illustrator 29.0.1, SVG Export Plug-In . SVG Version: 2.1.0 Build 192)  -->
  <defs>
    <style>
      .st0 {
        fill: #f26822;
      }
    </style>
  </defs>
  <g id="b">
    <g id="c">
      <path id="d" class="st0" d="M309.3,13.1v86.5h26.2V13.1c0-7.2-6-13.1-13.2-13.1s-13,5.9-13,13.1ZM76.5,4.6c-2.7,2.6-4.3,6.4-4.3,10.3s1.7,7.6,4.3,10.3l3.2,3.3c5.3,5.5,5.6,6.8.6,11.9l-2.9,2.9c-2.4,2.5-3.8,5.7-3.8,9.3v47h26.4v-47c0-3.6-1.5-6.9-3.8-9.3l-2.9-2.9c-5.1-5.2-4.7-6.4.6-11.9l3.2-3.3c2.6-2.7,4.3-6.2,4.3-10.3s-1.6-7.7-4.3-10.3c-2.7-2.6-6.2-4.2-10.3-4.2s-7.6,1.6-10.3,4.2h0ZM226.4,32.9c-4.7-.2-9.4,2.1-11.8,6.4l-11.9,21.2v-14.2c0-7.2-5.9-13.1-13-13.1s-13,5.9-13,13.1v53.2h26.2v-20.7l13.8,20.7h21.1c2.4,0,4.3-2,4.3-4.6s-.2-1.7-.6-2.4l-14.3-21.7,10-18.1c3.5-6.3,1.6-14.3-4.6-18-2-1.1-4.1-1.8-6.2-1.9h0ZM10.2,43.8C4,50,0,58.6,0,68.1v31.5h26.2v-30.9c0-3.8.9-7.1,2.4-9.5,1.5-2.5,3.5-3.9,5.9-3.9s4.3,1.5,5.9,3.9c1.6,2.4,2.4,5.7,2.4,9.5v30.9h26.2v-31.5c0-9.5-3.9-18.2-10.2-24.5-6.1-6.1-14.8-10-24.3-10s-18.2,4-24.3,10.1h0ZM138.1,33.6c-9.5,0-18.3,3.9-24.5,10.1s-10.1,15-10,24.5c0,9.5,3.8,18.3,10,24.5,4.8,4.7,13,10.1,24.5,10.1s16.3-3.1,22.4-8.3c4.4-3.8,10.8-11.3,12.1-23h-26.4c-.3,2.9-1.1,5.6-2.2,7.7-1.6,2.9-3.5,4.6-5.9,4.6s-4.3-1.6-5.9-4.6c-1.6-2.9-2.4-6.7-2.4-10.9s.9-8.2,2.4-10.9c1.6-3,3.5-4.6,5.9-4.6s4.3,1.6,5.9,4.6c1.1,2.1,1.9,4.7,2.2,7.7h26.2c-.8-8.2-4.4-15.7-10-21.2-6.2-6.2-14.9-10.1-24.3-10.1h0ZM636.6,43.6c-6.2,6.2-10,14.9-10,24.5v31.5h26v-31c0-3.8.9-7.1,2.4-9.5,1.5-2.5,3.5-3.9,5.9-3.9s4.3,1.5,5.9,3.9c1.6,2.4,2.4,5.7,2.4,9.5v31h26.4v-31.7c0-9.5-3.9-18.2-10.2-24.5-6.2-6.2-14.9-10-24.3-10s-18.1,3.9-24.5,10.1h0ZM272.9,33.5c-9.5,0-18.1,3.9-24.5,10.1-6.2,6.2-10.2,15-10.2,24.5s3.8,18.2,10.2,24.5c6.1,6,14.6,10.1,24.6,10.1s19-4.3,24.5-10.3c7.4-8.1,7.6-17.1,7.6-17.1h-23.3s-3.2,8.2-8.7,8.2-4.3-1.6-5.9-4.6c-1.1-2-1.7-4.4-2.2-7h40.6s2.9-16.7-8.3-27.9c-6.6-6.6-14.9-10.4-24.5-10.4h0ZM280.4,61.7l-15.1.2c.5-2,1.1-3.8,1.7-5.2,1.1-2.5,3.5-4.6,5.9-4.6s4.3,1.6,5.9,4.6c.7,1.3,1.3,3.4,1.6,5.1h0ZM517.8,33.5c-9.5,0-18.1,3.9-24.3,10.1-6.2,6.2-10.2,15-10.2,24.5s4,18.3,10.2,24.5c6,6,14.6,10.1,24.6,10.1s19-4.3,24.5-10.3c7.4-8.1,7.6-17.1,7.6-17.1h-23.3s-3.2,8.2-8.7,8.2-4.3-1.6-5.9-4.6c-1.1-2-1.7-4.4-2.2-7h40.7s2.9-16.7-8.3-27.9c-6.6-6.6-14.9-10.4-24.6-10.4h0ZM525.6,61.7l-15.2.2c.5-2,1-3.8,1.7-5.2,1.2-2.5,3.5-4.6,5.9-4.6s4.2,1.7,5.9,4.6c.7,1.3,1.4,3.4,1.7,5.1h0ZM373.5,33.6c-19.1,0-34.5,15.5-34.5,34.6s15.4,34.6,34.5,34.6,34.5-15.5,34.5-34.6-15.4-34.6-34.5-34.6ZM373.5,52.8c4.6,0,8.3,7,8.3,15.5s-3.7,15.5-8.3,15.5-8.3-7-8.3-15.5,3.7-15.5,8.3-15.5ZM454,13.1v21.4c-2.7-.7-5.6-1-8.3-1-9.5,0-18.1,3.9-24.5,10.1-6.2,6.2-10,15-10,24.5s3.9,18.3,10,24.5c3.9,4,12.5,10.1,24.5,10.1s20.5-6.2,24.5-10.1c6.1-6.2,9.8-14.9,9.8-24.5V13.1c0-7.2-5.9-13.1-13-13.1s-13,5.9-13,13.1h0ZM445.5,52.8c4.6,0,8.2,7,8.3,15.5,0,8.5-3.7,15.5-8.3,15.5s-8.3-7-8.3-15.5,3.8-15.5,8.3-15.5ZM588.8,33.6c-19.1,0-34.5,15.5-34.5,34.6s15.4,34.6,34.5,34.6,34.5-15.5,34.5-34.6-15.4-34.6-34.5-34.6ZM588.8,52.8c4.6,0,8.3,7,8.3,15.5s-3.7,15.5-8.3,15.5-8.3-7-8.3-15.5,3.7-15.5,8.3-15.5Z"/>
    </g>
  </g>
</svg>