<?xml version="1.0" encoding="UTF-8"?><svg id="a" xmlns="http://www.w3.org/2000/svg" width="19.59in" height="5.538in" viewBox="0 0 1410.478 398.755"><path d="M535.411,324.737c9.165,0,16.933-6.527,22.991-17.715,4.816-9.324,7.767-19.58,8.699-29.992h102.374c-3.107,34.964-20.04,67.132-46.76,89.664-53.439,45.376-132.822,42.268-182.533-7.304-52.507-52.369-52.507-137.371-.155-189.896l.155-.155c25.322-25.174,59.498-39.316,95.228-39.316,69.44,0,127.385,52.68,134.065,121.676h-102.374c-1.087-10.567-4.039-20.668-8.855-30.147-6.059-11.189-13.826-17.715-22.836-17.715-9.165,0-16.933,6.527-22.991,17.715-5.903,11.189-9.476,25.796-9.476,42.734,0,17.094,3.573,31.546,9.476,42.734,6.214,11.033,13.981,17.715,22.991,17.715h0Z" fill="#ff6700"/><path d="M39.402,169.029c25.322-25.174,59.498-39.316,95.228-39.316s69.906,14.141,95.228,39.316c25.322,25.174,39.558,59.362,39.558,95.103v122.764h-102.218v-120.344c0-14.763-3.673-27.449-9.576-37.084-6.059-9.635-13.826-15.329-22.991-15.484-9.165,0-16.933,5.85-22.991,15.484-5.903,9.79-9.376,22.077-9.376,36.684v120.744H0v-122.764c0-36.985,15.168-71.017,39.402-95.103Z" fill="#ff6700"/><path d="M379.034,92.635c8.012-9.769,12.837-22.253,12.837-35.914,0-15.695-6.369-29.836-16.622-40.093C364.53,5.906,350.083,0,335.014,0c-31.225-.155-56.702,25.174-56.857,56.409v.311c0,15.695,6.369,29.936,16.622,40.192l12.583,12.587c20.972,20.979,22.37,26.218,2.486,46.109l-11.34,11.344c-9.787,9.635-15.363,22.943-15.208,36.618v183.324h103.445v-183.324c0-13.675-5.437-26.884-15.069-36.518l-11.496-11.444c-18.938-18.945-18.571-24.83-.375-43.338,2.932-2.957,5.783-5.995,8.727-8.94,3.509-3.561,7.29-6.858,10.501-10.697Z" fill="#ff6700"/><path d="M939.913,369.226c0-3.263-.932-6.627-2.641-9.424l-56.025-84.436,38.882-70.34c14.102-23.92,6.214-55.477-18.02-69.773h-.155c-24.39-14.297-55.614-6.216-70.062,18.026l-46.194,82.516-.1-55.011c-.051-28.127-22.991-50.97-51.109-50.97-28.273,0-51.109,22.843-51.109,50.97v206.212h102.318l-.1-80.807,53.906,80.752h82.389c9.942,0,18.02-7.925,18.02-17.715h0Z" fill="#ff6700"/><path d="M1103.774,12.897c-28.038,0-50.625,22.527-50.625,50.492s22.587,50.492,50.625,50.492,50.625-22.527,50.625-50.492-22.587-50.492-50.625-50.492h0ZM1103.821,129.762c-16.665,0-30.891,7.6-40.262,21.094-6.89,9.922-10.994,23.029-10.994,38.645v123.936c0,16.681-9.707,19.006-12.838.777-1.691-9.844-5.42-17.722-10.301-23.658-8.396-10.211-20.397-14.877-32.721-15.357-18.346-.715-37.161,8.069-45.684,22.533-5.45,9.249-7.772,18.362-7.633,27.096.156,9.752,3.245,18.944,8.521,27.355,3.276,5.222,7.216,9.826,11.217,13.764,9.776,9.621,18.78,14.614,21.236,15.965,4.257,2.341,8.993,4.443,14.096,6.277,14.993,5.39,33.148,8.463,51.578,8.463,34.679,0,58.463-8.106,75.225-22.805,11.496-10.081,20.323-24.429,24.822-41.506,3.608-13.693,4.418-23.18,4.461-37.129l.086-28.154.256-27.918-.088-58.561c-.042-27.93-22.577-50.816-50.979-50.816Z" fill="#1cbac9"/><path d="M1272.8,386.995v-137.101c0-5.276,1.765-13.219,5.806-19.98,3.259-5.453,7.442-10.044,14.485-12.033,5.277-1.49,10.37-.807,15.705.549,5.338,1.357,10.811,3.621,16.702,5.847,42.562,16.081,75.749-5.085,80.851-32.964,5.033-27.504-13.309-54.24-40.989-59.255-17.462-3.164-31.55-2.234-46.195,2.717-13.476,4.556-26.022,12.429-39.756,22.945-3.138,2.403-6.048,5.093-8.966,7.746-6.627-20.526-25.717-35.631-48.728-35.631-19.369,0-36.016,10.586-44.682,26.139-4.066,7.298-6.465,15.775-6.507,24.678l-.077,5.702v200.642h102.35Z" fill="#1cbac9"/><path d="M1410.478,339.365c0-27.935-22.577-50.438-50.604-50.438s-50.604,22.503-50.604,50.438,22.577,50.438,50.604,50.438,50.604-22.503,50.604-50.438Z" fill="#1cbac9"/></svg>