<?xml version="1.0" encoding="UTF-8"?><svg id="a" xmlns="http://www.w3.org/2000/svg" width="9.992in" height="1.429in" viewBox="0 0 719.406 102.855"><g id="b"><g id="c"><path id="d" d="M309.304,13.061v86.529h26.199V13.061C335.503,5.875,329.468,0,322.323,0c-7.304,0-13.019,5.878-13.019,13.061ZM76.531,4.572c-2.699,2.612-4.286,6.366-4.286,10.284,0,4.082,1.667,7.594,4.286,10.287l3.176,3.265c5.317,5.468,5.633,6.773.636,11.917l-2.857,2.94c-2.381,2.45-3.811,5.713-3.811,9.305v47.021h26.357v-47.021c0-3.592-1.511-6.937-3.811-9.305l-2.856-2.94c-5.078-5.227-4.684-6.449.633-11.917l3.176-3.265c2.619-2.693,4.289-6.205,4.289-10.287s-1.589-7.672-4.289-10.284c-2.699-2.612-6.192-4.247-10.321-4.247-3.969,0-7.621,1.635-10.321,4.247ZM226.442,32.921c-4.65-.176-9.351,2.108-11.773,6.424l-11.908,21.224v-14.203c0-7.183-5.874-13.061-13.019-13.061-7.304,0-13.019,5.877-13.019,13.061v53.223h26.199v-20.733l13.813,20.733h21.119c2.394,0,4.286-1.96,4.286-4.572,0-.817-.154-1.717-.636-2.449l-14.29-21.712,10.004-18.122c3.479-6.302,1.57-14.338-4.605-17.959-1.952-1.145-4.057-1.774-6.17-1.855h0ZM10.162,43.755C4.01,49.998,0,58.609,0,68.079v31.51h26.199v-30.857c0-3.755.895-7.053,2.382-9.468,1.531-2.485,3.492-3.919,5.874-3.919s4.289,1.47,5.876,3.919c1.588,2.449,2.382,5.713,2.382,9.468v30.857h26.199v-31.51c0-9.469-3.89-18.205-10.162-24.489-6.114-6.125-14.768-9.958-24.294-9.958-9.527,0-18.218,3.959-24.292,10.124h0ZM138.138,33.631c-9.527,0-18.26,3.92-24.453,10.124s-10.081,15.019-10.002,24.489c.079,9.469,3.799,18.296,10.002,24.489,4.753,4.745,13.02,10.121,24.453,10.121,8.415,0,16.327-3.133,22.387-8.326,4.419-3.787,10.797-11.265,12.067-23.019h-26.357c-.318,2.939-1.096,5.558-2.223,7.672-1.572,2.947-3.492,4.572-5.874,4.572s-4.286-1.634-5.874-4.572c-1.588-2.939-2.382-6.693-2.382-10.938s.924-8.18,2.382-10.94c1.559-2.954,3.492-4.57,5.874-4.57s4.302,1.623,5.874,4.57c1.128,2.114,1.906,4.736,2.223,7.675h26.199c-.794-8.163-4.449-15.669-10.002-21.224-6.197-6.2-14.926-10.124-24.294-10.124ZM636.549,43.592c-6.232,6.164-10.004,14.857-10.004,24.489v31.508h26.04v-31.02c0-3.755.895-7.054,2.382-9.468,1.53-2.485,3.492-3.919,5.874-3.919s4.289,1.47,5.876,3.919c1.588,2.449,2.382,5.713,2.382,9.468v31.02h26.357v-31.673c0-9.469-3.85-18.246-10.162-24.489-6.232-6.164-14.924-9.958-24.292-9.958-9.527,0-18.141,3.88-24.453,10.124h0ZM272.943,33.468c-9.527,0-18.141,3.877-24.453,10.121-6.232,6.164-10.162,15.02-10.162,24.489s3.849,18.247,10.162,24.489c6.071,6.003,14.608,10.124,24.611,10.124,10.162,0,18.993-4.327,24.453-10.287,7.411-8.091,7.62-17.142,7.62-17.142h-23.34s-3.176,8.163-8.733,8.163c-2.382,0-4.262-1.644-5.874-4.57-1.087-1.973-1.747-4.409-2.223-7.021h40.647s2.931-16.723-8.256-27.917c-6.598-6.602-14.926-10.449-24.453-10.449h0ZM280.405,61.714l-15.084.162c.476-1.959,1.094-3.764,1.746-5.226,1.095-2.456,3.495-4.57,5.876-4.57,2.382,0,4.324,1.61,5.874,4.57.674,1.287,1.27,3.431,1.588,5.064h0ZM517.78,33.469c-9.527,0-18.099,3.917-24.292,10.121-6.193,6.204-10.162,15.02-10.162,24.489s3.969,18.286,10.162,24.489c6.033,6.042,14.608,10.124,24.611,10.124,10.321,0,18.991-4.327,24.45-10.286,7.411-8.091,7.623-17.143,7.623-17.143h-23.34s-3.176,8.163-8.733,8.163c-2.382,0-4.264-1.644-5.876-4.57-1.087-1.973-1.747-4.409-2.224-7.021h40.65s2.928-16.723-8.258-27.917c-6.598-6.602-14.925-10.449-24.611-10.449ZM525.561,61.714l-15.242.162c.476-1.959,1.046-3.786,1.746-5.226,1.207-2.481,3.492-4.57,5.874-4.57,2.382,0,4.242,1.656,5.876,4.57.748,1.333,1.428,3.431,1.746,5.064ZM373.449,33.632c-19.054,0-34.454,15.511-34.454,34.613s15.401,34.61,34.454,34.61,34.457-15.509,34.457-34.61-15.403-34.613-34.457-34.613ZM373.449,52.735c4.605,0,8.258,7.02,8.258,15.51s-3.653,15.51-8.258,15.51-8.256-7.02-8.256-15.51c0-8.653,3.651-15.51,8.256-15.51ZM453.952,13.061v21.387c-2.699-.653-5.559-.979-8.258-.979-9.527,0-18.138,3.877-24.45,10.121-6.232,6.164-10.004,15.02-10.004,24.489s3.921,18.334,10.004,24.489c3.921,3.967,12.542,10.124,24.45,10.124s20.532-6.157,24.452-10.124c6.083-6.155,9.846-14.857,9.846-24.489V13.061C479.992,5.877,474.116,0,466.971,0c-7.304,0-13.019,5.878-13.019,13.061h0ZM445.535,52.735c4.605,0,8.179,7.021,8.258,15.51.079,8.491-3.653,15.51-8.258,15.51s-8.255-7.02-8.255-15.51c0-8.653,3.81-15.51,8.255-15.51ZM588.756,33.632c-19.053,0-34.457,15.511-34.457,34.613s15.403,34.61,34.457,34.61,34.454-15.509,34.454-34.61c0-19.265-15.401-34.613-34.454-34.613ZM588.756,52.735c4.605,0,8.256,7.02,8.256,15.51s-3.651,15.51-8.256,15.51-8.258-7.02-8.258-15.51c0-8.653,3.653-15.51,8.258-15.51ZM710.378,90.934v8.656h1.605v-5.373l2.756,3.194h.314l2.734-3.194v5.373h1.618v-8.656h-.261l-4.243,4.619-4.258-4.619h-.266ZM701.572,91.061v1.332h2.649v7.195h1.614v-7.195h2.65v-1.332h-6.913Z" fill="#f26822"/></g></g></svg>