<?xml version="1.0" encoding="UTF-8"?><svg id="a" xmlns="http://www.w3.org/2000/svg" width="28.12in" height="4.352in" viewBox="0 0 2024.645 313.349"><path d="M.039,20.648h87.624l121.332,196.207-.065-196.207h86.962v281.418h-86.846L87.105,105.846v196.22H0L.039,20.648ZM768.861,49.622h84.693v37.859h45.822v27.794h-45.822l.052,186.791h-84.744l.039-186.791h-45.991v-27.768h46.017l-.065-37.885ZM344.347,114.938h84.628v187.128h-84.628V114.938ZM344.166,20.596h84.809v57.534h-84.809V20.596ZM1861.226,206.997s-.052,28.248-.052,39.623c0,29.818-17.6,42.152-34.603,42.152s-34.655-12.334-34.655-42.152c0-11.374.052-40.323.052-40.323,0,0,.078-27.665.078-39.039,0-29.701,17.652-41.918,34.526-41.918s34.603,12.218,34.603,41.918c0,11.374,0,32.321.052,39.869v-.13h0ZM1827.232,102.15c-68.273,0-123.615,47.054-123.615,105.107s55.355,105.055,123.615,105.055,123.693-47.041,123.693-105.055-55.342-105.107-123.693-105.107h0ZM1592.518,20.648h83.512v281.366h-83.642l-.052-10.765c-32.347,20.311-68.947,20.259-97.429,7.017-7.626-3.567-57.884-27.69-57.884-92.76,0-49.441,46.639-103.356,107.584-98.013,20.09,1.79,34.344,9.105,47.897,16.692l.013-103.538ZM1593.128,207.555v-33.436c0-28.949-19.96-36.315-33.138-36.315-13.502,0-33.216,7.367-33.216,36.315,0,9.546.052,33.358.052,33.358,0,0-.052,23.281-.052,33.255,0,28.923,19.714,36.471,33.216,36.471,13.177,0,33.138-7.548,33.138-36.471v-33.177ZM627.062,106.287c31.62-.869,95.847,19.844,95.38,93.953-.091,13.125-.026,101.787-.026,101.787h-84.07v-122.889c0-16.329-15.603-34.474-38.637-34.474s-40.193,18.145-40.193,34.474l.091,122.889h-84.031l-.065-187.115,84.083-.065s-.091,15.071,0,19.662c18.233-17.416,42.266-27.469,67.469-28.222h0ZM1314.81,106.287c31.568-.869,95.782,19.844,95.38,93.953-.13,13.125-.078,101.787-.078,101.787h-84.07v-122.889c0-16.329-15.577-34.474-38.637-34.474s-40.232,18.145-40.232,34.474l.13,122.889h-84.005l.052-187.115,83.953-.065s-.13,15.071,0,19.662c18.241-17.428,42.29-27.482,67.508-28.222h0ZM978.219,180.15c-.156-16.368.182-27.314,5.551-36.73,6.666-11.517,18.819-17.003,29.818-17.055h-.052c11.076.052,23.151,5.538,29.766,17.055,5.37,9.403,5.681,20.363,5.551,36.73h-70.633ZM1048.489,236.594s.078.83.078,11.374c0,34.227-22.516,41.853-34.979,41.853s-35.433-7.626-35.433-41.853c0-10.285.13-38.65.13-38.65,0,0,159.36.052,159.36,0,0-58.053-56.003-106.132-124.834-106.132s-124.601,47.054-124.601,105.042,55.809,105.12,124.601,105.12c57.093,0,105.302-32.606,120.074-76.833l-84.394.078h0ZM1956.813,87.611h-9.753V23.527h24.448c15.097,0,22.619,5.59,22.619,18.21,0,11.452-7.198,16.446-16.64,17.652l18.21,28.222h-10.843l-16.925-27.794h-11.115v27.794h0ZM1968.408,51.581c8.236,0,15.525-.571,15.525-10.428,0-7.925-7.198-9.416-13.904-9.416h-13.229v19.844h11.608Z" fill="#cc2131" fill-rule="evenodd"/><path d="M1912.094,55.394c0-31.88,25.888-55.394,56.444-55.394,30.297,0,56.107,23.527,56.107,55.394,0,32.204-25.81,55.705-56.107,55.705-30.557,0-56.444-23.488-56.444-55.705ZM1968.538,101.839c25.148,0,44.94-19.688,44.94-46.445,0-26.277-19.779-46.146-44.94-46.146-25.408,0-45.239,19.87-45.239,46.146,0,26.77,19.831,46.445,45.239,46.445Z" fill="#cc2131" fill-rule="evenodd"/></svg>