<?xml version="1.0" encoding="UTF-8"?><svg id="a" xmlns="http://www.w3.org/2000/svg" width="4.549in" height=".862in" viewBox="0 0 327.513 62.094"><path d="M172.699,26.692c.039-.371.095-.726.121-1.107.515-.919,1.32-1.597,2-2.381.355-3.204,3.427-6.238,2.461-9.777-.495-1.816-2.461-2.252-3.297-4.127-2.547.457-3.268-.442-4.799-.319.068,1.301-1.233,1.442-.842,3.014-1.185-.212-1.08.677-1.764.89-.035,1.775-.929,3.715-1.445,4.536-1.584,2.546-2.488,5.303-3.346,8.014-1.048,3.349-1.463,6.643-2.793,10.172-.259-1.305-1.666-1.231-2.712-1.601-1.786-1.885-2.036-4.547-3.147-6.718-.336-.66-1.463-1.444-1.615-1.697-.164-.287.082-.825-.102-1.096-.23-.371-.951-.669-1.183-.998-.178-.267.072-.822-.094-1.101-.074-.125-.654-.159-.76-.3-1.316-1.796-2.547-3.476-3.75-5.195-2.244.576-3.287.324-5.5.114-2.412,1.942-4.303,2.386-4.297,5.515.002,3.33,3.225,6.15,4.065,8.848-.686.343-.635,1.399-.938,1.92-.555.964-1.404,1.663-2.025,2.012-.1.051-.205.664-.303.763-1.035,1.027-2,1.24-3.123,2.111-.57.433-1.084,1.192-1.701,1.618-1.473,1.019-3.049,1.794-4.543,2.601-2.164-.955-5.17-1.522-7.117-1.594-.106-1.219-1.506-1.997-2.438-2.73-.959-.752-2.588-1.024-2.377-2.003,3.346.219,7.106-1.832,8.832-4.072-.517-3.821,2.522-4.65,3.807-6.952.369-3.405-1.66-7.055-2.371-10.461-.672-.147-1.539-.061-1.885-.573-1.016-2.148-3.238-2.848-3.789-5.558-2.818-.459-5.383-.334-7.688.219v.185c-.091-.023-.103.042-.111.112-.111.066-.08-.1-.111-.112-.063-.027-.158.021-.221,0,.006-.035-.01-.047-.019-.062-6.055,1.634-10.164,6.34-11.743,11.679.567.262.858.85.889,1.759-1.598,2.999.244,5.625.022,8.825-2.123-1.182-6.891-3.354-7.256.998.701,1.183,2.642.871,3.799,1.511,1.439,1.122,2.324,2.604,3.992,3.702.65.427,1.81.461,2.642.87.317.153.506.875.836,1.036.545.269,1.045-.084,1.481.239.39.289.929,1.28,1.648,2.063,1.035,1.129,2.434,1.694,2.141,3.493.73-.535.75.695,1.183,1.003.375.261,1.057.304,1.526.6.451.296,1.051.275,1.517.605.475.338.746,1.054,1.219,1.369.156.101.555-.128.731-.064.134.049.261.634.429.697.344.139,1.287.082,1.852.209,1.801.404,4.355,1.305,5.986,1.318,5.651.068,9.516-3.182,12.651-6.611,1.394-.684,2.988-1.531,3.853-2.17,2.066-1.527,2.731-2.953,3.994-4.763,3.924,3.5,6.412,8.709,10.057,12.541h.004s.002.003.002.006c.035.035.072.069.107.107h.004v.003c.992,1.027,2.053,1.974,3.273,2.733,4.643-.252,8.077-3.349,8.325-8.444-.004-.028-.02-.052-.088-.044,0,0,.013.106,0,.112-.02.022-.188,0-.223,0v-.112h-.228c-.018-.097.046-.112.121-.112h.425c.018-.541.014-1.097-.041-1.68,2.725-4.334,4.989-9.049,5.729-15.05-.008-.032-.008-.075-.027-.086M109.652,28.949h-.229c.061-.118-.088-.075-.111-.114-.02-.025.012-.081,0-.113.025-.016.092.02.111,0,.035-.028-.023-.182,0-.226.096-.02.113.045.115.114.02.015.094-.021.114,0,.054.062-.047.27,0,.339M111.22,30.917c-1.68-.457-1.482-3.232-.348-4.019-.377-1.739-.982-3.25-.779-4.713.279-1.956,2.027-2.327,2.242-3.872,1.561-.117,3.875.553,4.819,1.178-.789,4.242-2.807,8.759-5.934,11.426" fill="#83837e"/><path d="M325.458,50.615c-1.291-.952-2.293-1.944-3.902-2.688-2.293-1.055-5.276-2.068-8.063-2.789-3.625-.932-7.453-1.236-11.183-2.08.828,0,.023-1.496,1.185-.584.184-.54-.387-.875.1-.965.591.078.697-.18.381-.617.847.342.851-.669,1.05-.868-.091.097.11.503.284.359.125-.102-.038-.535.066-.649.197-.201.945-.334.392-.61-.021.178-.302.339-.318-.036.938.071,1.43-1.109,1.75-1.446.565-.593.449-.86.803-1.548.057-.111.574-.403.705-.583.264-.352.824-.83,1.082-1.189,1.266-1.802,2.1-4.123,3.777-5.48.541-2.16,1.864-5.054,2.674-7.226.112-.305-.306-.434-.254-.677.44-1.898,1.69-4.253,1.516-5.387-.043-.272.324-.413.393-.614.294-.891.501-.915.126-1.288-.195-.196.364-.352.35-.292.07-.278.098-.681.102-.967.017-1.933-.828-3.531-1.373-5.361.572-3.023-1.083-3.955-3.065-4.551-.732-.226-1.152-.332-1.555-.492.303.115.317-.461-.285-.355-1.982-.618-4.275-.59-6.515-.911-.655-.443-1.659-.611-2.702-.634-.082-.026-.166-.053-.246-.087-.021.025-.033.061-.054.087-.944.005-1.871.107-2.555.203v.336h-.231c.032-.039-.035-.197,0-.225.028-.018.092.012.116,0,.009-.051-.002-.076-.028-.092-.205.029-.39.058-.531.081-1.111.187-2.121,1.052-3.273,1.32-1.541.359-3.412.203-4.875.719-2.26.812-4.422,2.688-6.553,3.283l.078.079c-1.078.431-2.234.916-3.394,1.465-1.678.801-3.485,1.969-4.784,2.767-.138.085-.517-.163-.631-.06-.109.084.047.569-.066.642-.33.202-.713-.024-.99.226-.272.242-.338.695-.766,1.227-.25.301-.898.598-1.054.869-.604,1.058-1.116,3.134-1.067,4.128.024.516.529,2.036.721,2.356.508.855,1.719,1.255,2.346,2.197.414,1.813.859,2.322,1.955,2.813.785.351,4.455-.155,4.867-.476,1.285-1.013,4.014-2.871,5.226-4.026.223-.213.229-.731.418-.935.125-.129.34-.202.551-.28.002-.01-.002-.018,0-.026.024-.084.01-.114.109-.111.022-.025-.011-.09,0-.113.04-.037.194.026.229,0,.094.021.106-.045.117-.113.033-.008.051.003.067.017.295-.401.537-1.113.755-1.464.165-.278.604-.403.7-.58.168-.345-.08-.979.127-1.292.082-.116.568-.142.672-.258.224-.252.224-.712.418-.935,1.214-1.409,2.212-1.334,4.044-1.866.786-.229,1.858-.429,2.641-.706,2.186-.784,3.641-2.166,5.633-2.031.076-.082.185-.132.32-.135.117.006.225-.004.32-.036.278-.431.194-1.319,1.116-.95,0,.032.013.06.017.085.116-.04.237-.049.364.013.138.057.214.161.24.309.099.008.197.012.301.016,0,.045-.01.077-.01.12.027.003.049.013.07.013.297.132.527.103.828.162.737.154,1.418.111,2.01.395.715-.056,1.49-.087,1.797.448.086.66-.121.957-.311,1.284.022.04.055.079.077.121.171.321.212.727.216,1.132.657.684.727,2.28.317,3.36.056.538.156,1.181.037,1.589-.131.446-.719.71-1.051.985-.018.02-.031.037-.049.053.074.079.139.151.186.221-5.391,7.711-9.731,16.739-16.469,22.756-2.947.31-5.299-.349-7.865-.91v.198c-.067-.017-.166.033-.233,0-.011-.006.018-.1,0-.11-.009-.013-.097.015-.109,0-.022-.046-.006-.108-.002-.165-1.01-.215-2.057-.41-3.195-.518-2.457,1.308-5.155,2.306-8.022,3.083.162,1.058-.609.949-.804,1.548-1.477.345-2.022,1.853-3.446,2.26-.011-.201.127-.453.25-.703-1.355,1.037-2.209,2.422-2.724,4.131.07.066.138.141.168.245-.774,3.054.367,5.064-.342,6.485,1.055.633,1.508,1.894,2.344,2.198,1.281.471,2.568-.04,4.185-.22,1.498-.159,2.754-.186,3.918-.57.602-.201.818-.573,1.377-.841.604-.292,1.352-.201,1.969-.444.129-.055.232-.544.383-.614.238-.119.861-.182.988-.225,1.478-.533,2.365-.859,3.344-1.282,1.203-.528,2.41-.807,3.343-1.29.553-.286.864-.829,1.403-1.157.978-.6,2.099-1.018,3.064-1.642,1.309-.861,1.93-1.739,3.086-1.961.891-.173,1.986.264,2.541.26,1.047,0,1.961-.384,2.922-.351.922.03,1.728.896,2.865.297,1.53,5.21,6.494,7.648,12.317,8.17v-.217h.56v.222c-.035-.028-.187.037-.222,0-.008-.005.003-.109,0-.112-.012,0-.098-.007-.106,0-.01.009.012.107,0,.112-.037.017-.082.009-.129.004,2.36.2,4.852.101,7.315-.269,1.117-1.041,1.658-2.787,2.373-4.323-.299-1.107-1.43-1.38-2.055-1.841" fill="#83837e"/><path d="M181.263,31.204c.703,1.559,1.453,3.127,2.009,4.883-3.283-.591-5.394,1.437-8.652,1.848-.324,1.306-.762,2.52-1.15,3.777,1.31,1.35,2.595.338,4.168,1.478.884.162,1.365-.757,2.496-.952,1.154-.197,3.002.715,4.377-.376,1.347,1.595,3.097,2.703,5.082,3.607,1.867.851,3.146,1.037,5.293,1.748,1.642.545,3.129,1.574,4.562,1.814,3.031.506,5.446-.425,7.623-1.03,3.418-.948,6.699-1.682,8.922-2.978.391-.231.608-.88.994-1.19.547-.426,1.285-.489,1.764-.886,1.039-.865,1.525-2.261,2.396-2.048-.628,2.092.231,4.586,1.17,5.049-1.322,3.24.065,7.928,4.272,6.986,4.156-5.307,4.592-13.735,7.051-20.474.66-1.615,1.734-4.428,2.808-5.756.987-1.228,1.576-2.916,2.233-3.877.548-.801,1.275-2.301,1.597-2.711.262-.316.342-.877.645-1.159.349-.331.049-.321.299-.759.742-1.297,1.521-2.157,2.299-3.14,1.888,5.53,1.654,11.461,2.568,17.063.297,1.759.799,3.657,1.207,5.414.197.86.711,1.571.947,2.489.094.362-.316.308-.334.397-.029.327.401.322.401.336.291,2.202.615,2.302,1.011,3.224.596,1.387.596,5.288,1.254,7.471.022.549.067,1.03.346,1.544.131.24.379.454.502.672.121.217.113.541.289.728.193.21.656.098.873.236.357.237.369.569.82.752.5.201.965.336,1.485.354.984.041,1.963.459,2.904.78,1.086.362,2.162.22,3.301.183.996-.041,2.377.154,3.289-.29.461-.223.775-.466,1.148-.812.282-.273.756-.556.975-.901.174-.278.133-.858.174-1.389-.231.159-.475.288-.627.336-.565.213-1.387.101-1.996.124-1.743.055-3.379.249-4.461-1.305-.053-.139-.082-.27-.108-.414-.023-.029-.05-.046-.072-.075-.123.051-.244.098-.365.143-.061-.217-.111-.452-.166-.678.051.04.101.09.156.144.143.112.262.249.375.391.045-.021.094-.033.139-.054.4-1.501-.563-2.9-.748-4.349-.139-1.162.111-2.501.052-3.682-.07-1.471-.459-2.964-.695-4.496-.088,1.094-.141,2.175-.154,3.229.015-1.056.062-2.135.154-3.229-.059-.316-.109-.631-.141-.949-.043-.426.082-.556.307-.762.002-.052.006-.105.014-.159-.09-.142-.424-.241-.414-.174-.653-5.32-.866-8.896-2.559-12.652-2.687-1.201-1.601-7.02-1.848-8.67-.55-3.617-3.168-9.422-5.017-11.334-1.528-1.574-1.949-1.238-4.172-1.478-.799.943-1.82,2.213-2.328,2.773-.27.291-.76.184-1.063.465-.16.138-.16.593-.306.757-.264.298-.729.188-1.057.461-.158.136-.135.612-.307.759-.308.279-.789.187-1.056.463-.328.335-.209,1.057-.604,1.522-.289.351-1.105.468-1.396.857-.281.372-.264,1.02-.606,1.523-.314.484-.756.765-.996,1.189-1.033,1.854-1.562,3.894-2.808,5.764-.705-2.637-2.008-5.535-4.153-5.529-1.697.004-2.99,2.162-3.39,3.236-.453,1.195-.741,4.177-.653,5.205.039.473.506.459.457,1.065-.058.728-.675,2.33-.838,3.015-.339,1.43-.632,2.492-.812,3.38-2.35,1.422-3.986,4.732-6.756,6.838-.564.429-1.553.828-2.459,1.313-2.115,1.156-6.256,3.318-8.529,3.318-.725-.003-1.77-.613-2.647-.874-1.826-.547-3.017-.838-4.129-1.117-1.699-.42-3.009-.087-4.138-1.113,1.177-.38,2.258-1.308,2.785-1.712.305-.223.767-.194,1.07-.46.641-.562.551-1.464.936-1.916.179-.22.861-.284,1.062-.466.76-.692,1.272-1.451,2.033-2.012.565-.418,1.344-.522,1.752-.887.868-.775,2.016-2.261,2.663-3.175,1.906-2.685,2.093-3.864,1.228-7.091-.643-2.407-1.152-3.716-1.844-5.244v.224c-.027.012-.086-.015-.107,0-.022.012-.098-.017-.115,0-.059.06.017.111-.114.111-.019,0-.099.012-.113,0-.037-.035.002-.15-.111-.111-.022-.094.047-.107.111-.114-.014-.096.045-.107.113-.112.114-.006.227.006.334,0-.168-.373-.343-.753-.541-1.172-.568-1.212-.949-2.551-1.771-3.524-4.035-2.085-8.914-3.471-13.438-2.514-.822.171-1.711.805-2.828,1.345-.998.487-2.072.728-2.816,1.349-.576.48-2.836,3.232-3.002,3.57-.123.271.156.797.103,1.094-.037.141-.627.596-.675.793-.174.758.029,1.783-.139,2.589-.334,1.587-1.078,3.274-1.084,4.507-.014,2.904.918,5.222,1.967,7.554M189.083,26.753c-.77-2.804-1.553-9.036.477-11.441,1.123-.698,1.961-.348,3.279-.286,2.201,2.881,3.949,6.301,5.957,9.414-.916.588-1.117,1.779-2.393,2.046.125.454.754.306.727-.062,1.141.453-1.192.76-.967,1.556.121-.01.24-.021.363-.032.176-.552.444,0,0,0-1.517,1.765-3.757,2.935-6.279,3.852-1.176-.799-2.408-3.799-1.164-5.047" fill="#83837e"/><path d="M97.452,40.679c.248-.981.232-1.125-.174-2.056-.76-.552-1.035-1.679-1.717-2.335-.388-.388-1.017-.296-1.566-.698-.596-.428-.834-1.282-1.266-1.551-.664-.414-1.658-.666-2.353-1.044-2.426-1.29-4.92-2.519-7.483-3.499-3.082-1.171-6.642-1.93-9.316-2.924-.43-.158-.852-.622-1.193-.728-1.176-.342-2.612-.104-3.825-.493-1.091-.356-2.039-1.324-3.142-1.391-.955-.213-1.377,1.948-2.215.611-.311-1.156.916-1.064,1.4-1.369.571-.363,1.194-.844,1.799-.983,1.463-.343,4.557.571,4.912-.013.155-.254.528.353.405.382,1.234-.285,2.189-1.261,3.271-1.526.01-.619-.262-1.507.233-1.682,1.123-.096,2.25-.194,3.378-.291.856-.853,1.655-1.75,2.405-2.699,1.394.606.904-.352,2.215-.604.521-1.482-.221-3.166-.76-5.286.006.097.012.191-.002.283-.006.005-.111-.01-.117,0-.075.076.058.357,0,.451-.096.02-.106-.045-.116-.114.059-.115-.084-.078-.111-.112-.033-.058-.025-.503,0-.564.008-.015.1.011.111,0,.067-.061.004-.244.004-.365-.304.084-.619.136-.927.202-.004.028-.012.05-.09.05-.014,0-.098.012-.106,0-.002-.004-.002-.006-.004-.007-5.253,1.075-11.236.003-15.246,1.162-2.984.855-7.224,3.282-8.914,6.159-.185.321-.129.977-.265,1.27-.491,1.069-1.272,2.631-.393,4.174,1.58.555,1.268-2.576,2.141-1.423-.774,1.307-1.61,2.552-1.485,4.689.512.861,1.41,1.211,2.393,1.453-.01,1.339,1.142,1.321,1.641,1.517.128.048.291.699.445.79.48.28,1.037.261,1.568.691,1.299,1.044,2.008,2.125,3.248,2.619.471.194,1.703.464,2.1.649,5.914,2.828,14.586,2.921,18.887,7.357.978,1.565-1.456,2.879-3.805,2.949-1.469-.655-3.248-.721-4.908.012-1.114-.67-2.389-1.147-3.545-1.766-.953.388-1.158,1.462-2.114,1.844-1.302-.465-2.718-1.375-3.544-1.77-.473-.225-.95-.011-1.54-.282-1.58-.715-3.041-2.185-5.085-2.045-1.059.446-1.241,2.316-1.624,3.046-.201.368-.916.466-.646,1.295-.145,1.009.055,1.948-.055,3.736,1.104,1.459,2.641,2.347,3.727,3.825,3.633.594,4.855,4.337,8.711,4.64.806-.523.486-2.081,1.285-2.604,2.52,1.428,5.766.453,8.324.112,3.854-.509,6.143-1.481,9.672-1.662.877.05.315-1.23,1.018-1.336,2.148-.29,3.246-1.55,5.103-2.101.502-.298-.078-1.592.613-1.71,1.463.728.928-.676,2.584-.639,1.055-4.094-2.132-4.641-3.941-6.296" fill="#83837e"/><path d="M33.472,42.858s1.585-.203,3.747-1.401c2.164-1.2,2.1-2.336,2.1-2.336,0,0-.044-.432-1.038-2.598s-4.155-5.551-4.155-5.551l-1.416,4.98-1.876,4.896s.234.753.348.901c.116.148,2.29,1.109,2.29,1.109" fill="#96c121"/><path d="M29.856,31.417c-.537-1.758-2.764-4.496-2.764-4.496,0,0-5.064-1.84-8.169-3.293s-3.637-2.873-3.637-2.873c.019.165-.162,7.25,2.226,11.012,2.389,3.761,7.235,3.435,7.235,3.435l2.432-.436,1.916-.977.221.146.914-.721s.16-.036-.374-1.797" fill="#96c121"/><path d="M45.03,44.823h0l.104-1.663v-2.165l-1.164-6.572-.078-2.77-1.822-11-.027-.411-.107-.511-.133-.52.003-.003s-.429-1.696-1.525-3.576c0,0-1.787-2.628-3.212-3.6,0,0-4.678-3.369-8.536-4.939-.594-.33-3.676-1.336-3.676-1.336l-.921.642-5.458-.232-6.368.603-1.158,1.014-3.474,2.026-2.315,1.494-2.218,2.219,1.157.29-1.76,2.985.014.007c-.111.239-.321.692-.335.747-.011.048-.111.363-.18.579l-.007-.003s-.7,2.407-1.288,5.639c-.047.261-.525.343-.546.527l.077,1.821.136,5.357.753,3.797-.29,5.351-.038,1.811s.379,1.273.384,1.313c.005.04,2.578,1.997,2.578,1.997l.819,1.473,10.529,7.222,1.608,1.921,6.053,3.65.893,1.045h.919l1.516.474s6.747.925,9.633.415c0,0,2.27-.535,2.64-.901.371-.367,1.108-.928,1.108-.928l.948-1.105s1.547-1.478,2.955-3.025c.901-.989,1.744-2.006,2.09-2.686-.025-.408-.247-7.441-.281-8.473M42.998,50.253c.005.686-.017,1.7-.017,1.7,0,0-.035.544-1.175,1.989-1.143,1.447-3.247,2.885-3.247,2.885l-1.187-1.004-1.271-.625-.133-1.177s-2.175,1.474-3.352,4.08c0,0-.83,1.195-4.658.273-.706-.331-1.189-.471-1.394-.519l-.651-.485-.109-.404-.172-.781.259-2.662.626.281.743-.799-1.35-1.981-.049-2.867-1.875-3.724-.36-1.146,2.532-2.901,1.56-1.929.24-1.04-.146.065-.686.61-.581.198s-4.603,1.787-11.193-3.025c-.971-.918-5.079-7.841-5.355-13.975l.03-1.136.045.019s-.012-.155-.034-.436c-.048-.636-.149-1.914-.287-3.468,0,0,3.178,1.421,4.411,1.718,1.232.295,12.851,2.241,15.112,3.565.685.69,2.051,2.105,2.456,2.838.405.732,1.986,3.009,2.236,3.144l.351-.044s.833-.906.823-3.191c0,0,2.732-4.085,3.887-4.539l.574,1.738.104.454.283.837.283,1.25s-2.155,1.876-2.354,2.286-1.395,3.269-1.549,4.391c0,0,.92.646,1.426.933,0,0,.255-.028.304-.023.226.02,2.593,1.034,2.593,1.034l.927-.854.3.854s.298,2.387.608,2.827c0,0-1.007.723-1.254,1.577l.939.257.315.414s.6,6.127.553,7.252l-.097.705-.224,1.457-.194,2.5.515-.148s-.087.066-.081.752" fill="#96c121"/><path d="M31.61,46.296s.026-.004.075-.012c.418-.209-.075.012-.075.012" fill="#96c121"/><path d="M39.722,45.818c-2.282-.464-7.365.352-8.038.466-.033.015-.071.035-.116.056-.618.303-1.179,1.58-1.179,1.58-.144.362-.449,3.252-.449,3.252l.431.108,1.446-.217c2.235-.114,6.674-1.276,8.223-1.697,0,0,.193.039.211.037.092-.022.349-.185.349-.185v-.1c-.252-2.775-.774-3.2-.878-3.3" fill="#96c121"/></svg>