<?xml version="1.0" encoding="UTF-8"?><svg id="a" xmlns="http://www.w3.org/2000/svg" width="2.04in" height=".61in" viewBox="0 0 147.04 44.08"><path d="M33.36,4.09l-.19,25.36c0,10.54-6.26,14.63-14.69,14.63-7.25,0-16.49-3.22-16.49-14.2V4.09C1.98,2.67.99,1.8,0,1.3h11.9c-.99.5-1.92,1.36-1.92,2.79v25.98c0,4.34,1.49,10.48,9.55,10.48,7.38,0,10.04-4.84,10.04-10.97l-.12-25.48c0-1.43-.74-2.29-1.67-2.79h7.19c-.93.5-1.61,1.36-1.61,2.79Z" fill="#004785"/><path d="M50.15,44.08c-5.64,0-9.73-1.92-11.9-2.98l-.31-10.48c1.18,4.4,4.9,10.23,11.35,10.23s8-4.4,8-7.44c0-5.95-5.39-6.76-11.04-9.8-5.7-3.16-8.18-6.51-8.18-11.22,0-8.43,7.87-11.78,13.52-11.78,2.11,0,6.2.43,9.36,2.29l.31,9.18c-.87-3.29-4.4-8.25-10.35-8.25-4.71,0-6.57,3.29-6.57,5.95,0,3.78,2.67,5.21,8.49,7.87,5.77,2.73,11.78,4.77,11.78,13.39,0,7.75-6.82,13.02-14.45,13.02Z" fill="#004785"/><path d="M84.62,43.46h-15.93c.93-.56,1.61-1.43,1.61-2.79V4.09c0-1.43-.68-2.29-1.61-2.79h16.49c20.4,0,24.49,14.45,24.49,20.46,0,10.79-8.31,21.7-25.05,21.7ZM83.88,4.4c-1.49,0-4.77,0-5.7.12v35.71h4.96c14.01,0,17.92-9.42,17.92-18.48,0-7.44-4.34-17.36-17.17-17.36Z" fill="#004785"/><path d="M133.77,43.46c1.61-.87,1.92-1.74,1.49-3.04-.19-.62-1.8-4.4-3.53-8.62h-15.19c-1.86,4.22-3.35,7.87-3.47,8.56-.56,1.49-.25,2.36,1.43,3.1h-8.56c1.74-1.18,2.29-1.86,2.91-3.04,1.18-2.36,17.48-40.42,17.48-40.42,0,0,16.49,38.07,17.61,40.42.62,1.3,1.05,1.98,3.1,3.04h-13.27ZM123.98,13.39s-4.22,10.54-6.2,15.19h12.52c-2.91-6.88-6.32-15.19-6.32-15.19Z" fill="#004785"/></svg>