<?xml version="1.0" encoding="UTF-8"?><svg id="a" xmlns="http://www.w3.org/2000/svg" viewBox="0 0 208.28 182.89"><path d="M198.78,182.89H9.5c-3.43,0-6.5-1.77-8.21-4.74-1.71-2.97-1.71-6.51,0-9.48L95.93,4.74h0c1.71-2.97,4.78-4.74,8.21-4.74s6.5,1.77,8.21,4.74l94.64,163.92c1.71,2.97,1.71,6.51,0,9.48s-4.78,4.74-8.21,4.74ZM102.96,8.8L8.32,172.73c-.34.59-.15,1.1,0,1.36.15.25.49.68,1.17.68h189.28c.68,0,1.03-.42,1.17-.68s.34-.77,0-1.36L105.31,8.8c-.34-.59-.88-.68-1.17-.68s-.83.09-1.17.68h0Z" fill="#ff0"/></svg>