<?xml version="1.0" encoding="UTF-8"?><svg id="a" xmlns="http://www.w3.org/2000/svg" width="34.722in" height="9.06in" viewBox="0 0 2500 652.314"><path d="M307.432,525.464l-1.799,1.748c-29.113,29.654-62.804,45.372-97.525,45.372-72.466,0-125.068-54.358-125.068-129.375s52.601-129.316,125.068-129.316c34.713,0,68.412,15.785,97.525,45.524l1.799,1.799,46.613-56.36-1.25-1.52c-38.758-45.811-85.262-68.1-142.432-68.1s-109.814,19.307-147.618,54.122C21.681,327.069,0,380.236,0,443.209s21.681,116.25,62.753,153.97c37.796,34.966,90.236,54.172,147.61,54.172s103.674-22.28,142.432-68.1l1.25-1.427-46.613-56.36ZM401.14,643.682h82.331V241.765h-82.331v401.917ZM805.971,556.292c-21.959,13.37-42.399,20.101-60.76,20.101-26.605,0-38.623-14.046-38.623-45.312v-213.26h83.851v-75.693h-83.851v-125.059l-80.701,43.184v81.875h-69.611v75.684h69.611v226.867c0,61.807,36.613,104.037,91.267,105.135,37.111.726,59.485-10.329,73.074-18.412l.794-.591,19.823-77.492-4.873,2.973ZM874.164,643.682h82.39V241.765h-82.399l.008,401.917ZM2269.679,88.834v383.395l25.65-39.924c-.017.169,115.228-166.715,130-187.99h51.36c-10.929,14.696-101.546,139.392-101.546,139.392,0,0,118.041,245.963,124.857,259.975h-50.439c-2.77-5.743-104.172-220.397-104.172-220.397l-75.701,106.073v114.324h-46.993V115.667c4.113-2.365,35.929-20.6,46.993-26.833h-.009ZM1883.674,291.926c24.24-36.233,62.213-56.216,106.647-56.216,88.598,0,135.557,56.503,135.557,163.429v244.544h-47.112v-234.409c0-90.971-31.588-133.201-100.017-133.201-65.498,0-104.603,49.814-104.603,133.193v234.417h-46.976V244.316h46.976v61.934l9.527-14.324ZM1594.856,235.709c91.166,0,135.49,41.698,135.49,127.483v280.49h-46.993v-58.26l-9.147,10.076c-34.586,38.159-74.282,56.816-121.546,56.816-37.044,0-123.226-12.255-123.226-125.946,0-92.931,76.723-125.921,148.581-125.921,36.089,0,71.731,8.311,97.601,22.804l7.736,4.291v-57.34c0-63.564-31.047-95.76-92.399-95.76-37.838,0-71.976,9.544-106.985,29.282-3.091-7.095-13.944-31.106-16.976-37.956,36.596-19.282,81.782-30.059,127.863-30.059h0ZM1475.515,522.449c0,59.704,30.937,92.601,87.137,92.601,47.838,0,90.321-22.593,119.814-63.691l.887-1.41v-87.559l-2.618-1.52c-29.983-17.095-60.709-23.986-105.861-23.986-62.162,0-99.35,31.976-99.35,85.566h-.009ZM1112.669,88.834v213.64l9.096-9.966c34.603-38.218,72.914-56.799,116.96-56.799,88.133,0,138.725,73.463,138.725,201.588,0,130.617-57.458,215.017-146.419,215.017-43.345,0-78.049-16.807-109.223-52.863l-9.139-10.642v54.873h-46.9V115.667c3.995-2.365,35.87-20.6,46.9-26.833h0ZM1113.784,337.272l-1.115,1.478v207.888l.836,1.267c25.921,40.118,68.15,64.105,113.091,64.105,69.417,0,104.595-58.505,104.595-173.86,0-103.049-38.978-162.078-106.943-162.078-41.191,0-78.361,20.583-110.473,61.199" fill="#003b70"/><path d="M1005.87,170.439C930.49,63.699,805.338,0,677.998,0s-252.492,63.691-327.736,170.439l-3.86,5.498h94.899l1.047-1.14c64.595-66.664,148.902-101.917,235.642-101.917s171.03,35.253,235.743,101.917l1.056,1.14h94.865l-3.784-5.498Z" fill="#d9261c" fill-rule="evenodd"/></svg>