<?xml version="1.0" encoding="UTF-8"?>
<svg id="Layer_1" xmlns="http://www.w3.org/2000/svg" version="1.1" viewBox="0 0 432 149.4">
  <!-- Generator: Adobe Illustrator 29.2.1, SVG Export Plug-In . SVG Version: 2.1.0 Build 116)  -->
  <defs>
    <style>
      .st0 {
        fill: #fff;
      }

      .st1 {
        fill: #a275ff;
      }
    </style>
  </defs>
  <path class="st0" d="M50.2,1.5v12.5h-31.8v14.4h29.4v12h-29.4v15.7h32.2v12.5H5V1.5h45.2ZM164.9,68.6h14.2L158.3,1.5h-19.5l-20.9,67.1h14l4.2-14.2h24.6l4.2,14.2ZM139.7,42.3l8.7-28.8,8.6,28.8h-17.3ZM181.8,43.6v-17.3c0-15.1,10.6-26.4,27.1-26.4s26.5,10.9,26.5,25.9h-13.5c-.2-8.4-4.8-13.5-13-13.5s-13.5,5.6-13.5,14.7v15.9c0,9.2,5.1,14.8,13.5,14.7,8.2,0,12.9-5,13-13.5h13.5c0,15.2-9.9,26-26.5,25.9-16.4,0-27.1-11.2-27.1-26.4h0ZM290.9,1.5v12.5h-18.4v54.6h-13.5V14h-18.4V1.5h50.3ZM50.7,100.6v1.3h-13.6v-.8c0-5.6-4-9.3-11.6-9.3s-10,3.1-9.9,7.2c0,5.4,6.6,6.8,13.6,8.5l2.2.6c13.2,3.3,20.8,9.2,20.9,20.1,0,13.2-10.2,21.2-25,21.2S0,140.4,0,124.7h0c0,0,13.6,0,13.6,0v.7c0,7.6,5.4,11.7,13.8,11.7s11.3-2.7,11.3-7.6-4-6.7-13.2-9l-2.2-.6c-13.8-3.4-21.2-8.7-21.2-19.8,0-11.8,10-20.6,23.9-20.6s24.8,8.9,24.8,21.2ZM59.3,123v-17.3c0-15.1,10.6-26.3,27.1-26.3s26.5,10.9,26.5,25.9h-13.5c-.2-8.4-4.8-13.5-13-13.5s-13.5,5.6-13.5,14.7v15.9c0,9.1,5.1,14.8,13.5,14.7,8.2,0,12.8-5,13-13.5h13.5c0,15.2-9.9,26-26.5,25.9-16.5.1-27.1-11.2-27.1-26.4ZM135.8,148h-13.5v-67.2h13.5v67.2ZM193.1,80.9v12.4h-31.8v14.4h29.4v12h-29.4v15.7h32.2v12.6h-45.6v-67.2h45.2ZM242.4,80.9v42.6l-26.4-42.7h-12.9v67.2h13.3v-42.7l26.4,42.7h12.9v-67.2h-13.3ZM265.6,123v-17.3c0-15.1,10.6-26.3,27.1-26.3s26.5,10.9,26.5,25.9h-13.5c-.2-8.4-4.8-13.5-13-13.5s-13.5,5.6-13.5,14.7v15.9c0,9.1,5.1,14.8,13.5,14.7,8.2,0,12.9-5,13-13.5h13.5c0,15.2-9.9,26-26.5,25.9-16.5.1-27.1-11.2-27.1-26.4ZM373.8,80.8v12.5h-31.8v14.4h29.4v12h-29.4v15.7h32.2v12.6h-45.6v-67.2h45.2ZM430.3,100.6v1.3h-13.6v-.8c0-5.6-4-9.3-11.6-9.3s-10,3.1-9.9,7.2c0,5.4,6.6,6.8,13.6,8.5l2.2.6c13.2,3.3,20.8,9.2,20.9,20.1,0,13.2-10.2,21.2-25,21.2s-27.4-8.9-27.4-24.6h0c0,0,13.6,0,13.6,0v.7c0,7.6,5.5,11.7,13.8,11.7s11.3-2.7,11.3-7.6-4-6.7-13.2-9l-2.2-.6c-13.8-3.4-21.2-8.7-21.3-19.8,0-11.8,10-20.6,23.9-20.6,15.3,0,24.9,8.9,24.9,21.2h0ZM76.7,34.1l-.6.5c-9.5-7.9-17.2-18.9-17.2-33.2h14c0,9.9,3.9,17.3,13.2,25l-.4.4-9,7.3ZM96.1,34.7c-.2.2-.4.3-.6.5l-9,7.3c-.2.1-.3.3-.5.4,9.3,7.6,13.3,15.8,13.2,25.7h14.1c0-14.2-7.8-26-17.2-33.9Z"/>
  <path class="st1" d="M99.2,1.5c0,9.9-3.9,17.3-13.2,25l-.4.4-9,7.3-.6.5c-9.4,8-17.2,19.7-17.2,33.9h14.1c0-9.9,3.9-18.1,13.2-25.7.2-.1.3-.3.5-.4l9-7.3c.2-.2.4-.3.6-.5,9.5-7.9,17.2-18.9,17.2-33.2h-14.1Z"/>
</svg>