<?xml version="1.0" encoding="UTF-8"?><svg id="a" xmlns="http://www.w3.org/2000/svg" width="2.356in" height=".336in" viewBox="0 0 169.652 24.22"><g id="b"><g id="c"><rect x="135.482" y=".01" width="1.21" height="24.19" fill="#fff"/><path d="M38.852,23.61c-.96,0-2.16-.55-3.34-2.17-.21-.32-.79-1.28-1.33-2.26-.54-.98-1.08-1.99-1.34-2.45-.93-1.66-1.92-3.38-3.21-4.2l.14-.06c2.08-.88,3.61-2.72,3.61-4.37,0-2.88-2.59-4.62-5.41-4.62-1.9,0-6.94.27-9,.08-.116,0-.21.094-.21.21-.01.11.06.38.22.38.85.2,1.19.6,1.19,2v12.55c0,1.44-.18,1.83-1,2-.143.041-.241.172-.24.32,0,.01-.001.021,0,.031.006.138.123.245.261.239.54,0,1.94-.17,2.83-.17s2.24.17,2.78.17c.025.004.051.003.076-.001.13-.023.217-.148.194-.279-.018-.142-.115-.262-.25-.31-.82-.2-1.16-.6-1.16-2l.06-13.7c.8-.158,1.617-.212,2.43-.16.173-.015.347-.016.52-.004,1.879.128,3.298,1.755,3.17,3.634,0,2.78-2.44,3.64-4.85,3.64l-.52.73h.14c.777.096,1.526.352,2.2.75.796.841,1.469,1.791,2,2.82.66,1.11,1.27,2.33,1.74,3.11.459.756.963,1.484,1.51,2.18,1.158,1.728,3.169,2.684,5.24,2.49h1.6s.003,0,.004,0c.12-.018.203-.129.186-.249-.007-.07-.027-.138-.06-.2-.032-.073-.101-.122-.18-.13Z" fill="#fff"/><path d="M75.672,20.79c-.82-.19-1.05-.59-1.16-2l-1.37-12.63c-.1-1.46.18-1.87,1.13-2,.153-.034.266-.164.28-.32-.034-.16-.176-.273-.34-.27h-4c-.292-.041-.576.113-.7.38-.98,2.33-2.32,5.32-3.32,7.72l-1.32,3v.04l-.5,1.11-.11-.25-.38-.86-1.32-3-3.43-7.67-.08-.2c-.018-.049-.041-.096-.07-.14-.068-.09-.179-.135-.29-.12h-4.62c-.158.019-.291.129-.34.28-.031.171.08.335.25.37.94.16,1.4.59,1.32,2-.33,3.79-1.06,10.12-1.51,12.53-.13,1.24-.52,1.82-1.37,2-.146.025-.252.152-.25.3,0,0,0,.002,0,.003.017.159.16.274.32.257.71,0,1.42-.18,2.2-.18s1.5.17,2.26.17h0c.155.005.284-.115.29-.27-.017-.136-.117-.248-.25-.28-.83-.2-1.24-.71-1.24-2,.03-2.53.79-7.67,1.12-10.47v-.29l.14.27c1.33,2.97,3.55,7.59,6,12.9.19.42.58.42.77,0,2.13-4.49,4.37-9.52,5.91-12.9l.12-.27,1.11,10.79c.11,1.45-.08,1.83-.89,2-.14.032-.239.156-.24.3,0,.01,0,.021,0,.031.011.132.127.23.259.219.53,0,1.93-.18,2.82-.18s2.25.18,2.81.18h0c.132-.006.235-.118.23-.25,0-.143-.1-.268-.24-.3Z" fill="#fff"/><path d="M9.562.21C7.372.21,2.662.52.282.3.142.28.002.34.002.48.002.637.096.779.242.84c1,.17,1.3.65,1.3,2.26v18.15c0,1.65-.32,2.1-1.27,2.3-.159.041-.271.185-.27.35-.002.017-.002.035,0,.053.012.149.142.259.291.247.58,0,2.05-.2,3.07-.2s2.51.2,3.09.2c.025.003.05.003.075-.001.147-.023.248-.161.225-.309-.019-.158-.129-.291-.28-.34-.96-.21-1.35-.68-1.35-2.3l.07-19.4c.945-.188,1.906-.282,2.87-.28,2.766,0,5.422,1.427,5.429,5.414-.007,4.777-3.481,5.876-5.479,5.876-.552-.017-1.104-.067-1.65-.15l-.49,1c1.006.301,2.05.459,3.1.47,3.82,0,8.3-2.18,8.3-7.18S13.342.21,9.562.21Z" fill="#fff"/><path d="M92.142,17.56c-.174-.083-.382-.033-.5.12-.382,1.05-1.251,1.849-2.33,2.14-1.584.12-3.176.12-4.76,0-1.07-.13-1.21-.45-1.21-1.52v-5.73h5.67l.86-1.47-6.53-.03v-6.12h5.09c1.34,0,1.56.1,1.94.35.349.251.617.598.77,1,.03.17.3.25.43.25.154-.036.265-.172.27-.33l-.24-2s0-.001,0-.002c-.053-.411-.429-.701-.84-.648h-11.89c-.129.011-.226.121-.22.25,0,.143.1.268.24.3.79.19,1,.58,1,2v12.52c0,1.44-.18,1.83-1,2-.145.037-.245.17-.24.32-.002.014-.002.028-.002.042.007.138.124.244.262.238h3.75c2.31,0,6.2.16,8.11.16.53,0,.75-.15.89-.61.14-.46.52-2.07.7-2.87.018-.082-.004-.168-.06-.23-.045-.052-.099-.096-.16-.13Z" fill="#fff"/><path d="M50.462,17.56c-.174-.083-.382-.033-.5.12-.382,1.05-1.251,1.849-2.33,2.14-1.584.12-3.176.12-4.76,0-1.07-.13-1.21-.45-1.21-1.52v-5.73h5.73l.86-1.47-6.59-.03v-6.12h5.11c1.34,0,1.56.1,1.94.35.35.25.618.598.77,1,.04.17.31.25.44.25.154-.036.265-.172.27-.33l-.24-2s0-.001,0-.002c-.053-.411-.429-.701-.84-.648h-11.91s0,0,0,0c-.132.006-.235.118-.23.25,0,.143.1.268.24.3.79.19,1,.58,1,2v12.56c0,1.44-.18,1.83-1,2-.145.037-.245.17-.24.32.01.136.124.24.26.24h3.75c2.31,0,6.2.16,8.11.16.53,0,.75-.15.89-.61.14-.46.52-2.07.7-2.87.018-.082-.004-.168-.06-.23-.045-.052-.099-.096-.16-.13Z" fill="#fff"/><path d="M129.592,20.76c-.93-.16-1.39-.85-1.93-2,0,0-6.07-12.24-7.69-15.46-.041-.063-.094-.116-.157-.157-.246-.159-.574-.089-.733.157-1.559,3.119-5.046,10.87-7.588,16.475-.469-.428-.992-1.024-1.612-1.845-.56-.68-1.3-1.8-1.94-2.68-.16-.22-.35-.48-.56-.74-.218-.277-.451-.541-.7-.79-.418-.434-.922-.774-1.48-1l-.22-.08.23-.07c2.46-.75,3.87-2.39,3.87-4.47,0-2.88-2.69-4.62-5.51-4.62-1.91,0-6.6.27-8.66.08-.116,0-.21.094-.21.21-.01.11.06.38.22.38.85.2,1.19.6,1.19,2v12.53c0,1.44-.18,1.83-1,2-.143.04-.241.171-.24.32-.018.056-.016.116.005.17.051.128.196.191.325.14.53,0,1.82-.2,2.68-.2s2.32.2,2.86.2c.025.004.051.003.076-.001.13-.023.217-.148.194-.279-.016-.143-.113-.264-.25-.31-.82-.2-1.16-.6-1.16-2l.07-13.69c.803-.131,1.616-.194,2.43-.19,2.01,0,3.63,1,3.56,3.54,0,2.77-2.38,3.77-4.79,3.77l-.52.73h.18c.576.026,1.135.195,1.63.49.289.159.563.343.82.55.364.301.699.636,1,1,.3.38.59.78.94,1.24.48.63,1.17,1.59,1.77,2.42l.79,1.1c.21.3.44.58.5.65.631.676,1.539,1.023,2.46.94h3.004c.12-.018.203-.13.186-.25-.007-.07-.027-.138-.06-.2-.032-.073-.101-.122-.18-.13l-.11-.04c-.043,0-.086-.01-.129-.013l2.49-5.457.04-.04,6.58.12.2.36.61,1.15c.42.85.9,1.77,1,2,.55,1.22.59,1.72-.29,1.94-.23.02-.23.15-.23.27.037.139.166.235.31.23.54,0,1.95-.16,2.86-.16s2.37.16,2.91.16c.24,0,.24-.11.24-.21-.036-.13-.146-.224-.28-.24ZM116.342,13.7l2.62-5.64.07.16c.43,1.05,2.43,5.49,2.43,5.49l-5.12-.01Z" fill="#fff"/><path d="M162.052,8.45h-.029c.009.011.02.019.029.03v-.03Z" fill="#0099d8"/><path d="M162.872,6.76V0h-10.67v6.76h-6.76v10.7h6.76v6.76h10.67v-6.76h6.78V6.76h-6.78ZM154.741,6.111c3.314-1.558,7.263-.135,8.821,3.179h-4.79c-.227-.002-.444-.093-.604-.254-.335-.337-.333-.881.004-1.216.154-.158.241-.369.24-.59,0-.226-.091-.442-.25-.602-.335-.337-.879-.339-1.216-.004-.337.335-.339.879-.004,1.216.162.154.255.367.26.59,0,.475-.385.86-.86.86h-4.78c.657-1.398,1.781-2.522,3.179-3.179ZM151.342,9.84l4.48.5c.128,0,.255.031.369.089.398.204.555.693.351,1.091l-.04.06-3.06,5.76c-2.247-1.784-3.094-4.809-2.1-7.5ZM153.972,17.69l3.26-4.88c.083-.089.199-.14.32-.14.122,0,.238.05.32.14v-.03l3.29,4.91c-2.189,1.412-5.001,1.412-7.19,0ZM161.662,17.28l-3.11-5.84c-.065-.116-.099-.247-.1-.38,0-.001,0-.003,0-.004.034-.452.428-.79.88-.756l4.48-.49v-.01c.973,2.696.106,5.712-2.15,7.48Z" fill="#0099d8"/><path d="M159.052,8.45h2.971c-.771-.92-1.808-1.579-2.971-1.88.104.222.159.465.16.71-.019.357-.133.702-.33,1,0,.094.076.17.17.17Z" fill="#0099d8"/><path d="M159.662,11.11c-.088,0-.16.072-.16.16h.03v.1l2.4,4.53c1.242-1.417,1.712-3.351,1.26-5.18l-3.53.39Z" fill="#0099d8"/><path d="M157.752,13.95c-.036-.066-.105-.108-.18-.11-.068,0-.13.039-.16.1l-2.27,3.4c1.544.717,3.326.717,4.87,0l-2.26-3.4v.01Z" fill="#0099d8"/><path d="M155.612,11.12l-3.57-.4c-.111.452-.168.915-.17,1.38-.013,1.403.489,2.762,1.41,3.82l2.42-4.55h.07v-.09c0-.088-.072-.16-.16-.16Z" fill="#0099d8"/><path d="M156.132,8.15c-.304-.477-.345-1.076-.11-1.59-1.133.321-2.142.98-2.89,1.89h2.89c.12,0,.18-.08.12-.3h-.01Z" fill="#0099d8"/><path d="M165.802,20.99c-.889,0-1.61.721-1.61,1.61v.04h0c.011.878.732,1.581,1.61,1.57.889,0,1.61-.721,1.61-1.61s-.721-1.61-1.61-1.61ZM165.802,23.94l-.05-.05s-.001,0-.002,0c-.712-.028-1.266-.628-1.238-1.34.028-.739.649-1.315,1.388-1.288.74.027,1.317.649,1.29,1.388-.027.74-.649,1.317-1.388,1.29Z" fill="#0099d8"/><path d="M166.074,22.71c.265-.017.465-.245.448-.51,0-.37-.21-.53-.64-.53h-.7v1.81h.3v-.75h.32l.48.8h.31l-.52-.82s.001,0,.002,0ZM165.792,22.48h-.34v-.57h.38c.19,0,.4-.03.4.27s-.2.3-.44.3Z" fill="#0099d8"/></g></g></svg>