<?xml version="1.0" encoding="UTF-8"?><svg id="a" xmlns="http://www.w3.org/2000/svg" width="9.468in" height="7.836in" viewBox="0 0 681.717 564.201"><path d="M469.067,16.673v91.365c13.075-11.594,30.274-18.638,49.125-18.638,40.938,0,74.125,33.187,74.125,74.125,0,22.143-9.716,42.008-25.111,55.587,8.207,2.214,16.279,4.981,24.182,8.324,20.566,8.699,39.195,20.85,55.47,36.144,21.52-27.619,34.359-62.329,34.359-100.055C681.217,73.489,608.228.5,518.192.5c-17.122,0-33.623,2.649-49.125,7.549v8.625Z" fill="#999"/><path d="M518.192,237.65c-37.301,0-74.125-29.326-74.125-74.125V16.673s-30.107,14.063-53.342,35.044c-23.693,21.395-35.559,37.651-35.559,37.651v380.646c19.534,37.354,72.989,93.687,163.025,93.687s163.025-72.989,163.025-163.025-72.989-163.025-163.025-163.025ZM518.192,474.801c-40.938,0-74.125-33.187-74.125-74.125s33.187-74.125,74.125-74.125,74.125,33.187,74.125,74.125-33.187,74.125-74.125,74.125Z" fill="#8db528"/></svg>