<?xml version="1.0" encoding="UTF-8"?><svg id="a" xmlns="http://www.w3.org/2000/svg" width="4.543in" height="7.848in" xmlns:xlink="http://www.w3.org/1999/xlink" viewBox="0 0 327.114 565.036"><defs><radialGradient id="b" cx="168.217" cy="275.579" fx="168.217" fy="275.579" r="284.163" gradientUnits="userSpaceOnUse"><stop offset=".443" stop-color="#bdbdbd"/><stop offset="1" stop-color="#878787"/></radialGradient><radialGradient id="c" cx="171.732" cy="283.58" fx="171.732" fy="283.58" r="285.322" gradientUnits="userSpaceOnUse"><stop offset=".068" stop-color="#c8da30"/><stop offset="1" stop-color="#93c13e"/></radialGradient></defs><path d="M292.639,263.939c-16.33-15.345-35.018-27.533-55.652-36.259-7.928-3.356-16.024-6.132-24.258-8.352,15.444-13.623,25.194-33.552,25.194-55.771,0-41.075-33.297-74.365-74.365-74.365-18.913,0-36.166,7.067-49.284,18.7V7.572c15.55-4.915,32.105-7.572,49.284-7.572,90.327,0,163.557,73.23,163.557,163.557,0,37.85-12.881,72.675-34.469,100.382h-.006Z" fill="url(#b)"/><path d="M237.922,401.479c0,41.075-33.297,74.365-74.365,74.365s-74.365-33.296-74.365-74.365,33.297-74.365,74.365-74.365,74.365,33.297,74.365,74.365ZM327.114,401.479c0-90.327-73.23-163.557-163.557-163.557-37.426,0-74.365-29.423-74.365-74.365V16.224s-30.203,14.11-53.513,35.155C11.901,72.849,0,89.155,0,89.155v381.887c19.599,37.476,73.23,93.995,163.557,93.995s163.557-73.23,163.557-163.557Z" fill="url(#c)"/></svg>