<?xml version="1.0" encoding="UTF-8"?><svg id="a" xmlns="http://www.w3.org/2000/svg" width="70.835" height="91" xmlns:xlink="http://www.w3.org/1999/xlink" viewBox="0 0 70.835 91"><defs><linearGradient id="b" x1="8.302" y1="62.698" x2="8.302" y2="79.173" gradientTransform="translate(0 95.648) scale(1 -1)" gradientUnits="userSpaceOnUse"><stop offset="0" stop-color="#ffc800"/><stop offset=".224" stop-color="#ffc400"/><stop offset=".423" stop-color="#feba01"/><stop offset=".613" stop-color="#fda702"/><stop offset=".797" stop-color="#fb8e04"/><stop offset=".975" stop-color="#f96d06"/><stop offset="1" stop-color="#f96806"/></linearGradient></defs><polyline points="0 16.475 0 32.95 16.604 16.475" fill="url(#b)" fill-rule="evenodd"/><path d="M0,16.475C0,7.38,7.38,0,16.475,0h54.317c0,9.096-7.38,16.475-16.475,16.475H0Z" fill="#1861f5"/><path d="M70.835,91H16.518C7.422,91,.043,83.62.043,74.525v-19.865l16.475-16.475h35.653c0,9.096-7.38,16.475-16.475,16.475h-19.178v14.931c0,2.746,2.231,4.934,4.934,4.934h32.865c4.548,0,8.667,1.845,11.67,4.848,3.003,2.96,4.848,7.079,4.848,11.627Z" fill="#1861f5"/></svg>