<?xml version="1.0" encoding="UTF-8"?><svg id="a" xmlns="http://www.w3.org/2000/svg" width="3.22in" height="6.93in" viewBox="0 0 231.84 498.66"><path d="M141.88,486.18h6.7c22.06-.39,31.51-12.21,31.51-34.27,0-9.45-1.58-18.51-2.76-28.36-1.57-9.45-3.15-19.3-3.15-29.94,0-25.21,11.03-38.6,28.36-42.94v-.79c-17.33-4.73-28.36-17.33-28.36-42.54,0-10.64,1.58-20.09,3.15-29.94,1.18-9.45,2.76-18.91,2.76-27.97,0-21.27-8.27-33.48-31.12-33.88h-7.09v-21.67h7.88c33.48,0,57.51,15.36,57.51,51.6,0,11.03-1.57,21.67-3.15,32.7s-3.15,22.06-3.15,33.09c0,13.61,3.86,28.75,30.87,29.13V0H0v498.66h141.88v-12.47ZM99.94,165.93c1.24,7.47,2.49,15.25,2.49,23.65,0,19.92-8.71,30.5-22.41,33.92v.62c13.69,3.73,22.41,13.69,22.41,33.61,0,8.4-1.25,15.87-2.49,23.65-.93,7.47-2.18,14.94-2.18,22.09,0,16.8,6.54,26.45,24.58,26.76h5.6v17.12h-6.22c-26.45,0-45.43-12.14-45.43-40.77,0-8.71,1.24-17.12,2.49-25.83s2.49-17.43,2.49-26.14c0-10.89-3.11-23.03-25.21-23.03v-15.87c22.09,0,25.21-13.38,25.21-23.03,0-8.4-1.24-16.8-2.49-25.21s-2.49-17.12-2.49-25.52c0-31.43,19.6-42.63,45.12-42.63h6.54v17.12h-5.29c-17.43.31-24.89,9.65-24.89,27.07,0,7.47,1.25,14.63,2.18,22.41Z" fill="#fff"/><path d="M200.97,389.67c0,10.64,1.57,21.27,3.15,31.91,1.58,10.64,3.15,21.67,3.15,32.3,0,22.3-7.8,36.55-20.34,44.78h44.91v-138.12c-27.01.42-30.87,17.07-30.87,29.13Z" fill="#fff"/></svg>