<?xml version="1.0" encoding="UTF-8"?><svg id="a" xmlns="http://www.w3.org/2000/svg" width="3.22in" height="6.93in" viewBox="0 0 231.84 498.66"><path d="M200.97,389.67c0,10.64,1.57,21.27,3.15,31.91,1.58,10.64,3.15,21.67,3.15,32.3,0,22.3-7.8,36.55-20.34,44.78h44.91v-138.12c-27.01.42-30.87,17.07-30.87,29.13Z" fill="#fff"/><path d="M0,0v498.66h141.88v-12.47h6.7c22.06-.39,31.51-12.21,31.51-34.27,0-9.45-1.58-18.51-2.76-28.36-1.57-9.45-3.15-19.3-3.15-29.94,0-25.21,11.03-38.6,28.36-42.94v-.79c-17.33-4.73-28.36-17.33-28.36-42.54,0-10.64,1.58-20.09,3.15-29.94,1.18-9.45,2.76-18.91,2.76-27.97,0-21.27-8.27-33.48-31.12-33.88h-7.09v-21.67h7.88c33.48,0,57.51,15.36,57.51,51.6,0,11.03-1.57,21.67-3.15,32.7s-3.15,22.06-3.15,33.09c0,13.61,3.86,28.75,30.87,29.13V0H0ZM142.24,349.79l-15.31,20.15v.32l24.34-3.22v10.96l-24.34-2.9v.32l15.47,19.34-10.15,5.8-9.67-22.56h-.32l-10.48,22.72-9.19-5.8,15.31-19.66v-.32l-23.85,3.06v-10.96l23.69,3.06v-.32l-15.15-19.66,9.83-5.64,9.99,22.4h.32l9.83-22.56,9.67,5.48ZM138.74,158.25h-3c-9.89.18-14.13,5.47-14.13,15.37,0,4.24.71,8.3,1.24,12.72.71,4.24,1.41,8.65,1.41,13.42,0,11.3-4.95,17.31-12.72,19.25v.35c7.77,2.12,12.72,7.77,12.72,19.07,0,4.77-.71,9.01-1.41,13.42-.53,4.24-1.24,8.48-1.24,12.54,0,9.54,3.71,15.01,13.95,15.19h3.18v9.71h-3.53c-15.01,0-25.79-6.89-25.79-23.14,0-4.95.71-9.71,1.41-14.66s1.41-9.89,1.41-14.84c0-6.18-1.77-13.07-14.31-13.07v-9.01c12.54,0,14.31-7.59,14.31-13.07,0-4.77-.71-9.54-1.41-14.31s-1.41-9.71-1.41-14.48c0-17.84,11.13-24.2,25.61-24.2h3.71v9.71Z" fill="#fff"/></svg>