<?xml version="1.0" encoding="UTF-8"?><svg xmlns="http://www.w3.org/2000/svg" width="8.49in" height="6.94in" viewBox="0 0 610.96 499.84"><g id="a"><path d="M603.91,232.76L392.86,19.34c-15.33-15.51-41.75-4.65-41.75,17.16v112.81h-170.95c-16.72,0-30.27,13.55-30.27,30.27v140.68c0,16.72,13.55,30.27,30.27,30.27h170.95v112.81c0,21.81,26.42,32.66,41.75,17.16l211.05-213.42c9.4-9.51,9.4-24.81,0-34.32Z" fill="currentColor"/></g><g id="b"><path d="M235.69,499.84h-125.43c-60.89,0-110.26-49.36-110.26-110.26V110.26C0,49.36,49.36,0,110.26,0h125.43c8.44,0,15.27,6.84,15.27,15.27v19.45c0,8.44-6.84,15.27-15.27,15.27h-125.43c-33.28,0-60.26,26.98-60.26,60.26v279.32c0,33.28,26.98,60.26,60.26,60.26h125.43c8.44,0,15.27,6.84,15.27,15.27v19.45c0,8.44-6.84,15.27-15.27,15.27Z" fill="currentColor"/></g></svg>